<svg xmlns="http://www.w3.org/2000/svg" version="1.1" viewBox="789 30 859 1096">
<path transform="translate(963,30)" d="m0 0h164l8 2 32 16 8 6 10 9 10 8 14 4h18l11-3 10-5 12-11 6-8 1 3-7 9-7 7-14 8-9 4-5 1-16 1 10 7 8 7 13 12 14 9 9 3h21l8-4 10-11 1 2-6 8-8 6-12 5-4 1h-16l10 13 3 5-2 9-2 2h-3l3 12 12 22 4 10 4 9v6l-4-2-7-8-8-2-9 3-3 5-5 6-1 7 1 13v22l-2 2-4-8-5-15-1-1-7 16-8 33-4 22v26l4 18 5 12v4l-3 1 9 9-1 2-6-3h-2l2 10 12 24 7 1 10-3 13-6 12-5 15-7 10-1 4-1 3 5 3 12v19l-2 20v18l2 8 6 8 9 8 8 7 5 7 11-1 10-2h19l13 2 14 7 7 5v-2l-1-5 3-18 10-38 4-15 8-29 12-46 8-28 6-28 10-43 10-35 4-20v-11l-1-17 7-28 7-16 6-8 1-1 13 1 16 3 16 6 22 12 5 6 2 8-1 8-7 28-5 13-4 5-6 5-3 7-5 12-9 35-6 11-6 30-4 17-1 14-4 14v10l-4 11-5 16-8 26-2 5v6l1 2-5 16-12 44-6 27-5 28-1 5 8 16 4 22 5 10 9 12 10 9 13 12 10 10 7 8 12 12 6 9 1 2v7l-5 21-4 6-1 4-8 3 3 19 9 45 10 44 9 38 10 35 10 37 14 47 16 51 7 25 15 52v6l-5 5-3 2-5 1h-21l-26-3-82-4-8-1-20-1h-12l-12 2h-64l-83 3-42 2h-59l-60-1-87 3-32 1-3-1h-17l-13 2h-17l-14-3-11 1-13 1h-16l-17-1-14-3-15-6-2-3v-8l7-47 3-30 4-36 6-43 3-18v-21l5-24 1-4v-16l-5-16-11-31-6-24-3-21v-13l4-11 6-10 10-12 6-9 16-17 12-11 9-8 5-5 10-17 9-14 10-15 7-9 7-8 5-3 11-10 11-8 11-9 16-11 9-4h2l7-14h-2l-4-9-8-13-2-5 3-9v-9l2-5-5-9-5-4h-5l-10 8-28 20-9 6-7 1-7-1-7-6-7-16-6-17-5-9v-2l-5-2-8-7-6-10-11-10-5-12v-2l-4-2-10-4-16-1-8-4-4-4 2-16-2-6-24-9-11-8-6-7-1-4h-2l4 13 3 9 5-1 7 4 1 1v5l-2 2v8l8 13v2l-5-2-8-9-9-16-10-24-7-20-1-3h-8l-5 4-5 1 1-5 6-13 4-18v-11l-6-28-10-41-3-17v-32l5-6 16-10 5-8 7-1 3-4-1-9-7-23v-7l3-2 17-4 12-5 7-6h2v-2l-5 1-8-7-4-5 1-5 7-14 6-8 10-10 15-6 17-2h17l5 2 9-1 16-8 15-8zm-113 64m1 1m1 1m1 1m370 269m-382 34 2 3v-3zm4 2 1 2z" fill="#000101"/>
<path transform="translate(963,30)" d="m0 0h164l8 2 32 16 8 6 10 9 10 8 14 4h18l11-3 10-5 12-11 6-8 1 3-7 9-7 7-14 8-9 4-5 1-16 1 10 7 8 7 13 12 14 9 9 3h21l8-4 10-11 1 2-6 8-8 6-12 5-4 1h-16l10 13 3 5-2 9-2 2h-3l3 12 12 22 4 10 4 9v6l-4-2-7-8-8-2-9 3-3 5-5 6-1 7 1 13v22l-2 2-4-8-5-15-1-1-7 16-8 33-4 22v26l4 18 5 12v4l-3 1 9 9-1 2-6-3h-2l2 10 10 20v2l-21 9-21 11-16 10-11 10-8 6h-2l-1 3-9 6-10 9-7 4-5 5-8 7-7 10-8 10-8 13-5 9-1 9 3 16v8l-3-2-7-14-16-16-10-13-2-2-4 2-1-8 2-5-5-9-5-4h-5l-10 8-28 20-9 6-7 1-7-1-7-6-7-16-6-17-5-9v-2l-5-2-8-7-6-10-11-10-5-12v-2l-4-2-10-4-16-1-8-4-4-4 2-16-2-6-24-9-11-8-6-7-1-4h-2l4 13 3 9 5-1 7 4 1 1v5l-2 2v8l8 13v2l-5-2-8-9-9-16-10-24-7-20-1-3h-8l-5 4-5 1 1-5 6-13 4-18v-11l-6-28-10-41-3-17v-32l5-6 16-10 5-8 7-1 3-4-1-9-7-23v-7l3-2 17-4 12-5 7-6h2v-2l-5 1-8-7-4-5 1-5 7-14 6-8 10-10 15-6 17-2h17l5 2 9-1 16-8 15-8zm-113 64m1 1m1 1m1 1m370 269m-382 34 2 3v-3zm4 2 1 2z" fill="#353C4D"/>
<path transform="translate(1159,72)" d="m0 0 8 1 16 5 9 6 10 9 14 14 8 7 11 9 7 6 7 8 13 11 5 6-4 1 3 12 12 22 4 10 4 9v6l-4-2-7-8-8-2-9 3-3 5-5 6-1 7 1 13v22l-2 2-4-8-5-15-1-1-7 16-8 33-4 22v26l4 18 5 12v4l-3 1 9 9-1 2-6-3h-2l3 20h-2l-1-3-2-1v-3h-2v-3h-2v-3h-2l-2-6h-2l-4-7-5-4-1 6h-2l-1 8h-2l-4-10-4-17-3-7-1 1-1 8-3 7-4 10-3 8h-2l-2 5-3 3h-4v-3l4-2 4-6v-12l-3-13-6-12-5-2v5l-4 4-1-7h-2l-3-13h-2l-2 6h-2l-5 10-10 8-3 3-9 3-2 21-2 14h-2l-3-26v-16l2-3 14-1 8-3 7-8 4-8-6 5-3-1v2h-3l-2 5h-8l-3-4 1-9 4-3 3-1v-2l-5-3h-7v-30l-1-12 3-8v-8l-2-1v-4h-2l-1 5-4 10-2 4-9 1-2 36-3 13v25l-1 5-4-2-3-7-4-3-2-5-9-11-8-8-13-9-11-6-2-1 2 18 2 16 2 19v7l-2 4h-1l-1-8v-10l-3-1-2-7-2-10-6-14-16-26-6-9v-2h-2v-2l-19-2-7-3-11-1 1 4 4 2-1 5-4 3v7l-3 3 5-1 3-1 9 1v3h-2v3h-2l-2 5-6 8-1 6-4-2 1-8-14 3-15 7v5l-1 1h-5l-2-4-6-2-1-3-13 4h-5l-4-2 1-4 14-13 11-9 6-4 5-4h2v-3l-6-2-10-6-5-2-4-3v-2l-4-2-7-7-7-10-8-16-5-12-1-12h-2l-8-21-7-11-12-14-6-4-7-1-2-6 1-5h8l16 4 28 13 30 10 4 1-1-1-11-7-9-9v-2l-4-2-9-8-13-9-5-3v-2l10-4h3v-2h-8l-9 3h-8l-6-2v-2l13-4 11-2h14l23 6 17 6 20 9 16 5 26 5-11-4-12-7-14-11-16-13-13-8 3-1 9 3 5 1 8-7 7-7 8-5h2v-3l-16-2 3-2 22-4 20-3h20l16 2 20 1 17 3 14 2-2 6-6 8-12 8 5-1 2-2h4l2-4 8-9 4-6 3 1-6 12 7-7 5-7 2-3 1 4 19 6 15 5 16 9 13 10 7 8-4-7-11-12-10-7-16-8-11-6 4-1 24 7 16 5 21 10 13 9 4 2-11-12-23-23z" fill="#1C344B"/>
<path transform="translate(1292,394)" d="m0 0h5l-5 4-21 13-14 10-4 5-9 6-1 3h-2l-2 4-10 10-7 6h-2l-2 4-9 10-13 13-6 7h-2l-1 3h-2l-2 4-5 5-11 17-12 18-11 16-12 21-10 20-6 10-1 6h-2l-1 7-3 5h-2l-1 4v45l-2 3 8-2 11 3 10 4 3 7 4-15 6-10 5-5 10-15 11-14 8-11 15-16 24-24 11-9 14-15 14-9 21-11 24-10 16-5 16-3 31-9 3-1-1 3-23 8-6 3 5 8-1 4-4 3-9 3-9 2-15 6v4l5 5 9 3 10 4 11 3v2l46 1 2 2-15 2-4 1v3l-8 2-18 2 1 1 28-2h18l19 2 15 4 20 8-1 3-11 7-9 8-3 5v7l4 8 5 3 15 1 1 4-6 2-20 3-8 2h-4v2l-15 6-27 9-26 12-31 16-19 13-26 20h-2v2l-9 7v2h4v2l6 1-5 10-11 19-9 16-7 16-3 5-5-1-5-3 2-4 7-9 8-16 6-14 2-3v-3l-4 7h-2l-1 5-4 5-11 9-4-1 1-11 20-40h2l2-5 24-24 7-8 9-9 10-8 10-7 17-10 5-5-16 9-17 12-9 7-8 7h-2v2l-6-1-13-8-16-11-3-3 1-5 9-11 23-23 1-2-7 4-20 18-36 36-7 9-9-2-17-3-11-1-1-4 6-9 7-9 11-13 10-11 8-7 11-11 11-9 9-8v-2l-8 5-14 11-10 10-8 7-9 9-11 14-12 16-3 8 1 10 3 1v-2h3v-3h11l10 3 8 7 6 9 4 9 1 7v8h-2l-3-5-4-11-3-5-3-6v-2l-3-1-3-5-7-3h-9l-9 10-4 7-5 14-5 16-4 16v7l2 13 11 19-2 1-9-15-7-10 1 4 4 7-1 3-8-11-10-17 1-10 7-32h-2v2l-7 1-9-10-4-3h-2l1 6 4 6 1 6-2 3-3-1-4-8-4-2-5 5-2 3h5l-2 8h-2l-3-6-2 5-4 5-1 10 1 5 6 2-1 3-4 3-5-1-4-8-2-1v-3h-2v2h-8l-10 8-8 8-11 9-7 6-9 7-25 25-7 9-4 4h-3v-2h-3l-2-15-1-14-3-4-1-4-3-1h-5l-1-5 2-9 1-9 6-3 3-1 3 8 1 4h2v-10l4-6 8-10 4-7 6 1 8 4h3l4 1 3 7 9 15 2 4-1 3-5-4-8-16-1-5h-2l7 19 3 6-2 4-11 10-5 4-7 8-8 8-4-1-1-5-2-1-1-11-2-12 1 19 1 9v15l5-2 9-10 7-8 17-17 10-8 14-13 11-9 9-8-1-6 5 3h1l-3-6-2-5-3 1v-2l-3-1 2-5 3-1h2l7-9 5-4 7-8 11-11 2-4-2-1v-6l-8 1-9 4-10 4-9 7-5 2-16 12-15 10-6 3h-2v2l-7 1v-2l-4-2 1-6 1-2 1-26 1-4 1-17 5-9 11-6 7-4h3l-2 13-3 9-7 6-1 3-5 3 4 16 2 13h6l17-11 36-26 5-3h2l1-3 9 1v-33h2l3-9 1-2h2l2-6 18-37 16-27 8-11 13-19 8-11 9-14 9-9 3-5 8-7 7-8 13-12 15-15 6-5-3-8 1-3 2 4 5-1 19-14 13-8z" fill="#081F2F"/>
<path transform="translate(963,30)" d="m0 0h164l8 2 32 16 8 6 10 9 10 8 14 4h18l11-3 10-5 12-11 6-8 1 3-7 9-7 7-14 8-9 4-5 1-16 1 10 7 8 7 13 12 14 9 9 3h21l8-4 10-11 1 2-6 8-8 6-12 5-4 1h-16l10 13 3 5-2 9-4-2-12-11-8-7-4-5-11-9-11-10-8-7-15-15-10-7-10-4-12-3h-3l5 6 8 7 21 21 3 4-1 2-14-10-21-11-15-5-26-7h-2l16 8 13 8 10 9 9 11 2 6-5-5-6-7-14-10-16-8-15-5-16-5-2-2-8 10-5 5-2-1 7-11h-3l-6 9-7 8-5 2-3 2-4-1 11-8h2l2-4 6-10-14-1-17-3-20-1-16-2h-20l-32 5-10 2 13 3v3l-10 6-13 13-6 1-6-3h-3l10 7 16 13 16 12 16 8 8 2v1l-11-1-26-6-16-6-18-8-22-7-13-3h-14l-18 4-6 1v2l6 1h8l10-3 7 1v2l-10 4h-3v2l5 2 18 13 8 7 7 8 11 8 4 2-1 2-29-9-16-7-17-8-16-4h-8l1 10h7l8 6 12 14 7 12 7 19-1 3-7-10-11-13-6-5-4-4v-5l4 2 11 12 6 8-2-5-9-14-12-13-4-3-6-1-4 4v5l-2 1-2-15-7-23v-7l3-2 17-4 12-5 7-6h2v-2l-5 1-8-7-4-5 1-5 7-14 6-8 10-10 15-6 17-2h17l5 2 9-1 16-8 15-8z" fill="#E7FCFE"/>
<path transform="translate(1222,124)" d="m0 0 6 2 5 5 3-1 4-1 10 9 11 9 6 7-4 1 3 12 12 22 4 10 4 9v6l-4-2-7-8-8-2-9 3-3 5-5 6-1 7 1 13v22l-2 2-4-8-5-15-1-1-7 16-8 33-4 22v26l4 18 5 12v4l-3 1 9 9-1 2-6-3h-2l3 20h-2l-1-3-2-1v-3h-2v-3h-2v-3h-2l-2-6h-2l-4-7-5-4-1 6h-2l-1 8h-2l-4-10-4-17-3-7-1 1-1 8-3 7-4 10-3 8h-2l-2 5-3 3h-4v-3l4-2 4-6v-12l-3-13-6-12-5-2v5l-4 4-1-7h-2l-3-13h-2l-2 6h-2l-5 10-10 8-3 3-9 3-2 21-2 14h-2l-3-26v-16l2-3 14-1 8-3 7-8 4-8-6 5-3-1v2h-3l-2 5h-8l-3-4 1-9 4-3 3-1v-2l-5-3h-7l1-30 4 2 4 4 1 8 8 5-1 7 3 2 3-1-1-3 4-6h2v-4l4-1 8-11 4-8h1l-1 7-1 2h-2l-2 5-6 10-1 4 3-2v2l3 1 8-14 7-13-1-10-8-16-6-10h4v2l5 2 17 12 9 7 3 1-7-8-10-8-5-3v-2l-10-3-11-6-11-9-8-5-21-2-6-2 1-2 7 1h42l18 6 20 11 12 8v2l6 3-7-14-10-12-5-5v-2l-4-2-9-6-4-2v-2l8-1-2 1 3 3 21 9 11 5 7 5h3l-4-11-8-11-7-6-5-1 1-3h2l2-4 13-13 7-6 8-10 4-10v-11l-4-4-4-7-1-6z" fill="#000101"/>
<path transform="translate(832,156)" d="m0 0 7 2 10 9 9 11 8 13-1 3-11-13-8-9-2-1 2 7 6 4 7 7 7 9 3 4v5l-2 2-2 5-8 16h-2l1-5 4-10 2-7-3 1-5 16-3-1-2 11-2 4 1 17 6 21 5 11-7-26-4-21v-5h2l1-7 2-1 3 16 7 29 6 38 3 13 9 6 11 6 4 4v7l-3 10h-2l-5-13-6-9-11-9-9-6-4-4-1 4 3 13 6 9 7 10 2 4-1 3-10-6-13-11-10-9-7-8-2-1-3 8-1 6 1 18 1 11 2 1 4 17 2 5 5-1 7 4 1 1v5l-2 2v8l8 13v2l-5-2-8-9-9-16-10-24-7-20-1-3h-8l-5 4-5 1 1-5 6-13 4-18v-11l-6-28-10-41-3-17v-32l5-6 16-10 5-8 7-1 4-3 1 4v-5zm9 244 2 3v-3zm4 2 1 2z" fill="#0A2131"/>
<path transform="translate(1410,690)" d="m0 0h6l2 2v6h4l2-4 2-3h5l-4 7-8 11-1 3 1 20v28l8 14 7 11 2 7-7-1-12-5-18-8-12-5-3-1 6 16 5 26 2 12-1 4 5 5 6 5 7 8 3 3v2h2l3 4v2h2l4 5v2l4 2 9 10v2h2v2h2v2l4 2 8 7v2h18l9-1h14l-4 2-29 3-11-3-13-13-2-1 1 12-2 4h-2l-1 10 2 1v8l2 1 1 8h2v5l-3 2h-5l-6-6v-14l3-12 2-21-14-14-2-5-2-4-5-7v-3l-9-8-11-9-7-7-6-5h3l7 5h1l-5-31-3-16-1-7-22-12-17-9-22-10-10-5-1-2 17-10 13-6 12-5 6-2 4-2 8-2 4-2 1-2 21-6z" fill="#081F2F"/>
<path transform="translate(1272,842)" d="m0 0 5 1 13 13 15 22 11 15 1 2v24l-1 7 4 12 2 14-6 7-16 14-10 13-9 14-3 6 3-1-2 5-2 4v4l3-4 4 1 5 13v4l4 2-4 7-4 5-2-2-4-11 1 8 3 6v2l-4 1-3-8-4-19 1-7 4-9-4-1-4-6-5-16-3-8-5-22-1-10h2l3 13 4 17-3-17-2-13v-54l3-20 5-18z" fill="#081F2F"/>
<path transform="translate(1084,209)" d="m0 0 6 4 5 4 11 3v1h-6l1 1 11 2 14 1 9 6 13 10 8 4 10 4v2l5 2 10 8 7 7v2l-4-1-16-12-14-9v-2l-3 1 9 14 5 11 1 10-7 13-9 15-1-2h-4-3l4-8 6-9 1-2h2l1-8-5 10-7 9h-4v4l-4 4-1 5-4 2v-2l-3-1 1-7-8-5-1-8-5-5-3-1-1-12 3-8v-8l-2-1v-4h-2l-1 5-4 10-2 4-9 1-2 36-3 13v25l-1 5-3-3v-14l-2-9v-7h-3v-5l3 1v-11l-3-12v-17h-4l-3-5-26-8-10-4-9-6-1-2 5 1 16 6 19 3 10 3 5 2-2-6-8-10-5-5 1-2 11 7 3 3 5 3 5-1 9-5 2-2-1-7-2-7h-2l-6-13v-2h-2l-6-7z" fill="#1B3248"/>
<path transform="translate(869,204)" d="m0 0 3 2 2-1 2 12 5 12 10 19 8 10 7 6v2l12 6 13 7v3l-9 7-5 3-14 12-10 9-1 3 9 1 9-3h4l2 3 5 2-4 2-5 3h-2v2l-8 4-13 4-5-2-11-6-2-2-5-25-4-26-9-37-1-7-2 7h-2l5 26 7 26-1 3-7-17-5-18-1-19 3-5 2-8 3-1 4-14 4-1-2 10-5 12h2l2-5 5-11 3-6z" fill="#353C4D"/>
<path transform="translate(840,224)" d="m0 0 5 2 2 6 1 24 6 21 5 11-7-26-4-21v-5h2l1-7 2-1 3 16 7 29 6 38 3 13 9 6 11 6 4 4v7l-3 10h-2l-5-13-6-9-11-9-9-6-4-4-1 4 3 13 6 9 7 10 2 4-1 3-10-6-13-11-10-9-7-8-2-1-3 8-1 6 1 18 1 11 2 1 4 17 2 5 5-1 7 4 1 1v5l-2 2v8l8 13v2l-5-2-8-9-9-16-10-24-7-20-1-3h-8l-5 4-5 1 1-5 6-13 4-18v-11l-3-15h2l1-2 6 18 7 8 3 1 2-5 7-14 5-25 6-20-1-11-3-16zm1 176 2 3v-3zm4 2 1 2z" fill="#EF9C8E"/>
<path transform="translate(1512,123)" d="m0 0 13 1 16 3 16 6 22 12 5 6 2 8-1 8-3 13-1-4-13-1-22-6-21-9-1 6-5 14-4 13h-15l-3 1 2 7 3 3v2l-4-2-1-3-4-1-2-19 1-9 6-24 7-16 6-8z" fill="#092132"/>
<path transform="translate(809,208)" d="m0 0 12 2 2 2-1 4 6 5 13-1 2 3h-5l2 5v6h2l3 16-1 7-7 25-3 17-8 16-2 3-4-1-7-8-4-12-1-5-3 1v-5l1-2-2-10-1-11-2-4-2-12v-7l6-24z" fill="#020305"/>
<path transform="translate(1388,974)" d="m0 0 5 2 7 8 2 4 4 2 8 7 4 6 14 14 4 5 5 4 20 20-3 1v2l10-5 1-2-4 1 4-4 12-5h5l-5 4 3 7 7 32 5 28v10h-33l-1-5-10-29-2-5v-6h2l-1-8-5 5-8 12-2 5-2 2-7 20-4 8-7-1 1-7 2-5h2l2-5h2l1-4 2-4h2l1-4h2l1-4 8-15 10-14 1-6-4-6-10-10-7-8-12-12-5-6-8-7-17-17-2-1z" fill="#092132"/>
<path transform="translate(1299,501)" d="m0 0h21l13 2 12 8-13 4-16 3-16 5-27 12-17 9-13 9-14 15-11 9-3 2-5-3-2-3 2-11 6-13 9-12 12-12 13-8 5-2h3v-5l6 1 12-3 10-4z" fill="#081F30"/>
<path transform="translate(1292,394)" d="m0 0h5l-5 4-21 13-14 10-4 5-9 6-1 3h-2l-2 4-10 10-7 6h-2l-2 4-9 10-13 13-6 7h-2l-1 3h-2l-2 4-5 5-11 17-12 18-11 16-12 21-10 20-6 10-1 6h-2l-1 7-3 5h-2l-1 4v45l-2 3 8-2 11 3 5 2-3 1-15-3-3 7-13 11-9 7-11 9v-3l12-13 9-9 2-4-2-1v-6l-8 1-9 4-10 4-9 7-5 2-16 12-15 10-6 3h-2v2l-7 1v-2l-4-2 1-6 1-2 1-26 1-4 1-17 5-9 11-6 7-4h3l-2 13-3 9-7 6-1 3-5 3 4 16 2 13h6l17-11 36-26 5-3h2l1-3 9 1v-33h2l3-9 1-2h2l2-6 18-37 16-27 8-11 13-19 8-11 9-14 9-9 3-5 8-7 7-8 13-12 15-15 6-5-3-8 1-3 2 4 5-1 19-14 13-8z" fill="#0E283C"/>
<path transform="translate(1240,819)" d="m0 0 3 1-3 16-1 17 10-1-1 12-1 17 1 23 2 23h-3l-6-9-2-4 3 14v3l-5 1-3-3v-2l-3-1-11-15-12-23-6-15-4-14 5-5 8-7h2l5 30 10 28 3 9 5 11-1-7-8-20-3-9-4-23-1-10v-19l4-4 13-9z" fill="#081F2F"/>
<path transform="translate(995,730)" d="m0 0 6 1 8 4h3l4 1 3 7 9 15 2 4-1 3-5-4-8-16-1-5h-2l7 19 3 6-2 4-11 10-5 4-7 8-8 8-4-1-1-5-2-1-1-11-2-12 1 19 1 9v15l5-2 9-10 7-8 17-17 10-8 14-13 11-9 9-8-1-6 5 3 4 8h-8l-10 8-8 8-11 9-7 6-9 7-25 25-7 9-4 4h-3v-2h-3l-2-15-1-14-3-4-1-4-3-1h-5l-1-5 2-9 1-9 6-3 3-1 3 8 1 4h2v-10l4-6 8-10z" fill="#092132"/>
<path transform="translate(1148,659)" d="m0 0 1 3-4 5-4 11-10 45-4 20v9l9 8 4 6 2 1 3 8 8 13 1 3h-2l-9-15-7-10 1 4 4 7-1 3-8-11-10-17 1-10 7-32h-2v2l-7 1-9-10-4-3h-2l1 6 4 6 1 6-2 3-3-1-4-8-4-2-5 5-2 3h5l-2 8h-2l-3-6-2 5-4 5-1 10 1 5 6 2-1 3-4 3-5-1-4-8-2-1v-3l-3 1-2-7-3-6-2-5-3 1v-2l-3-1 2-5 3-1h2l7-9h3l13-11 12-9 7-6 3-7 15 3 7 1 4 8 4-15 6-10z" fill="#0C2434"/>
<path transform="translate(1148,145)" d="m0 0h2l-2 5-5 6 4 2 15 3 19 1 22-2 10-4 8-6 2-3h2v8l-4 8-3 1-2 5-10 11h-2v2l-9 7-6-1-16-9-17-8-12-6-6-4-7 2-8 7-14 9-17 6h-4v2l-7 1h-9v4l7 1 1 2 20 1 25-1v3l-5 3-1 2h36v2l-13 9h-10l-11-4-6-5h-23l-12-4-7-2-10-6-14-8-7-3v-1l9 1 5 2h19l14-1 13-4h2l1-3 11-6 4-3h2v-2l-4-1 9-4 6-3h4l2-4 8-7z" fill="#081F2F"/>
<path transform="translate(897,47)" d="m0 0h17l5 2h10l-5 5-9 6-11 9-10 10-10 8-15 10-6 2h-8l-1-1-1 3 7 1 5 1-1 3-8 4-4-1 4-4h2v-2l-5 1-8-7-4-5 1-5 7-14 6-8 10-10 15-6z" fill="#295781"/>
<path transform="translate(992,73)" d="m0 0h20l16 2 20 1 17 3 9 1v1h-18l-12 1-15 8-10 3-1 3 15 7 5 2v2l-10-2-8-3v-2l-10-3-21-7h-6l-12 19h-5l-1 1v6h-2v2l-6 1-5 1-10-2-12-10-9-5 3-1 9 3 5 1 8-7 7-7 8-5h2v-3l-16-2 3-2 22-4z" fill="#27547E"/>
<path transform="translate(1325,564)" d="m0 0h17l3 1v2l18-1h12l-2 2-28 6-12 5-38 19-8 5-10 5-8 6-5-1-17-7-1-1v-10l9-7 12-7 21-8 21-6z" fill="#60E7F7"/>
<path transform="translate(882,770)" d="m0 0 4 1 3 9 5 21 7 17 9 17 4 5 6 4-3-10-4-11-3-7 4-6 2 1 4 15 4 7-2 14v23l1 8v15l-2 6-3-1-4-13-3-4 2 5 2 2-1 4-11 23-3 7-2-3v-10l5-24 1-4v-16l-5-16-11-31-6-24-2-13 1-8z" fill="#F19A8C"/>
<path transform="translate(855,315)" d="m0 0 5 3 5 5 8 5 9 8 6 10 3 8v3l2 1-3 7-1 4-1 2-3 1v7l-5 2-4-2-1-6-10-3-13-4-12-6-9-8-4-5-2-1v-8l3-12 3-3 22 22 13 10 6 3-2-6-8-11-5-8-3-13z" fill="#28557F"/>
<path transform="translate(1297,1037)" d="m0 0 3 1 8 16 15 28 2 6-4 5-9 6-5 10 5-4h2l2-4 12-10 15-10 21-9 15-5h12v3l-29 9-13 8-17 10-15 10-9 7-4-1-7-18-8-27-2-7v-5h3l-2-7 8-11z" fill="#081E2E"/>
<path transform="translate(1323,535)" d="m0 0h4l1 7 29 1 14 3 38 13 17 9 2 3h-12l-17-2h-25v-1l13-2-38-1-8-1v-2l-9-1-8-4-12-3-2-4-4-2-1-4-2-1z" fill="#081F2F"/>
<path transform="translate(815,166)" d="m0 0 10 6 5 12 10 22 1 10-9-3-21-6-3 1-4 6-5 15-2 13v6l-2 1-4-15-2-12v-32l5-6 16-10z" fill="#DAFBFD"/>
<path transform="translate(1326,585)" d="m0 0h6l16 10 14 9 11 7-1 3-28 13-5 2-4-1-13-9-23-12-7-3v-2l27-14z" fill="#60E7F7"/>
<path transform="translate(1179,701)" d="m0 0 6 2 6 7v2h2l3 6v3h3l-1 7-3 7-8 4-2 14-5 12-7 9-8-1-5-4-5-9v-9l4-16 7-11 6-4 6-1-2-4-6-7 2-4z" fill="#081F30"/>
<path transform="translate(956,264)" d="m0 0 7 2v1l-9 2-12 9 1 5 9 11 7 1 8-2h8l-1 2h-2v3h-2l-2 5-6 8-1 6-4-2 1-8-14 3-15 7v5l-1 1h-5l-2-4-6-2-1-3-13 4h-5l-4-2 1-4 14-13 11-9 6-4 19-14 12-6z" fill="#000101"/>
<path transform="translate(1099,230)" d="m0 0 6 2 2 1 12-1-7 12-5 19-4 9-9 1-2 36-3 13v25l-1 5-3-3v-14l-2-9v-7h-3v-5l3 1v-11l-3-12v-17h-4l-3-5-26-8-10-4-9-6-1-2 5 1 16 6 19 3 10 3 5 2-2-6-8-10-5-5 1-2 11 7 3 3 5 3 5-1 9-5 2-2-1-7-3-7z" fill="#1D344B"/>
<path transform="translate(1320,522)" d="m0 0h5l8 9-1 2-24 9-16 7-17 10-16 11-18 13-4 3-5-1-5-3 1-5 13-14 18-13 23-12 15-8 16-6z" fill="#60E7F7"/>
<path transform="translate(1109,411)" d="m0 0 1 2-14 28-5 14-4 10-8 22-2 5-5 3-13 1v2h-5l-1-4-3-1v-2l-4-2-7-4v-2l8-6 52-52 6-8z" fill="#000101"/>
<path transform="translate(1335,997)" d="m0 0 5 5 13 17 7 11 7 7 7 9 11 13 3 5-5 2-20 4h-5l-9-17-8-16-10-19-5-10v-3l8-7z" fill="#081F2F"/>
<path transform="translate(1319,1010)" d="m0 0h3l16 33 10 20 5 9-4 3-15 8h-4l-5-12-19-38-1-7 8-10z" fill="#081F2F"/>
<path transform="translate(1301,544)" d="m0 0h4l3 5 4 4 12 3 8 4 9 2v2l-23 2-24 6-20 7-16 8-11 8v10l19 8-4 1-9-1-1-4-5-1-6-7 1-5 3-3 1-5 5-5 1-3-2-1 1-2-2-1 17-12 19-12z" fill="#1D364E"/>
<path transform="translate(1228,662)" d="m0 0 6 1 15 11 16 11-1 5-11 12-8 8-4 1-11-8-17-10-7-3 2-5 12-13z" fill="#081F2F"/>
<path transform="translate(939,991)" d="m0 0h2l2 14 6 16 5 17 2 6 1-2 2-17 3-7 1-4-7-10v-2l4 2 4 6 5 15 4 8-9 12-5 12-1 4v25l5 19 2 9h-6l-3-6-3-11-12-35-2-8v-13l3-9 1-14-4-10v-3h-2l-1-9z" fill="#F49B8C"/>
<path transform="translate(1013,736)" d="m0 0 5 5 11 19 1 5-5-3-7-12-3-7v-3h-2l7 19 3 6-2 4-11 10-5 4-7 8-8 8-4-1-2-15-1-19 16-15 8-8z" fill="#60E7F7"/>
<path transform="translate(984,240)" d="m0 0 6 4 12 9 12 6 15 4 13 1 9 3v2l5 1v2l15 2 5 1-2 5-7 10-7-1v3 2l4 1v2l-5-2-17-8-7-3-7 2-7-3-6-6v-2l-3-1v-4h-2v-3h-2l-2-4-10-8-8-7-4-6z" fill="#1A3147"/>
<path transform="translate(994,612)" d="m0 0v3l-4 8-13 21-13 22-10 26-7 19-9 19-2 6-1-4 15-48v-4l-8 14-7 9-8 7-9 10h-2v-3h-3l-2 5-4 4-3 7h-2v-3l-5 3-4 4-2-1 8-9 6-9 16-17 12-11 9-8 5-5 10-17 9-14 10-15 7-9 7-8z" fill="#1A4058"/>
<path transform="translate(1434,571)" d="m0 0 6 1 15 8 10 10 2 4 45 30 13 12 10 10 5 3 16 16 5 7-1 2-19-19-11-3-15-9-15-8-8-4-10-9-8-8-7-8-9-6-2-4 6-3-4-5-10-7-14-9z" fill="#081F2F"/>
<path transform="translate(960,756)" d="m0 0 1 3-6 15-4 15-6 14 1 4 3 4 1 14-4 37-3 25-1 13v45l1 8 1 20 1 11h-2l-1-9h-2l-3-25v-43l3-33 5-51-1-5-4 11-2 9-3-1 3-15-6 16-4-1-1-2-3 5-1 5h-1l1-12-5-10-3-12-3 1 1-4 4 1v3h3l-1-11h3l6 15 2 10 6-13 8-17 5-10 2-10h2l1-6z" fill="#182A39"/>
<path transform="translate(911,903)" d="m0 0 1 3-5 32-3 30-13 78-8 39-4 27-2 3-2-3v-8l7-47 3-30 4-36h2l1-9 4-19 10-43 4-15z" fill="#F09A8C"/>
<path transform="translate(1523,128)" d="m0 0 11 2 15 5 16 7 2 2-1 6-2 1-13-2 15 5 7 1h11v4l-2 11-2 3-10-1-23-6-17-7-4-4 5-4 1-2h3l2-5 5 1-8-5-5-4-5-5z"/>
<path transform="translate(963,30)" d="m0 0h78l1 2-16 8-11 7-11 1-17-4-15-2h-3l1 8-7 2-6 2h-5l-1-1v-5l3-4v-5l-2-1v-2z" fill="#FBFCFC"/>
<path transform="translate(1223,150)" d="m0 0 1 2-5 12-6 8-7 8h-2v2l-9 7-6-1-16-9-17-8-12-8-1-3 10 1 13 2 22 1 14-2 11-4 9-7z"/>
<path transform="translate(1512,123)" d="m0 0 13 1 16 3 16 6 22 12 5 6 1 5h-12l-10-2-14-5 4-1 12 2 1-6-15-7-13-5-15-4 10 10 5 4 8 4-2 1-13-5-5-1-2 5-6 10-2 1-17-9 3-10 7-12z" fill="#E8FDFE"/>
<path transform="translate(826,346)" d="m0 0 2 1v2l3 1 6 7 10 6 7 3 11 3 10 4 2 6 5 1 2-1-2 4h-2l-2 5-3 3h-3v2h-7l-16-6-11-8-6-7-2-4-2-1-2-11z" fill="#1E364D"/>
<path transform="translate(1156,280)" d="m0 0h1l-1 7-1 2h-2l-2 5-6 10-1 4 3-2v2h2l1 4-7 15-4 2-5 3-2-1v2h-3l-2 5h-8l-3-4 1-9 4-3 3-1v-2l-5-3h-7l1-30 4 2 4 4 1 8 8 5-1 7 3 2 3-1-1-3 4-6h2v-4l4-1 8-11z" fill="#1A3147"/>
<path transform="translate(1367,503)" d="m0 0h2l-1 3-23 8-6 3 5 8-1 4-7 1-8-9 1-4-11 4-21 7-16 8-16 9-14 8-10 8-11 10-10 8-10 9-18 18-18 22-7 9-11 14-2 4h-2l2-5 10-14 11-14 6-8 14-15 24-24 11-9 14-15 14-9 21-11 24-10 16-5 16-3 31-9z" fill="#C8F8FC"/>
<path transform="translate(1287,1056)" d="m0 0h2l12 26 8 10 4 4-2 5-4 8 5-4h2l2-4 12-10 15-10 21-9 15-5h12v3l-29 9-13 8-17 10-15 10-9 7-4-1-7-18-8-27-2-7z" fill="#081F2F"/>
<path transform="translate(1116,787)" d="m0 0h1l6 33 4 13-4 3h-2v2l-4 1h-9l-8-3-8-2 4-13 15-25 3-4z" fill="#081F2F"/>
<path transform="translate(1032,640)" d="m0 0h3l-2 13-3 9-7 6-1 3-5 3 4 16 2 13 4 2-11 9h-4l1-6-3-10-1-15-1 10h-1v-13l1-4 1-17 5-9 11-6z" fill="#0B2335"/>
<path transform="translate(1292,394)" d="m0 0h5l-5 4-21 13-14 10-4 5-9 6-1 3h-2l-2 4-10 10-7 6h-2l-2 4-9 10-13 13-6 7h-2l-1 3h-2l-2 4-5 5-11 17-12 18-11 16-12 21-10 20-6 10-9 17-1-3 21-43 16-27 8-11 13-19 8-11 9-14 9-9 3-5 8-7 7-8 13-12 15-15 6-5-3-8 1-3 2 4 5-1 19-14 13-8z" fill="#11273B"/>
<path transform="translate(1377,817)" d="m0 0 4 2 9 7 8 7 9 7 7 8 3 3v2h2l3 4v2h2l4 5v2l4 2 9 10v2h2v2h2v2l4 2 8 7v2h18l9-1h14l-4 2-29 3-11-3-13-13-2-1 1 12-2 4h-2l-1 10 2 1v8l2 1 1 8h2v5l-3 2h-5l-6-6v-14l3-12 2-21-14-14-2-5-2-4-5-7v-3l-9-8-11-9-7-7-6-5z" fill="#0D2939"/>
<path transform="translate(855,315)" d="m0 0 5 3 5 5 8 5 9 8 1 3-5-2-9-6v-2l-3-1-4-4 3 6 11 8 5 2 1 3-9 1v7l6 10v2l6 2v1l-12-1-11-3-2-1v-2l-4-2-11-8-7-8-6-8-3-6 1-4 7 6 5 6 8 7 12 10 10 6-2-6-8-11-5-8-3-13z" fill="#1F354D"/>
<path transform="translate(897,202)" d="m0 0 5 5 4 5 6 11 7 13 12 11 13 9 13 7-2 4-15 8-9 6v-2l-6-2-12-7-2-2-2-9 5 2 5 4 5 6 10 6-4-9-9-16-8-21-9-16-7-11z" fill="#081F2F"/>
<path transform="translate(1190,894)" d="m0 0 4 2 8 11 9 9 14 11 11 9 5 4v2l4 2 5 3v2l-2 1h-7l-11-4-12-8-14-14-7-8-8-11-3-10z" fill="#081F2F"/>
<path transform="translate(830,228)" d="m0 0 4 2 2 8v19l-4 9-1 2-6-2-9-4v9l-3 9h-2l-2-8v-7l4-17 6-11 8-6h2z" fill="#1D334A"/>
<path transform="translate(815,166)" d="m0 0 10 6 5 12 10 22 1 10-6-2-2-4-8-4-13-3-13-7-5-5-1-3h9l12 5 14 6-3-7-13-13-2-5z" fill="#DBFBFD"/>
<path transform="translate(1099,230)" d="m0 0 6 2 2 1 12-1-7 12-5 19-4 9-9 1-3 20-2-3-1-18-2-7-10-11-7-8-2-4 11 6 4 4 5 3 5-1 9-5 2-2-1-7-3-7z"/>
<path transform="translate(1043,487)" d="m0 0 7 4 3 7 4 2 7 14 10 9 15 9v7l3 16v8l-3-2-7-14-16-16-10-13-2-2-4 2-1-8 2-5-5-9-5-5z" fill="#F29B8C"/>
<path transform="translate(1185,842)" d="m0 0 4 1 3 9 9 25 9 20 8 16 1 4-5-2-11-9-6-8-8-17-3-8-2-14v-15z" fill="#081F2F"/>
<path transform="translate(1115,766)" d="m0 0v3l-7 9-13 14-5 7-5 5-2 4h-2l-2 4-6 10-3 2-2 4h-2l-2 4-4 7-2 1-4 8-11 17-5 8h-2l-1 5-6 10-14 28-11 25-8 21-5 21-4 21-1 2h-2l1-9 6-28 5-19 11-26 14-29 9-15 10-17 12-18 7-12h2l4-8 2-1 1-3 5-5 4-5 4-7 5-5 3-5 11-15 12-11z" fill="#122A3E"/>
<path transform="translate(1452,365)" d="m0 0 1 4 3-1-1 9-4 15-3 14-2 6-2 11-5 18-2 8h-2l-1 8-6 23h-2v10l-3 11-2 2h-3l1-13 9-35 6-22 8-29z" fill="#0C2131"/>
<path transform="translate(1197,986)" d="m0 0 1 2-6 16-2 8-24 10-24 11-20 11-9 6-2-1 13-9 12-8 17-12 19-14 13-10 10-8z" fill="#62E7F7"/>
<path transform="translate(1254,733)" d="m0 0 9 2-5 10-11 19-9 16-7 16-3 5-5-1-5-3 2-4 7-9 8-16 6-14 11-19z" fill="#F49B8C"/>
<path transform="translate(1192,196)" d="m0 0 2 1-1 2h5l10 9 8 13 2 8-5-1-7-5-20-8-14-7v-2l-2-2 21-7z" fill="#1A3147"/>
<path transform="translate(1551,869)" d="m0 0 2 2 4 11 1 7v46l1 12 1 57 1 13 2 16 5 28v4h-2l-5-10-2-21-2-19-1-16-1-59-2-21v-28l-2-15z" fill="#081F30"/>
<path transform="translate(1536,1042)" d="m0 0 6 4 10 15 14 23 2 6v-8l4 2 3 8 1 5v8h2v9l-5-1-3-13v13l-1 1h-5l-3-7-9-36-9-17-7-10z" fill="#081F2F"/>
<path transform="translate(994,612)" d="m0 0v3l-4 8-13 21-13 22-10 26-7 19-9 19-2 6-1-4 5-16 11-35 11-23 8-14 5-9 1-4 7-9 7-8z" fill="#61E7F7"/>
<path transform="translate(1536,773)" d="m0 0 2 1-3 26-13 70-4 31-2 40-2 11-2 1v-21l3-42 5-38 5-26 6-28 3-18z" fill="#142B3F"/>
<path transform="translate(974,833)" d="m0 0h1v8l-5 24-4 33-1 14v78l-3-1-2-19-1-1v-30l2-44 3-23h2l1-10 3-21z" fill="#102639"/>
<path transform="translate(1070,194)" d="m0 0 9 2 5 1h27l14-2v3l-5 3-1 2h36v2l-13 9h-10l-11-4-6-5h-23l-14-5-8-5z"/>
<path transform="translate(1209,696)" d="m0 0 6 2 15 10 8 8-2 5-14 26-3 6h-1l1-16v-15l-5-13-5-10z" fill="#081F2F"/>
<path transform="translate(1222,124)" d="m0 0 6 2 5 5 3-1 4-1 10 9 11 9 6 7-4 1 3 12 2 6-4-2-12-13-8-8-7-8-4-6v-2l-8-4 4 9-1 2-6-10-1-6z" fill="#0A2131"/>
<path transform="translate(1473,280)" d="m0 0h1l1 5h3l-2 14-2 5-2 11v13l8 22 8 16 2 5-1 4-4-5-8-15-7-22h-2l-3 7h-2l-2 12-4 12h-1v-6l2-8-1-2 6-23 5-23z" fill="#143246"/>
<path transform="translate(948,833)" d="m0 0 1 4-6 50-1 13v45l1 8 1 20 1 11h-2l-1-9h-2l-3-25v-43l3-33 3-31 2-7z" fill="#081F2F"/>
<path transform="translate(1293,836)" d="m0 0 10 5 20 14 15 11v2l4 2 15 13 13 12 11 10 11 9 12 10 10 8 10 9 14 11 13 11 7 6 5 5 2 3-4-1-5-5-7-5-4-4-6-5-3-2v-2l-4-2-3-2v-2l-5-2-5-5-5-4-4-4-2-1v-2l-4-2-8-6-7-5-3-3-5-4-5-5-6-4-12-11-8-7-10-9-13-11-11-8-10-7-14-9z" fill="#081F30"/>
<path transform="translate(1013,740)" d="m0 0h2l7 16 5 7 2 1 2-2 2 3-11 10-8 7-16 16-9 11-3 3h-4l-1-18-2-21v-5l2 1 2 12v11l3 1 1 5 4-1 12-12 5-6 11-9 3-3-2-6-6-15z" fill="#071018"/>
<path transform="translate(925,64)" d="m0 0h4l-2 4-9 7-4 9-7 11-3 4-15-2v-4l7-11 6-8 10-6z" fill="#1E3852"/>
<path transform="translate(861,323)" d="m0 0 4 2 5 6 11 7 4 2 6 14v3l2 1-3 7-1 4-1 2h-7l-24-8-9-6-1-2 6 2 11 5 15 3h4l-4-2-7-12 1-7 8-2v-2l-5-1-11-8-3-5z" fill="#2A5A83"/>
<path transform="translate(1062,46)" d="m0 0h14v2l-11 4-25 11-3 2h-16l-7-1v-3l16-8 19-5z" fill="#28557F"/>
<path transform="translate(1409,634)" d="m0 0 5 1 2 1-1 6-7 1v2l-15 6-15 5-7-1-1-2-17 8h-2l1-5 4-5 36-9 14-7z" fill="#0D273B"/>
<path transform="translate(1523,128)" d="m0 0 11 2 15 5 16 7 2 2-1 6-2 1-13-2 15 5 7 1h11v3l-17-1-19-6-7-3-4-1v-3l5 1-8-5-5-4-5-5z" fill="#0C2538"/>
<path transform="translate(1520,124)" d="m0 0 12 1 15 4 12 5 20 11 5 6 1 5h-12l-10-2-14-5 4-1 12 2 1-6-15-7-13-5-15-4-1 2-3-3z" fill="#60E3F4"/>
<path transform="translate(1373,701)" d="m0 0 8 6 9 8-2 4-7 10-4-1-16-13-5-3v-3z" fill="#60E7F7"/>
<path transform="translate(809,206)" d="m0 0 17 4 13 5 2 1v-5h1v7l-4 1v2l-10 1-4-3v-2l-3-1 1-4-5-2-8-2-1 5-4 13-4 16v7l3 15 1 1 3 24h-3l-9-37 1-10 2-13 5-15z" fill="#1A3B58"/>
<path transform="translate(913,942)" d="m0 0 4 4 12 26 3 7v4l-4 1-1 9-3-1-7-15-5-14-1-5 1-15z" fill="#F49B8C"/>
<path transform="translate(984,240)" d="m0 0 6 4 12 9 12 6 18 5 8 4-5 5-2 1 1 6h-5l-11-8-16-12-13-11-5-7z"/>
<path transform="translate(1368,505)" d="m0 0h1v19l-1 1-16 3-9 1-1-6-4-7 26-10z" fill="#0A2233"/>
<path transform="translate(832,162)" d="m0 0h5l3 5 2 1-1 36-3-1-9-19-5-12-7-4 3-2 5-2 2 4z" fill="#0D2537"/>
<path transform="translate(851,185)" d="m0 0 6 2 9 11 3 4v5l-2 2-2 5-8 16h-2l1-5 4-10 2-7-3 1-3 11-3-1v-5l-3-5-1-6v-16z" fill="#010305"/>
<path transform="translate(963,266)" d="m0 0 6 1 9 3-4 1-3-1-11-1 1 4 4 2-1 5-4 3v7l-3 3 5-1 3-1 9 1v1l-15 3-7-1-11-13 1-5 12-9z" fill="#1B3248"/>
<path transform="translate(1498,151)" d="m0 0 10 5 2 2-1 9-6 18-1 2h-5l-5-3-1-8 6-23z" fill="#E5FDFE"/>
<path transform="translate(1148,659)" d="m0 0 1 3-4 5-4 11-10 45-4 20v9l9 8 4 6 2 1 3 8 8 13 1 3h-2l-9-15-7-10 1 4 4 7-1 3-8-11-10-17 1-10 12-52 5-20 6-10z" fill="#E6998D"/>
<path transform="translate(1296,390)" d="m0 0 6 1-4 4h-6l-20 11-14 10-13 9-4-1-1-1-1 2-2-5v-3l-3-1 1-5 3-3 3 3 8-1 9-3 11-5 12-5z" fill="#102C3F"/>
<path transform="translate(1091,661)" d="m0 0h2l-1 4-22 13-12 9-13 10-19 13-9 5h-2v2l-7 1v-2l-4-2 1-6 1-2 2-24 2 1 1 15 3 12-2 4 5-2 10-8 19-12 36-26z" fill="#60E7F7"/>
<path transform="translate(910,314)" d="m0 0h4l2 3 5 2-4 2-5 3h-2v2l-8 4-9 3h-5l-8-6-2-1 1-4 10-3h4v-3l8 1z" fill="#1C334A"/>
<path transform="translate(936,464)" d="m0 0h2v2l5 2 11 5 5 8 5 14 4 14 4 8 7 4h10l8-4h2l-2 4-8 5-7 1-7-1-7-6-7-16-6-17-5-9v-2l-5-2-8-7z" fill="#D7A39A"/>
<path transform="translate(939,287)" d="m0 0 6 3 8 7 5 1-2 4-25 8-6 2h-4l-1-4 5-1 9-4 4-2h4v-2l-15 4-4 1 3-5 11-11z" fill="#081F2F"/>
<path transform="translate(923,181)" d="m0 0 3 1 13 13 16 11 8 5 11 3v2l10 2 7 2 12 1h11l6-1-4-6-5-5 6 2 9 7 6 2 10-2-4 3-3 2-7 1h-37v-2l-8-1-18-5-11-6-18-14-10-9-3-3z" fill="#081F2F"/>
<path transform="translate(1358,902)" d="m0 0 4 1 4 6 5 17 4 19v7l-7-2-4-5-3-15-2-17z" fill="#081F2F"/>
<path transform="translate(1287,1056)" d="m0 0h2l12 26 8 10 4 4-2 5-6 11-2-1-7-20-9-30z" fill="#F49B8C"/>
<path transform="translate(1367,503)" d="m0 0h2l-1 3-23 8-6 3 5 8-1 4-7 1-8-9 1-4-11 4-21 7-6 1-3-1 12-6 16-5 19-4 31-9z" fill="#5EE2F3"/>
<path transform="translate(1179,701)" d="m0 0 6 2 6 7 3 7v6l-5 8-4-2-5-9-10-12 2-4z" fill="#60E7F7"/>
<path transform="translate(1020,144)" d="m0 0h2l3 3-1 4-6 4h-2l-1 4-5 4-7 8-2 1v2l34 1 3 3-2 1-45-2-9-1 4-3 9-3 6-5 14-16h2v-2h3z" fill="#081F2F"/>
<path transform="translate(1246,188)" d="m0 0 27 6 10 6 3 8v6l-4-2-1-6-5-4-2-1h-12l-8 5-4 5-3 3-1-2v-9l5-4-3-9h-2z" fill="#F19D8F"/>
<path transform="translate(1329,516)" d="m0 0 2 1-2 4 7 8h6l-3 3-9 3-4-1 6-2-4-6-3-3-8 1-13 4-15 7-25 13-12 8-13 10-5 4-1-3 11-10 15-10 19-10 10-6 17-7 22-7z" fill="#173650"/>
<path transform="translate(921,243)" d="m0 0 4 2 16 12 14 7-2 4-12 6-5-1-6-12-8-13z" fill="#1D334A"/>
<path transform="translate(910,898)" d="m0 0 3 1v5l-2 1-5 19-9 39-6 28h-1l1-15 4-28 4-26z" fill="#091016"/>
<path transform="translate(1139,842)" d="m0 0h2l6 12 5 5 5 6v2h2v2l-4-1-7-8v-3l-3-1-3-5-6 2-1 5h-2l-2 7h-2l-2 5-1 3h-2v3l-3 3-3 5-9 14-3 5-3 6h-2l-1 5h-2l-2 5-6 12h-2l-1 5-5 9h-2l-1 3-1-2 6-12h2v-4h2l1-5h2l1-5 4-7h2l1-5 4-5 4-7 6-10 7-10 4-7 6-10h2l1-6 1-2h2l1-7h2z" fill="#193651"/>
<path transform="translate(1185,488)" d="m0 0v3l-11 16-7 11-12 18-11 16-12 21-10 20-6 10-9 17-1-3 21-43 16-27 8-11 13-19 8-11 9-14z" fill="#60E7F7"/>
<path transform="translate(1027,250)" d="m0 0 5 1 16 6 24 6 8 4 3 6 1 25-3-3-1-3v-17h-4l-3-5-26-8-10-4-9-6z"/>
<path transform="translate(1063,731)" d="m0 0 5 3 4 8h-8l-10 8-8 8-11 9-7 6-9 7-25 25-7 9-4 4h-3l-2-4v-17h1l1 13 1 3 5-2 10-11 7-8 17-17 10-8 14-13 11-9 9-8z" fill="#60E7F7"/>
<path transform="translate(808,175)" d="m0 0 4 2 7 8 4 5 5 5v4l-10-3-13-6-3-1-11-1 5-5z" fill="#DFFCFE"/>
<path transform="translate(1540,688)" d="m0 0 2 2-1 18-7 28-6 23-6 22h-1l1-11 1-9 2-6h-2v2l-6 6 2-6 3-6 2-7 5-10 7-20 3-16z" fill="#2A5C83"/>
<path transform="translate(1454,1049)" d="m0 0 3 1-8 12-11 17-2 5-2 2-7 20-4 8-7-1 1-7 2-5h2l2-5h2l1-4 2-4h2l1-4h2l1-4 8-15z" fill="#0A2234"/>
<path transform="translate(832,156)" d="m0 0 7 2 10 9 9 11 8 13-1 3-11-13-8-9-2-1 2 7 4 3-2 1-3 11h-2l-1-25-3-1-2-5-6 2-4 7-2-3-1-5 2-1 1 4v-5z" fill="#152D42"/>
<path transform="translate(1042,266)" d="m0 0 17 6 17 3-2 5-7 10h-4v-2l-4-2-16-17z"/>
<path transform="translate(1266,48)" d="m0 0 1 3-7 9-7 7-14 8-9 4-5 1-16 1 10 7 16 14v2l-5-2-7-6-5-5-11-9-6-4v-2h-2v-2l10 1h18l11-3 10-5 12-11z" fill="#C0F7FC"/>
<path transform="translate(1526,141)" d="m0 0 8 1v1h-5v2h-2v2h-2l-1 7-3 5h-2v2h-2l1 3-5 8-7 14-4 1 3-10 4-14v-5l-11-7v-3l6 2 13 6z" fill="#1E3953"/>
<path transform="translate(1100,519)" d="m0 0 2 2 3 19 4 29 2 22v6h-3l-2-8-5-43-3-18v-8z" fill="#12293D"/>
<path transform="translate(1084,209)" d="m0 0 6 4 5 4 11 3v1h-6l1 1 11 2 14 1 2 2-9 6-12 1-8-4-1 3-6-13v-2h-2l-6-7z" fill="#1A3148"/>
<path transform="translate(855,315)" d="m0 0 5 3 5 5 8 5 9 8 1 3-5-2-9-6v-2l-3-1-4-4 3 6 11 8 1 3h-11v2l-4-2-5-8-3-13z" fill="#0D2537"/>
<path transform="translate(825,338)" d="m0 0 1 2h2l5 9 9 8 10 5 8 1 12 4 13 5v7l-5 2-4-2-1-6-10-3-13-4-12-6-9-8-4-5-2-1z" fill="#295780"/>
<path transform="translate(833,154)" d="m0 0h6l8 6 12 14 7 12 7 19-1 3-7-10-11-13-6-5-4-4v-5l4 2 11 12 6 8-2-5-9-14-12-13-4-3-4-1z" fill="#B9F5FB"/>
<path transform="translate(1280,1014)" d="m0 0 4 1 5 13v4l4 2-4 7-4 5-2-2-4-11-2 2-3-10v-7h3z" fill="#081F2E"/>
<path transform="translate(1042,181)" d="m0 0 9 1 5 2h28l4 3-7 1h-9v4l7 1 1 2 20 1h18v1l-7 1h-27l-13-3 7 4-4 1-9-6-11-6-12-6z" fill="#071E2E"/>
<path transform="translate(1499,242)" d="m0 0h4v7l6 11 7 10 2 4-6-1-4-1-7 3-2 5 5 5 8 6-3 1-7-4-7-9 1-6 5-5 6-2-7-11-4-7 1-5z" fill="#0A2234"/>
<path transform="translate(793,188)" d="m0 0h9l12 5 11 6 8 7v2l-5-1-6-2-10-2-13-7-5-5z" fill="#27537C"/>
<path transform="translate(983,80)" d="m0 0h3l-1 6 9 2 15 5 14 7-3 1-16-6-15-5h-6l-12 19-4-1-1-3 7-14 7-7z" fill="#D9FBFD"/>
<path transform="translate(1244,221)" d="m0 0 4 1 1 1 1 13v22l-2 2-4-8-6-18 1-7z" fill="#E89E92"/>
<path transform="translate(1113,286)" d="m0 0 4 2 4 4 1 8 8 5-2 4-8 5-7 1-1-4z" fill="#000102"/>
<path transform="translate(1365,892)" d="m0 0 4 2 12 11 11 9 12 10 10 8 10 9 14 11 13 11 7 6 5 5 2 3-4-1-5-5-7-5-4-4-6-5-3-2v-2l-4-2-3-2v-2l-5-2-5-5-5-4-4-4-2-1v-2l-4-2-8-6-7-5-3-3-5-4-16-16z" fill="#244666"/>
<path transform="translate(1171,685)" d="m0 0h13l6 4 8 9 6 13 1 7v8h-2l-3-5-4-11-3-5-3-6v-2l-3-1-3-5-8-4-5-1z" fill="#173148"/>
<path transform="translate(1262,844)" d="m0 0h2l-2 11-4 19-2 17-1 22-2-1-1-10v-29l3-15 4-10z" fill="#081F2F"/>
<path transform="translate(1074,142)" d="m0 0h9l8 2-2 4-21 11-5 2-9 2h-12l-19-3-7-2v-1l17 1 8 1h16l13-5 8-4 1-3-8-1-1-2h4z" fill="#081F2F"/>
<path transform="translate(922,54)" d="m0 0 4 2 9 2v2l-4 2-2 4v-2l-17 5-10 6-5 7-1-2-5 3h-3l15-14 9-8z" fill="#D7FAFD"/>
<path transform="translate(1123,242)" d="m0 0 5 1 12 8 5 6-6 1-3 5-11-7-1-1h-6l3-10z"/>
<path transform="translate(1015,910)" d="m0 0 1 4-9 20-10 25-5 18-5 27-1 2h-2l1-9 6-28 5-19 11-26 6-13z" fill="#11283B"/>
<path transform="translate(1288,525)" d="m0 0h5l-4 3-18 8-15 8-13 9-9 10-2-1 2-5 8-10 10-7 14-7 11-5z" fill="#1F3B56"/>
<path transform="translate(1114,605)" d="m0 0 1 4h-2l-1 7-3 5h-2l-2 9v39l-3 5h-3l1-46 4-9 2-2 1 2z" fill="#2A5B82"/>
<path transform="translate(1390,834)" d="m0 0h2l5 5 6 7 2 1 1 8-3 1 1 14v11l-2-2-10-36z" fill="#132A3E"/>
<path transform="translate(994,612)" d="m0 0v3l-4 8-13 21-8 13-2-1 1-3h2l-2-5 7-13 1-4 7-9 7-8z" fill="#74E7F5"/>
<path transform="translate(955,308)" d="m0 0h2l2 11-7 1-2 4-6 5h-4l-2-6v-7l5-4 6-1 2 1z" fill="#2E5B82"/>
<path transform="translate(944,686)" d="m0 0 1 2-6 10-4 5-8 7-9 10h-2l-2-8 1-2h2l1-3 14-11z" fill="#D0F9FD"/>
<path transform="translate(1388,974)" d="m0 0 5 2 7 8 2 4 4 2 8 7 4 6 14 14 4 5 5 4 20 20-5-1-8-7-9-9-7-8-12-12-5-6-8-7-17-17-2-1z" fill="#60E7F7"/>
<path transform="translate(1110,671)" d="m0 0 11 2 7 3-3 1-15-3-3 7-13 11-9 7-11 9v-3l12-13 17-17z" fill="#D4FAFD"/>
<path transform="translate(1168,452)" d="m0 0 5 1v5l-2 4 3 10 2 8v5l-4-1-5-5-4-9 1-5 4-3-6-1 1-5z" fill="#60E7F7"/>
<path transform="translate(1287,747)" d="m0 0 5 2 8 8 9 6v2l4 2 11 7 9 5 5 5 11 8 10 9 14 11 4 5-4-2-16-13-11-9-9-6v-2l-6-2-8-6-11-7-5-3-5-5-4-2-7-8-4-3z" fill="#27527A"/>
<path transform="translate(962,917)" d="m0 0h1l1 50 1 23-3-1-2-19-1-1v-30l2-21z" fill="#1C3145"/>
<path transform="translate(1013,740)" d="m0 0h2l7 16 5 7 2 1 2-2 2 3-11 10-7 5-2-2-21 21-2-1 13-13 5-6 11-9 3-3-2-6-6-15z" fill="#112B41"/>
<path transform="translate(1032,640)" d="m0 0h3l-1 5-8 14-3 3-5-1-4-4 1-6 6-5z" fill="#DDFBFD"/>
<path transform="translate(1492,204)" d="m0 0 6 5 3 3 4 3v2l-7-1-1-3h-2v17l-4 10-7 1 4-17z" fill="#132F42"/>
<path transform="translate(938,904)" d="m0 0h1l1 9 1 34 4 33v4h-2l-1-9h-2l-3-25v-43z" fill="#203245"/>
<path transform="translate(789,209)" d="m0 0 7 2 3 10-2 10v17l-2 1-4-15-2-12z" fill="#FBFDFD"/>
<path transform="translate(925,64)" d="m0 0h4l-2 4-9 7-4 9-3 5-1-3-3-1-1-4 1-3h-2l1-4-2-1 8-5z" fill="#28557F"/>
<path transform="translate(1292,394)" d="m0 0h5l-5 4-21 13-14 10-12 9-3-1-3-6 1-3 2 4 5-1 19-14 13-8z" fill="#60E7F7"/>
<path transform="translate(1081,30)" d="m0 0h46l8 2 6 4-2 1-5-3-5-1h-16l-5 3-1 2-10-1-14-4-6-1z" fill="#F5FCFC"/>
<path transform="translate(834,389)" d="m0 0 3 1 4-1 7 4 1 1v5l-2 2v8l8 13v2l-5-2-10-17-5-10zm7 11 2 3v-3zm4 2 1 2z" fill="#2B465F"/>
<path transform="translate(872,326)" d="m0 0 4 1 16 9 4 4v7l-3 10h-2l-5-13-6-9-8-7z" fill="#F09C8D"/>
<path transform="translate(835,163)" d="m0 0 4 2 3 3-1 36-3-1-2-10-2-25z" fill="#000101"/>
<path transform="translate(1007,264)" d="m0 0 4 2 15 11 3 2 5 1 1-2 5 5 15 8-3 1-16-8-8 2-7-3-6-6v-2l-3-1v-4h-2v-3h-2z" fill="#071E2E"/>
<path transform="translate(1077,948)" d="m0 0 1 4-8 17-6 11-3 7-15 39-4 13-2 6h-2l1-7 11-31 5-11 7-19 9-19h2l2-6z" fill="#193650"/>
<path transform="translate(1088,1060)" d="m0 0 3 1-21 9-17 4-3 9-9 10-15 15-4 5-5 1 2-4 11-11h2l1-3 8-7 8-9 2-8 6-2 16-4z" fill="#F49B8C"/>
<path transform="translate(977,768)" d="m0 0 2 4 1 1 2 24v15l3 1-4 1-2-4v6h-2l-1-4v-43z" fill="#0F283B"/>
<path transform="translate(1342,564)" d="m0 0 45 1 2 2-15 2-4 1v3l-8 2-18 1-2-2 26-6 5-1h-10l-16 1-2-1v-2z" fill="#0D283C"/>
<path transform="translate(1084,290)" d="m0 0h1l1 7 1 20h1l1 15v15l-1 5-3-3v-14l-2-9v-7h-3v-5l3 1v-11l-2-9 2 2z" fill="#081F2F"/>
<path transform="translate(918,738)" d="m0 0 1 4-2 31-2 7-3-1-1-4v-13l3-18 3-5z" fill="#081F30"/>
<path transform="translate(1483,242)" d="m0 0 6 2-1 5-5 17-3 6-2 1-1 3h2v3l-5 1 1-8 7-27z" fill="#12293C"/>
<path transform="translate(1110,743)" d="m0 0h8l4 5-1 3h-3l-1 7-1 1h-5l-7-6 1-5z" fill="#0B2436"/>
<path transform="translate(991,680)" d="m0 0h1l-1 10-4 10-8 15-3 3h-2v-10l8-11z" fill="#60E7F7"/>
<path transform="translate(975,633)" d="m0 0 1 2-8 14-6 11-10 21h-3l-2 3-3-3 9-14 11-18 10-15z" fill="#1C4459"/>
<path transform="translate(986,116)" d="m0 0 5 1 20 9 19 10 12 6v1h-9l-6-1-1-3-22-12-16-8z" fill="#081F2F"/>
<path transform="translate(932,745)" d="m0 0h1l-1 15-3 16-6 11-3 6h-1v-7l7-12 1-7-4-5v-6l2-3 5-1z" fill="#EA9F92"/>
<path transform="translate(1204,590)" d="m0 0 3 1-15 15-18 22-7 9-11 14-2 4h-2l2-5 10-14 11-14 6-8 14-15z" fill="#C2F6FC"/>
<path transform="translate(1452,365)" d="m0 0 1 4 3-1-1 9-4 15-3 14-2 4-2-1 1-7h-1l1-10z" fill="#102637"/>
<path transform="translate(1055,259)" d="m0 0h8l14 4 5 2-1-5 7 6 1 6 1 18 2-10h1v10l-2 12-2-4-1-3-1-20h-2l-1 13h-1l-1-15-3-6-10-4-14-3z" fill="#081F2F"/>
<path transform="translate(1442,515)" d="m0 0h8l8 3 4 4-7-1-8-2 2 5 10 8 3 4 3 1 1 2 3 1 5 5 2 1v3l2 1-2 3-3-3v-2l-4-2-2-4-5-2-7-8-11-9-2-4-2-1v-2z" fill="#204463"/>
<path transform="translate(1114,269)" d="m0 0 6 2 10 4 7 3-1 2-7 3h-7l-9-5-1-3z"/>
<path transform="translate(1228,804)" d="m0 0 9 1 15 6 25 14 12 8v2l-6-2-21-12-10-6-16-7h-6l-2-1z" fill="#081F2F"/>
<path transform="translate(919,801)" d="m0 0h3l6 15v6h-1l-3-12h-2l3 21 1 2-3 12h-1l1-12-5-10-3-12-3 1 1-4 4 1v3h3z" fill="#122C42"/>
<path transform="translate(1128,1070)" d="m0 0 4 2 20 15 15 12 11 9 5 4v2l-5-1-10-9-12-9-11-9-14-12-3-2z" fill="#64E7F7"/>
<path transform="translate(1032,296)" d="m0 0 5 2 15 10 13 11 6 7v2l4 1-3-18 1-3 3 5 1 5v12l-4 2-12-13-11-9-13-8-6-3z" fill="#071E2E"/>
<path transform="translate(1520,776)" d="m0 0 3 2-1 19-3 31-3 9h-1l1-20 3-35z" fill="#081F2F"/>
<path transform="translate(1428,866)" d="m0 0 4 2 9 10v2h2v2h2v2l4 2 8 7v2h18l9-1h14l-4 2-29 3-11-3-14-14-7-9-5-6z" fill="#336C8D"/>
<path transform="translate(1133,157)" d="m0 0 4 2-1 2-5 2-8 7-14 9-21 7h-8l4-2 15-4 5-1 1-3 11-6 4-3h2v-2l-4-1 9-4z" fill="#061723"/>
<path transform="translate(1516,897)" d="m0 0h1v25l-1 19-2 11-2 1v-21l2-30z" fill="#182F44"/>
<path transform="translate(939,287)" d="m0 0 6 3 4 5v2l-15 2v2l-8 3-3-1 7-8 5-6z" fill="#193045"/>
<path transform="translate(1011,209)" d="m0 0 6 2 9 7 6 2 10-2-4 3-3 2-7 1h-37v-1l5-1v-1h18l6-1-4-6z" fill="#081F2F"/>
<path transform="translate(1e3 169)" d="m0 0m-1 1 1 4 34 1 3 3-2 1-45-2-9-1 4-3 5-1 2 1z" fill="#081F2F"/>
<path transform="translate(1123,753)" d="m0 0 4 2 5 4 1-2 7 9 2 1 3 8 8 13 1 3h-2l-9-15-7-10 1 4 4 7-1 3-8-11-9-15z" fill="#3C404F"/>
<path transform="translate(1542,136)" d="m0 0 7 1 14 7 3 3-1 2h-7l-11-3-7-5z" fill="#000101"/>
<path transform="translate(1370,652)" d="m0 0 2 1-1 2 4 1-35 16-4-1 10-7 5-5v2z" fill="#0B2335"/>
<path transform="translate(1548,902)" d="m0 0h1v18l-1 23-3 12h-2v2h-2v-11l2-3 3-24 1-16z" fill="#244E74"/>
<path transform="translate(1008,682)" d="m0 0 2 1 1 15 3 12-2 4h2l1 3-7 1v-2l-4-2 1-6 1-2z" fill="#18334C"/>
<path transform="translate(1450,1071)" d="m0 0 3 1 8 20 5 16 1 6-4 1-1-5-10-29-2-5z" fill="#60E7F7"/>
<path transform="translate(914,810)" d="m0 0 2 1 4 15 4 7-2 12h-2l-5-18-5-11z" fill="#61E7F7"/>
<path transform="translate(1156,455)" d="m0 0 2 1-10 7-10 9-7 4-5 5-5 4 1-4 6-8h2l1-3 3-1 4-5 6-2 2-4 3-2z" fill="#193046"/>
<path transform="translate(1443,400)" d="m0 0 3 1-1 8 1 3-1 3h-2l-2 10-5 20h-3l1-12 8-29z" fill="#132B3F"/>
<path transform="translate(988,727)" d="m0 0 2 1-1 5-11 16h-4l-3-4 1-5 6-4 6-6 3-1z" fill="#081F2F"/>
<path transform="translate(1471,328)" d="m0 0 2 3 8 21 9 19-1 4-4-5-8-15-7-22z" fill="#11283B"/>
<path transform="translate(1151,244)" d="m0 0 9 2 6 3v2l5 2 10 8 7 7v2l-4-1-16-12-14-9v-2l-3-1z" fill="#273547"/>
<path transform="translate(1535,846)" d="m0 0 2 1 4 16 2 16v7l-4-2-3-16-2-21z" fill="#122C42"/>
<path transform="translate(1381,645)" d="m0 0h5l-1 2-13 5-19 9h-2l1-5 4-5z" fill="#E4FAFC"/>
<path transform="translate(832,156)" d="m0 0 6 1-2 1 9 11 1 2h-2l2 7 4 3-2 1-3 11h-2l-1-25-3-1-2-5-6 2-4 7-2-3-1-5 2-1 1 4v-5z" fill="#243E59"/>
<path transform="translate(1501,979)" d="m0 0h19l8 3 1 3-5-1-2-1h-26l-15 1-21 4 1-2 23-5z" fill="#4CB5CE"/>
<path transform="translate(842,170)" d="m0 0h1v23h2l1-7 2-4-1 37-3-1-1-2-1-9z" fill="#1C334A"/>
<path transform="translate(1268,746)" d="m0 0 5 1 9 8 2 1v2l7 2 2 4 4 2 11 8 6 3 10 9h-3l-11-7-1-2-9-5-7-5v-2l-4-1-4-4-15-10z" fill="#265077"/>
<path transform="translate(1061,558)" d="m0 0h2l3 10 3 12v12l-8 16h-2l1-5 5-12-1-13-3-16-1-3z" fill="#E8A498"/>
<path transform="translate(998,147)" d="m0 0h9l-6 9-10 10-14 7-12 3h-6l4-2 19-7 10-6 5-6z" fill="#BCF5FB"/>
<path transform="translate(1025,771)" d="m0 0m-1 1m-1 1m-1 1m-2 1h2l-2 4-26 26-7 9-4 4h-3l-2-4v-17h1l1 13 1 3 5-2 10-11 7-8z" fill="#60E7F7"/>
<path transform="translate(1119,323)" d="m0 0h7l3 3v6l-4 5h-7l-2-3 1-9z" fill="#000203"/>
<path transform="translate(1165,337)" d="m0 0 4 1 4 5 2 10v15l-1 5h-1l-3-18-4-9-3-4 1-2z" fill="#081F2F"/>
<path transform="translate(941,875)" d="m0 0h1v70l1 8v11h-1l-2-17-1-36-1-7v-10l1-11z" fill="#0E2333"/>
<path transform="translate(1117,254)" d="m0 0h7l11 8 3-2v6l-2 1-14-6h-4v8l4 2-2 1-6-3 2-12z" fill="#0B2233"/>
<path transform="translate(974,833)" d="m0 0h1v8l-7 34-3 15h-1v-9l4-26 2-14z" fill="#27537C"/>
<path transform="translate(809,317)" d="m0 0h1v19l-3 8-3 5-4 6h-3l1-5 6-13 4-18z" fill="#263F54"/>
<path transform="translate(831,226)" d="m0 0 4 3 3 9 1 5-1 13-5 14-2 3h-2l-5-5-8-4v-2l5 1 10 5 2-5 2-6v-19l-3-9h-2l-5 5h-3l7-7z" fill="#081F2F"/>
<path transform="translate(844,171)" d="m0 0 4 2 11 12 6 8 3-2 5 14-1 3-7-10-11-13-6-5-4-4z" fill="#BEF6FB"/>
<path transform="translate(876,339)" d="m0 0 5 1 1 3-9 1v7l2 9-7-1-9-6-6-7 4 2 11 8 4 2-2-6-5-7 1-4 10-1z" fill="#1F364E"/>
<path transform="translate(815,244)" d="m0 0h1v16l-3 20h-2l-2-8v-7l4-17z" fill="#F49B8C"/>
<path transform="translate(1084,81)" d="m0 0 3 1-4 8-3 4v3l-18 9-3 3h-3v-6l5-4 2 1-4 3 5-1 2-2h4l2-4 8-9z" fill="#28557F"/>
<path transform="translate(1186,345)" d="m0 0 3 3 4 13 2 12-5-5-3-5v-2h-3l-3 4 2-9 1-1z" fill="#0C2335"/>
<path transform="translate(1362,1088)" d="m0 0 2 1-8 8-11 9-5 4h-2l-1-5 8-7 14-9z" fill="#081F2F"/>
<path transform="translate(1073,111)" d="m0 0 9 2 16 8 7 6 1 8-10 2 2-4 3-2-4-6-6-4-18-8z" fill="#081F30"/>
<path transform="translate(1115,766)" d="m0 0v3l-7 9-13 14-5 7-3-1 2-4 11-15 12-11z" fill="#081F2F"/>
<path transform="translate(844,83)" d="m0 0 3 9 1 2 2-1 3 4v4l7 1 5 1-1 3-8 4-4-1 4-4h2v-2l-5 1-8-7-4-5 1-5z" fill="#6EDEEE"/>
<path transform="translate(1276,566)" d="m0 0h14v5l1 2-14 5-3-1 1-5-1-4z" fill="#27547D"/>
<path transform="translate(1208,210)" d="m0 0 4 4 4 7 2 8-5-1-7-5-7-3v-1h5v-3h2v-2h2z" fill="#081F2F"/>
<path transform="translate(796,191)" d="m0 0 9 1 10 4 6 4v3h-9l-13-7-3-3z" fill="#1D354D"/>
<path transform="translate(847,355)" d="m0 0 6 2 11 5 19 4 7-1-1 4-1 2h-7l-24-8-9-6z" fill="#C5EBEE"/>
<path transform="translate(847,240)" d="m0 0 2 1 5 25 6 22-1 3-7-17-5-18z" fill="#11202E"/>
<path transform="translate(1123,194)" d="m0 0h6l-1 4h-2v2l21 1 14-1-1 3-9 7-4 1 5-5 3-1v-2h-36l2-4 4-3h-6z" fill="#081F2F"/>
<path transform="translate(1469,323)" d="m0 0 2 3v4h-2l-2 4-2 6h-2l-2 12-4 12h-1v-6l2-8-1-2 5-18 2 2 4-8z" fill="#3E6479"/>
<path transform="translate(1443,415)" d="m0 0h2l-1 8-5 18-2 8h-2l-1 8-2 1v-5l-3 2 1-7 3-12h1v8l2-2 4-17z" fill="#152E41"/>
<path transform="translate(1253,423)" d="m0 0 2 1-11 8-1 3h-2l-2 4-10 10-7 6-6 4h-3l23-23 6-5v-2l4-1z" fill="#183A56"/>
<path transform="translate(1539,141)" d="m0 0 5 2 5 3 16 3 1-5 1 4-3 3-13-2 15 5 7 1h11v3l-17-1-19-6-7-3-4-1v-3l5 1-4-3z" fill="#1B3B57"/>
<path transform="translate(1501,268)" d="m0 0h11l4 5-8-1-7 3-2 5 5 5 8 6-3 1-7-4-7-9 1-6z" fill="#1F3D54"/>
<path transform="translate(1011,686)" d="m0 0h2l2 7 2 9 2 3 1 2-2 5-2 2h-4l1-6-3-10v-10z" fill="#010304"/>
<path transform="translate(939,45)" d="m0 0 7 1 1 3-16 8-8-1 3-5 9-4z" fill="#F8FCFD"/>
<path transform="translate(1324,515)" d="m0 0 3 1v2l-30 10-6 1-3-1 12-6 16-5z" fill="#B7F5FB"/>
<path transform="translate(1409,634)" d="m0 0 5 1 2 1-1 5-25 4v-2l16-8z" fill="#CCF8FC"/>
<path transform="translate(1239,230)" d="m0 0 5 4 5 9v10l-1 2-3-1-7-20z" fill="#172939"/>
<path transform="translate(1339,871)" d="m0 0 5 1 11 9 11 10 2 4 6 7-4-2-12-11-8-7-10-9z" fill="#081F2F"/>
<path transform="translate(1326,581)" d="m0 0 2 1-1 1 4 2-9 3-21 10-7 4h-2v2h-3v-3l14-8 19-10z" fill="#143149"/>
<path transform="translate(855,315)" d="m0 0 5 3 5 5 8 5 9 8 1 3-5-2-9-6v-2l-3-1-4-4 1 5-4-4v-4h-3v5h-1l-1-10z" fill="#273F58"/>
<path transform="translate(951,307)" d="m0 0h7l-1 3v-2l-6 5-5-1-7 4-1 4-7 1-1 3h-7v-1l5-1v-5l16-8z" fill="#152B3F"/>
<path transform="translate(1262,200)" d="m0 0h12l6 4 3 5-1 2-7-7-8-2-9 3-3 5-5 6-2 6-3-2h2l-1-8 2 1 4-6 6-5z" fill="#274051"/>
<path transform="translate(1390,834)" d="m0 0h2l5 5 6 7 2 1 1 8-3 1-1 7h-1l-5-18-2-5-2 3z" fill="#081D2C"/>
<path transform="translate(993,72)" d="m0 0h43l17 4v1l-25-1-16-2-19-1z" fill="#60E7F7"/>
<path transform="translate(1121,1066)" d="m0 0 2 1-12 8-11 9-16 13-5 5h-2l-2 4-4 1 2-4 11-9 10-9 14-11 9-6z" fill="#E1A89E"/>
<path transform="translate(1269,542)" d="m0 0 1 3-14 8-17 13-5 4-1-3 11-10 15-10z" fill="#16344D"/>
<path transform="translate(1492,301)" d="m0 0h2v2l4 1 2 6h2v3l-10 1-4 2-2 7-2-1v-5l6-7z" fill="#0C2436"/>
<path transform="translate(1023,292)" d="m0 0 6 1 1 5 2 6 2 14v13l-2-1-2-18-6-16z" fill="#081F2F"/>
<path transform="translate(1252,134)" d="m0 0 4 2 10 8 3 3-1 6-4-2-12-11-1-5z" fill="#9DC7CA"/>
<path transform="translate(1505,882)" d="m0 0 1 3-5 9h-2v2l-10 2-9 1h-14v-1l28-3h-10l-9 1h-16v-1l37-3h4l2-5z" fill="#1D3E5C"/>
<path transform="translate(827,336)" d="m0 0 4 5 7 7 4 5 5 4 8 4v2l-6-1-11-7-7-7-4-8z" fill="#283A4F"/>
<path transform="translate(1454,1049)" d="m0 0 3 1-8 12-12 19-3 2 1-5 9-16z" fill="#60E7F7"/>
<path transform="translate(1149,816)" d="m0 0 5 2 13 8 7 4v2l-5 1-7-3-10-9-3-3z" fill="#F49F90"/>
<path transform="translate(1492,204)" d="m0 0 6 5 3 3 4 3v2l-7-1-1-3h-2v14l-3 3-1-2v-18z" fill="#497F93"/>
<path transform="translate(841,211)" d="m0 0h1v7l-4 1v2l-10 1-5-5v-3h9l3-1 6 3z" fill="#1E3852"/>
<path transform="translate(1063,44)" d="m0 0h21l9 3v2h-16l-9 3-3-1 7-3h4v-2l-20 1 3-2z" fill="#60E7F7"/>
<path transform="translate(1568,1082)" d="m0 0 4 2 3 8 2 13v8l-3-1-6-27z" fill="#28557F"/>
<path transform="translate(845,363)" d="m0 0 9 3 9 2v1h-6v8l-4 4h-2v-10l-3-1z" fill="#363D4D"/>
<path transform="translate(1510,142)" d="m0 0h7v9l-2 2-9-1-1-7z" fill="#FBFCFD"/>
<path transform="translate(1088,797)" d="m0 0v3l-5 8h-2l-2 4-6 10-3 2-2 4h-2l-2 4-5 6-1-3 1-2h2l4-8 2-1 1-3 5-5 4-5 4-7 5-5z" fill="#21415F"/>
<path transform="translate(1526,141)" d="m0 0 8 1v1h-5v2h-2v2h-2l-2 6-3 5-9-1-3-2h-3l-7-4v-3l6 2 13 6z" fill="#265077"/>
<path transform="translate(1434,571)" d="m0 0 6 1 15 8 9 9v3l-4-2-10-8-15-9z" fill="#142D43"/>
<path transform="translate(798,253)" d="m0 0 2 1 2 7 2 4 3 24h-3l-6-25z" fill="#3A6E85"/>
<path transform="translate(1210,963)" d="m0 0 6 2 13 8 14 7 12 4 2 2-9-1-13-6-16-8-9-5z" fill="#60E7F7"/>
<path transform="translate(938,934)" d="m0 0 2 4 5 42v4h-2l-3-16-2-19z" fill="#F49B8C"/>
<path transform="translate(1469,309)" d="m0 0 1 2h2l-1 15-2-2-5 9h-1v-8l4-14z" fill="#0F2A3C"/>
<path transform="translate(1155,291)" d="m0 0h4l-1 5-8 14-1-2h-4-3l9-11 2-3h2z" fill="#343C4C"/>
<path transform="translate(1098,680)" d="m0 0v3l-4 6 2 1-22 18v-3l12-13z" fill="#60E7F7"/>
<path transform="translate(859,208)" d="m0 0h3l-2 10-5 12h2v2l-3 1-2-4-2 7h-2l-1 4-1-3 3-5 2-8 3-1 4-14z" fill="#2C3A4C"/>
<path transform="translate(1428,946)" d="m0 0 5 2 17 14 8 7 5 5 2 3-4-1-5-5-7-5-4-4-6-5-3-2v-2l-4-2-4-4z" fill="#22476A"/>
<path transform="translate(1042,659)" d="m0 0h9l3 1v2l-8 1-3 3-12 4-1-2 5-6z" fill="#17354F"/>
<path transform="translate(1213,349)" d="m0 0 3 3 1 4 5 5 6 5-3 2 9 9-1 2-6-3h-3l-2-7-4-7-5-9z" fill="#264255"/>
<path transform="translate(1277,1009)" d="m0 0 1 2-3 7v7l8 24-4 1-3-8-4-19 1-7z" fill="#F49B8C"/>
<path transform="translate(1388,974)" d="m0 0 5 2 7 8 2 4 4 2 8 7 1 3-2 2-23-23-2-1z" fill="#3B88A8"/>
<path transform="translate(1492,819)" d="m0 0 1 4-4 11-33 1v-3h32v-7l1-2h2z" fill="#357799"/>
<path transform="translate(1199,740)" d="m0 0h1l-1 12-4 12-7 11-10 11h-2v-2l9-9 6-11 4-9z" fill="#12293D"/>
<path transform="translate(1148,145)" d="m0 0h2l-2 5-5 6 4 2 1 2h-5l8 8-5-2-12-8 3-1 2-4 8-7z" fill="#071B2A"/>
<path transform="translate(942,682)" d="m0 0 5 1-1 4-4 2-14 11-2 1 1-5 10-10z" fill="#336075"/>
<path transform="translate(1168,452)" d="m0 0 5 1v5l-2 4 1 6-2-2-6 1 1 5-2-2 1-5 4-3-6-1 1-5z" fill="#183752"/>
<path transform="translate(955,297)" d="m0 0 3 1-2 4-19 6h-7l5-4 10-4 9-2z" fill="#192F45"/>
<path transform="translate(970,445)" d="m0 0h9l-2 2-12 1-12 2-7 2h-3v2h-6l1-4 19-4z" fill="#142B3F"/>
<path transform="translate(1336,584)" d="m0 0h4v2l5 1 4 2 4 7v2l-5-2-16-10z" fill="#1E3851"/>
<path transform="translate(1199,74)" d="m0 0 4 2 5 3 5 5 10 7 7 7 5 4v2l-5-2-7-6-5-5-11-9-6-4v-2h-2z" fill="#64E3F3"/>
<path transform="translate(1529,1027)" d="m0 0 4 1 5 7h-3l-3-3-3-1h-13l-21 3h-9l3-2 26-3 3-1z" fill="#347896"/>
<path transform="translate(1520,865)" d="m0 0h1v11l-3 25-3-3 1-17 1-8z" fill="#152C41"/>
<path transform="translate(1053,569)" d="m0 0 1 2-14 10-16 9-2-1 10-8 12-8z" fill="#60E5F5"/>
<path transform="translate(1342,564)" d="m0 0 45 1 2 2-15 2h-6v-1l5-1h-10l-16 1-2-1v-2z" fill="#224362"/>
<path transform="translate(1427,465)" d="m0 0h1l-1 9-1 1-2 13-2 9-3 2v-9l6-23z" fill="#0B1721"/>
<path transform="translate(958,226)" d="m0 0 9 5 11 9 5 5v4l-3-1-5-5-11-10-6-5z" fill="#081F2F"/>
<path transform="translate(1139,842)" d="m0 0h2l6 12 5 5 5 6v2h2v2l-4-1-7-8v-3l-3-1-3-5-5 2 2-4h2l-1-2h-3v-3h2z" fill="#17334C"/>
<path transform="translate(899,730)" d="m0 0 1 4-6 16-5 18h-1v-7l6-21v-5zm-6 6m-2 1 2 1-5 4 2-4z" fill="#091E2D"/>
<path transform="translate(961,957)" d="m0 0 2 1 2 24v8l-3-1-2-19v-9z" fill="#F49B8C"/>
<path transform="translate(1057,836)" d="m0 0 3 1v2l-2 1-4 8-11 17-3 5h-3l2-5 13-20z" fill="#10273A"/>
<path transform="translate(1013,674)" d="m0 0 3 2 4 17 1 9h-3l-2-6-3-16z" fill="#28557F"/>
<path transform="translate(1536,1042)" d="m0 0 6 4 10 15 1 5 2 4-1 3v-2h-2l-9-17-7-10z" fill="#0B2234"/>
<path transform="translate(929 1e3)" d="m0 0 4 4 5 12v10l-3 3-4-20z" fill="#F49B8C"/>
<path transform="translate(1103,556)" d="m0 0h1l3 24v5h2l-1-3v-13h1l2 22v6h-3l-2-8-3-26z" fill="#081F2F"/>
<path transform="translate(1084,209)" d="m0 0 6 4 5 4 11 3v1h-6l-3 2 6 8-4-1-1 3-6-13v-2h-2l-6-7z" fill="#071E2E"/>
<path transform="translate(1081,681)" d="m0 0 2 1-3 4h-2v2l-4 4h-2l-2 4-6 4-4-1 4-4h2l2-4 8-7z" fill="#081F2F"/>
<path transform="translate(840,389)" d="m0 0 5 2 4 3v5l-2 2v7l-2-1-2-2v-5l-3-1h6l-1-5v3l-4 1-4-5v-3zm5 13 1 2z" fill="#62E5F5"/>
<path transform="translate(1198,1007)" d="m0 0 9 6 11 8 18 10-3 1-19-10-12-8v-2l-4-2z" fill="#60E7F7"/>
<path transform="translate(1091,566)" d="m0 0h2l-1 27h-2l-3-17v-6z" fill="#386275"/>
<path transform="translate(1034,488)" d="m0 0 3 1-7 6-5 6-16 11-2 1 1-4 8-6 8-7z" fill="#439BB9"/>
<path transform="translate(1097,132)" d="m0 0 2 1-7 5-10 3-1 1-15 2h-14v-1l21-3 16-4z" fill="#28557F"/>
<path transform="translate(1377,817)" d="m0 0 4 2 9 7 8 7 9 7 6 8-4-2-14-12-8-7-10-9z" fill="#6CE9F7"/>
<path transform="translate(1256,431)" d="m0 0h2l1 2-1 15h-3l-5-10z" fill="#081F2F"/>
<path transform="translate(1515,765)" d="m0 0 1 2-13 22-6 10-4 8-1-4 7-14 10-15z" fill="#60E7F7"/>
<path transform="translate(1017,679)" d="m0 0 2 3 3 15 1 6 4 2-6 5h-2l-1-4-3-6-1-12 2 4 2 9 2 1-2-15z" fill="#0E2537"/>
<path transform="translate(1204,590)" d="m0 0 3 1-15 15-9 11-5 2 2-4 15-16z" fill="#B9F5FB"/>
<path transform="translate(1452,365)" d="m0 0 1 4 3-1-1 9-4 15-3 14-2 4-2-1 9-36-2-1z" fill="#2B5C80"/>
<path transform="translate(974,163)" d="m0 0 10 2v2l-12 5h-8l1-3 6-1-3-3z" fill="#0C2537"/>
<path transform="translate(1335,520)" d="m0 0h6l3 5-1 4-7 1-4-4 1-5z" fill="#C3F7FC"/>
<path transform="translate(1436,793)" d="m0 0h2l4 9 2 6h2l3 10 5 13-3-1-7-17-4-8-4-9z" fill="#3B8BA5"/>
<path transform="translate(1249,415)" d="m0 0 6 1-1 3-9 6-4-1-1-7z" fill="#071017"/>
<path transform="translate(913,270)" d="m0 0 5 2 13 7v3l-9 7-1-4h2l-4-9-6-5z" fill="#1A3148"/>
<path transform="translate(993,963)" d="m0 0h1l-1 10-4 19-2 12-1 2h-2l1-9 6-28z" fill="#2F4159"/>
<path transform="translate(977,774)" d="m0 0 2 3 2 36-2-3v6h-2z" fill="#27537C"/>
<path transform="translate(1200,427)" d="m0 0h3l1 3 1 20-1 2-3-1-1-16-1-7z" fill="#081F2F"/>
<path transform="translate(1156,280)" d="m0 0h1l-1 7-1 2h-2l-2 5-6 9-6 6h-2l1-5h2v-4l4-1 8-11z" fill="#081F2F"/>
<path transform="translate(1329,516)" d="m0 0 2 1-2 4 7 8h6l-3 3-9 3-4-1 6-2-4-6-3-3v-2l-3-1z" fill="#14314A"/>
<path transform="translate(1483,242)" d="m0 0 5 3-3 10-3 8h-4l1-7z" fill="#295880"/>
<path transform="translate(1013,740)" d="m0 0h2l7 16 5 8h-2l-1 4h-3l1-3-7-16z" fill="#133047"/>
<path transform="translate(1101,641)" d="m0 0 2 3 2 18v7l-2 3h-3z" fill="#60E7F7"/>
<path transform="translate(1244,595)" d="m0 0h2l1 10 19 8-4 1-9-1-1-4-5-1-6-7 1-5z" fill="#1F3C59"/>
<path transform="translate(1139,258)" d="m0 0h6l2 4h2l5 7 1 4-2 1-4-2v-3h-2v-2h-3l1-4h-2v-2l-4-1z" fill="#353C4C"/>
<path transform="translate(1498,151)" d="m0 0 5 2-4 1-1 10-4 16h-3l1-8 5-19z" fill="#60E7F7"/>
<path transform="translate(985,86)" d="m0 0 9 2 15 5 14 7-3 1-16-6-17-6v-2z" fill="#8EEEF9"/>
<path transform="translate(1255,944)" d="m0 0h2l3 13 5 23v3h-2l-7-29z" fill="#142B3F"/>
<path transform="translate(818,188)" d="m0 0 5 2 5 5v4l-10-3-2-1v-3h-2v-2z" fill="#F6FCFC"/>
<path transform="translate(1455,894)" d="m0 0 4 1h16l9-1h14l-4 2-29 3-9-3z" fill="#60E7F7"/>
<path transform="translate(1020,216)" d="m0 0 4 1 6 3 12-2-4 3-3 2-7 1h-13v-2l7-2v-2z"/>
<path transform="translate(1517,138)" d="m0 0 4 1 5 2-2 5-6 10-2 1-2-2h3z" fill="#60E7F7"/>
<path transform="translate(1073,643)" d="m0 0 1 2-7 8-5 4-6 5h-2v-2l-5-1 4-1 6-1 2-4 10-9z" fill="#0F2638"/>
<path transform="translate(1150,318)" d="m0 0 4 2 5 10 4 10-5-2v5h-1l-2-11-5-11z" fill="#0B2233"/>
<path transform="translate(925,217)" d="m0 0h5l4 4-1 8h-3v-2l-5-2-1-7z" fill="#B7F3FA"/>
<path transform="translate(1099,222)" d="m0 0 13 2 14 1 2 2-9 6-2-2 3-3-7-1h-7l-7-4z" fill="#081F2F"/>
<path transform="translate(1201,74)" d="m0 0 23 2 1 2h-3v2h-14l-7-5z" fill="#F1FFFF"/>
<path transform="translate(1520,776)" d="m0 0 3 2v8l-1 1-3 26h-1v-23z" fill="#152C40"/>
<path transform="translate(1094,728)" d="m0 0 3 1v7l-4 6-3 1-2-3 1-4 2-6z" fill="#081F30"/>
<path transform="translate(910,314)" d="m0 0h4l2 3 3 2-10 2-5 3-1-1v-5l-2-1z" fill="#081F2F"/>
<path transform="translate(1073,193)" d="m0 0h6l1 2 20 1h18v1l-7 1h-27l-11-3z" fill="#081F2F"/>
<path transform="translate(1462,458)" d="m0 0 5 1 3 2v2l-10-1-7 2v6l3 6-1 2-5-7-1-6 4-4z" fill="#51A4B9"/>
<path transform="translate(967,303)" d="m0 0 4 2-1 5-8 9h-1v-8z" fill="#1B3249"/>
<path transform="translate(1342,788)" d="m0 0 5 2 12 11 14 11 4 5-4-2-16-13-11-9-4-4z" fill="#60E7F7"/>
<path transform="translate(1008,698)" d="m0 0 2 2 1 13-1 4-5-2-1-4z" fill="#60E7F7"/>
<path transform="translate(1196,235)" d="m0 0 4 4 5 10v2l-6-3v-2l-5-2-4-4h7z" fill="#081F2F"/>
<path transform="translate(1584,158)" d="m0 0 2 1-1 8-3 13-1-4-13-1 2-3h10l2-5 1-8z" fill="#0E2536"/>
<path transform="translate(1088,1060)" d="m0 0 3 1-21 9-17 4h-2l1-3 21-5z" fill="#ECA296"/>
<path transform="translate(1192,798)" d="m0 0 3 1-12 12-9 6-8 2h-6l1-2 13-2v-2l7-4 4-4 6-5z" fill="#264665"/>
<path transform="translate(1171,685)" d="m0 0h13l6 4 3 4-4-2-3-1 7 9-1 4-2-6-3-1-3-5-8-4-5-1z" fill="#12293C"/>
<path transform="translate(840,165)" d="m0 0 3 1 3 5h-2l2 7 4 3-2 1-3 11h-2l-1-23z" fill="#28557F"/>
<path transform="translate(1043,487)" d="m0 0 7 4 3 9-3 3-5-8-4-4z" fill="#A19D9F"/>
<path transform="translate(877,119)" d="m0 0h4l2 5-7 8-5-1-1-3 5-1-2-2 5-1v-2h-7v-1h6z" fill="#28557F"/>
<path transform="translate(1501,979)" d="m0 0h19l8 3 1 3-5-1-2-1-18-1z" fill="#2A5C84"/>
<path transform="translate(1320,782)" d="m0 0 4 2 3 4 7 4 7 6 1 3-4-1-11-8-1-3-4-1v-3z" fill="#18344E"/>
<path transform="translate(1250,541)" d="m0 0m-1 1m-1 1m-2 1h2l-2 4-4 6-8 9-2-1 2-5 8-10z" fill="#1F3A54"/>
<path transform="translate(1138,846)" d="m0 0 3 1v2l-4 4-2 5h-2l-2 7h-2l-2 5-3 1 2-5 4-7h2l1-6 1-2h2l1-4z" fill="#397E9A"/>
<path transform="translate(922,810)" d="m0 0h2l3 7 1 11-3 4-1-1-2-16z" fill="#28557F"/>
<path transform="translate(874,389)" d="m0 0h3l3 7-2 7-3-1-2-6-5-2 4-1v-2z" fill="#2B597F"/>
<path transform="translate(966,214)" d="m0 0 11 2 19 5 6 1v1h-11l-20-5z"/>
<path transform="translate(1551,869)" d="m0 0 2 2 4 11v7l-1 4h-2l-1-2-2-15z" fill="#0C2334"/>
<path transform="translate(1135,765)" d="m0 0 5 5 7 11-2 5-4-4-2-6-4-7z" fill="#21303D"/>
<path transform="translate(1457,533)" d="m0 0 8 4 1 2 3 1 5 5 2 1v3l2 1-2 3-3-3v-2l-4-2-2-4-5-2z" fill="#204666"/>
<path transform="translate(884,379)" d="m0 0h2l-1 7-4 9h-2l-2-4 1-5z" fill="#32435B"/>
<path transform="translate(861,323)" d="m0 0 4 2 5 6 11 7v3l-10-5-8-7z" fill="#60E7F7"/>
<path transform="translate(1340,917)" d="m0 0 1 2h3v7l1 4-5-1-2-4h-2v-4z" fill="#29597E"/>
<path transform="translate(832,393)" d="m0 0 5 3 8 16 4 6-1 2-7-9-8-14z" fill="#E6DDDB"/>
<path transform="translate(1463,340)" d="m0 0h1l-1 9-3 11-2 5-5-1 3-13 3-2-2 9v4z" fill="#102739"/>
<path transform="translate(1192,196)" d="m0 0 2 1-1 2h5l1 2-12 1-11 4-6-1 3-2 18-6z" fill="#081F2F"/>
<path transform="translate(1546,897)" d="m0 0 4 2v23l-1 12h-1v-31l-1 16h-1z" fill="#10273A"/>
<path transform="translate(1365,892)" d="m0 0 4 2 12 11 11 9-3 1-5-3-19-19z" fill="#244A6E"/>
<path transform="translate(1032,640)" d="m0 0h3l-1 5-3 6h-1l-1-5-5 1-6 4-3 6-1-4 5-6z" fill="#60E7F7"/>
<path transform="translate(1174,256)" d="m0 0 6 4 8 8v2l-4-1-13-10z" fill="#142B3F"/>
<path transform="translate(809,206)" d="m0 0 17 4 6 2 1 3h-7l-3-1-1 3-1-4v-2l-12-2-2 1z" fill="#16344D"/>
<path transform="translate(988,164)" d="m0 0m-2 1h2v3l-14 6-9 2h-6l4-2 19-7z" fill="#A3F2FA"/>
<path transform="translate(1443,415)" d="m0 0h2l-1 8-5 18-2 7h-1l1-10z" fill="#315471"/>
<path transform="translate(1382,1084)" d="m0 0 3 2 7 20 1 6h-3l-5-17-3-9z" fill="#0F2638"/>
<path transform="translate(1050,1009)" d="m0 0 1 4-7 18-4 14h-2l1-7 10-28z" fill="#787987"/>
<path transform="translate(1124,871)" d="m0 0h2v2h-2v3l-3 3-3 5-10 15-2 1 2-5 7-12 5-7 2-4z" fill="#204363"/>
<path transform="translate(1226,386)" d="m0 0 2 3 6 10 3 9-4-2-6-9z" fill="#10283A"/>
<path transform="translate(1486,323)" d="m0 0 5 5 5 1h11v2l-6 2h-10l-5-7z" fill="#576371"/>
<path transform="translate(1211,460)" d="m0 0 2 1-9 9-8 10-8 8-2-1 4-4 3-5 8-7 7-8z" fill="#46A4BF"/>
<path transform="translate(1296,390)" d="m0 0 6 1-4 4h-6l-11 6-4-2z" fill="#244A6B"/>
<path transform="translate(1072,308)" d="m0 0 3 3 2 7v12l-4 2-3-4 5 1-3-18z" fill="#081F2F"/>
<path transform="translate(1058,163)" d="m0 0 10 1 4 1 22 2v1l-12 1-16-2-8-3z" fill="#081F2F"/>
<path transform="translate(930,58)" d="m0 0h5v2l-4 2-2 4v-2l-11 3-3-1 7-5z" fill="#5EE2F3"/>
<path transform="translate(950,679)" d="m0 0h1l-1 8-4 13h-1v-7h-2l-2 4v-3l7-12v-2z" fill="#0E1F2F"/>
<path transform="translate(1371,958)" d="m0 0 4 1v2h2l1 4 4 1 6 8-5-1-8-7v-3l-3-1z" fill="#377E9A"/>
<path transform="translate(847,355)" d="m0 0 6 2 11 5 9 2-1 3-12-3-10-5z" fill="#60E7F7"/>
<path transform="translate(1549,168)" d="m0 0 16 2 5 1v2h5v1h-11l-15-4z" fill="#132A3D"/>
<path transform="translate(1006,160)" d="m0 0h2l-2 6-8 6-5 2-3-1 8-6z"/>
<path transform="translate(1017,651)" d="m0 0h5l2 2-1 5-3 2-5-1v-5z" fill="#F6FCFD"/>
<path transform="translate(997,517)" d="m0 0h2l-2 4-8 5-7 1-7-1v-1l10-1-1-2 10-3z" fill="#57CFE3"/>
<path transform="translate(1238,435)" d="m0 0v3l-10 10-6 5-5 5-4 2 6-7 17-17z" fill="#58D4E7"/>
<path transform="translate(1268,746)" d="m0 0 5 1 9 8 2 1v2l5 2 2 3-5-2-16-11z" fill="#60E7F7"/>
<path transform="translate(1296,1070)" d="m0 0 3 4 6 9 3 5 6 8-4-2-8-9-6-11z" fill="#060C11"/>
<path transform="translate(1536,773)" d="m0 0 2 1-3 26h-1l-1-16z" fill="#092030"/>
<path transform="translate(1321,519)" d="m0 0 3 1 1 2-21 6-3 1 1-4z" fill="#193954"/>
<path transform="translate(1426,476)" d="m0 0 1 4-1 10-3 11-2 2h-3v-7l2 2 2-5z" fill="#31607D"/>
<path transform="translate(1471,328)" d="m0 0 2 3 6 16-1 3-1-1-1 3-6-19z" fill="#081F2F"/>
<path transform="translate(950,175)" d="m0 0h9l5 1-4 2h-24v-2z" fill="#28557F"/>
<path transform="translate(1084,81)" d="m0 0 3 1-4 8-7 6-1 2h-3l2-4 7-9z" fill="#213D59"/>
<path transform="translate(1240,71)" d="m0 0 4 1-14 7-8 1v-2l5-3 11-3z" fill="#6FD8E9"/>
<path transform="translate(1223,1027)" d="m0 0 15 5 7 2 14 5-4 1-13-4-10-3-9-5z" fill="#2C6483"/>
<path transform="translate(1439,425)" d="m0 0 1 4-4 16h-3l1-12 1-3 2-1z" fill="#0A1C29"/>
<path transform="translate(1463,336)" d="m0 0 1 4-6 22-2 2v-6l2-8-1-2 2-4 1 1z" fill="#27547C"/>
<path transform="translate(1032,264)" d="m0 0h10l9 3v2l5 1-3 1-10-4v2l-5 2 1-3-7-3z" fill="#081F2F"/>
<path transform="translate(1538,866)" d="m0 0h2l2 4 1 16-4-2z" fill="#163149"/>
<path transform="translate(853,346)" d="m0 0 4 2 11 8 4 2-2-7h3l2 9-7-1-9-6z" fill="#324156"/>
<path transform="translate(1076,275)" d="m0 0h4v17l-2-2-1-7h-4v-3z" fill="#081F2F"/>
<path transform="translate(873,162)" d="m0 0 5 5 7 10 3 6-1 2-8-11-6-9z" fill="#28557F"/>
<path transform="translate(1259,130)" d="m0 0 5 5 6 9v3l-4-2-4-5-3-7z" fill="#ECFBFD"/>
<path transform="translate(1515,928)" d="m0 0h1v13l-2 11-2 1v-21h1l1 6z" fill="#081F2F"/>
<path transform="translate(1350,659)" d="m0 0 1 2h2l-1 3-6 5-6 3-4-1 10-7z" fill="#193147"/>
<path transform="translate(975,633)" d="m0 0 1 2-8 14-3 6-3-2 9-15z" fill="#285579"/>
<path transform="translate(1030,357)" d="m0 0 1 4-4 11-7 8-3-1 9-12z" fill="#04121C"/>
<path transform="translate(1039,32)" d="m0 0 3 1-25 15v-3l11-7z" fill="#28557F"/>
<path transform="translate(1138,301)" d="m0 0 1 3-4 7v2l-4 2v-2l-3-1 4-7 5-3z" fill="#353C4C"/>
<path transform="translate(1511,268)" d="m0 0m-8 1h8l5 3-4 1-4-1-7 3-3 1 1-5z" fill="#4195B3"/>
<path transform="translate(893,961)" d="m0 0 3 2-2 15-3 13h-1l1-15z" fill="#1B2C3D"/>
<path transform="translate(867,191)" d="m0 0 2 3 4 11-1 3-7-10-3-3v-2l4-1z" fill="#90E9F5"/>
<path transform="translate(983,89)" d="m0 0 9 1 12 4-4 1-9 1-3-1v-2l-2-1 1-1z" fill="#28557F"/>
<path transform="translate(977,768)" d="m0 0 2 4v5h-1l-1 35h-1v-43z" fill="#1A3147"/>
<path transform="translate(937,312)" d="m0 0 2 1-2 6-6 2-1 3h-7v-1l5-1v-5z" fill="#092031"/>
<path transform="translate(802,266)" d="m0 0h1l4 20-1 3h-2l-3-14v-8z" fill="#729AA5"/>
<path transform="translate(823,214)" d="m0 0 13 2v3l-1 1h-8l-4-3z" fill="#28557F"/>
<path transform="translate(1242,129)" d="m0 0 3 2 3-1v2h7l1 4-4-1 1 3h-4l-7-7z" fill="#B9F1F8"/>
<path transform="translate(874,418)" d="m0 0 10 4 7 2 11 1 2 2-19-1-8-4-3-2z" fill="#71E9F7"/>
<path transform="translate(1254,205)" d="m0 0h2l-1 5-5 6-2 6-3-2h2l-1-8 2 1 4-6z" fill="#193042"/>
<path transform="translate(1015,145)" d="m0 0 4 1-5 5-6 2 1-3-3-1 2-3z" fill="#2E658B"/>
<path transform="translate(1081,33)" d="m0 0 8 1 14 4 9 4-3 1-28-9z" fill="#28557F"/>
<path transform="translate(1012,776)" d="m0 0 3 1-8 7-15 15-2-1 13-13 5-6z" fill="#0F2233"/>
<path transform="translate(1303,521)" d="m0 0 3 1-2 1 1 2-10 4h-7l3-3z" fill="#60E7F7"/>
<path transform="translate(1442,515)" d="m0 0h8l8 3 1 2-4-1h-9l-1 2h-2l-3-3v-2z" fill="#60E7F7"/>
<path transform="translate(846,409)" d="m0 0 3 3 6 10v2l-5-2-6-11z" fill="#2F5066"/>
<path transform="translate(1027,144)" d="m0 0h21l-1 2-24 1v-2z" fill="#353D4D"/>
<path transform="translate(1302,104)" d="m0 0 1 2-6 8-8 6-6 2-1-2 10-5z" fill="#68E8F7"/>
<path transform="translate(1019,97)" d="m0 0 19 8v2l-10-2-8-3 1-2-2-1z" fill="#28557F"/>
<path transform="translate(1199,740)" d="m0 0h1l-1 12-4 12h-3l3-9z" fill="#081F2F"/>
<path transform="translate(1168,452)" d="m0 0 4 2-1 4-2 2h-6v-4z" fill="#60E7F7"/>
<path transform="translate(972,225)" d="m0 0 5 5 2 5 3 1 2 8-4-1-5-12-3-4z" fill="#2F4D69"/>
<path transform="translate(1536,959)" d="m0 0h2v15l-1 4h-2v-16z" fill="#4E8DA1"/>
<path transform="translate(1546,931)" d="m0 0h1l-1 16-3 7h-1l1-11 2-11z" fill="#60E7F7"/>
<path transform="translate(941,875)" d="m0 0h1v13l-2 15h-1v-20z" fill="#193045"/>
<path transform="translate(925,698)" d="m0 0 1 3-8 7-1 2h-2v2l-4 1 3-5 9-9z" fill="#18334C"/>
<path transform="translate(1223,572)" d="m0 0m-1 1m-1 1m-2 1h2l-1 4-10 9-2 2-3-1z" fill="#BCF6FC"/>
<path transform="translate(1052,505)" d="m0 0h2l1 10-3 3h-2l-1-8z" fill="#4A839A"/>
<path transform="translate(1466,369)" d="m0 0 4 4 7 14v3h-2l-9-18z" fill="#0B2233"/>
<path transform="translate(1490,311)" d="m0 0h12v2l-10 1-4 2-2 7-2-1v-5l5-5z" fill="#38647B"/>
<path transform="translate(1125,286)" d="m0 0h3l-1 9v3h-2l-1-5-5-2 1-3 2 1 1-2z" fill="#323B4B"/>
<path transform="translate(1539,141)" d="m0 0 5 2 5 3 16 3 1-5 1 4-3 3-18-3-1-2-7-3z" fill="#224B69"/>
<path transform="translate(1544,134)" d="m0 0 10 3 12 6v3l-4-2-18-8z" fill="#16344D"/>
<path transform="translate(1491,803)" d="m0 0 4 4 1 4-2 10-2-2 1-9h-2zm-1 16 2 1-2 3z" fill="#16324A"/>
<path transform="translate(1030,762)" d="m0 0 3 3-8 7h-3l1-4 2-4h4z" fill="#0D1C29"/>
<path transform="translate(1471,404)" d="m0 0 5 1 6 7-2 1-12-6z" fill="#CEF8FC"/>
<path transform="translate(830,323)" d="m0 0 7 6 2 2 1 6-5-3-4-6-2-1z" fill="#132737"/>
<path transform="translate(1161,270)" d="m0 0 4 2v7l-1 2h-4l-1-6h2v-2l-2-1z" fill="#323B4B"/>
<path transform="translate(925,215)" d="m0 0 8 1 3 3-2 12-3-1 2-10-3-2h-5l-2 4v-5z" fill="#28557F"/>
<path transform="translate(841,179)" d="m0 0h1l1 36-2-4-2-5 1-3z" fill="#0B2234"/>
<path transform="translate(1195,824)" d="m0 0 2 1-9 6-7 4-4-1 4-3z" fill="#081F2F"/>
<path transform="translate(1105,563)" d="m0 0h3l1 22h-2l-2-16z" fill="#1A3147"/>
<path transform="translate(1237,408)" d="m0 0 5 5h-3v5l1 5-1 2-2-5v-3l-3-1 1-5z" fill="#214565"/>
<path transform="translate(809,317)" d="m0 0h1v19l-2 3-1-2v-9l1-9z" fill="#112637"/>
<path transform="translate(879,214)" d="m0 0 9 6 3 3v2l-5-1-5-4-2-3z" fill="#81ECF8"/>
<path transform="translate(1491,210)" d="m0 0 1 4h2l1 3v10l-3 3-1-2z" fill="#337398"/>
<path transform="translate(999,946)" d="m0 0 1 2-5 18-2-3 2-10 3-6z" fill="#162C3F"/>
<path transform="translate(1411,931)" d="m0 0 4 2 8 7 6 5-2 2-5-5-8-6-3-3z" fill="#204261"/>
<path transform="translate(1068,821)" d="m0 0 3 1-3 6h-2l-2 4-5 6-1-3 1-2h2l4-8 2-1z" fill="#23405C"/>
<path transform="translate(973,708)" d="m0 0h1v10l8-8-1 5-4 4-1 3-4-1v-9z" fill="#1C3F5D"/>
<path transform="translate(1326,581)" d="m0 0 2 1-1 1 4 2-9 3-5 2-3-1 3-3z" fill="#15324B"/>
<path transform="translate(1269,542)" d="m0 0 1 3-14 8-2 1-1-3 14-8z" fill="#1C3B58"/>
<path transform="translate(1239,234)" d="m0 0 4 4 4 7v5l-4-1-4-12z" fill="#BBB8B4"/>
<path transform="translate(891,189)" d="m0 0 6 2 1 5-2 6-5-9z" fill="#081F2F"/>
<path transform="translate(857,102)" d="m0 0 8 1-1 3-8 4-4-1 4-4h2z" fill="#1F435F"/>
<path transform="translate(1516,881)" d="m0 0 3 2-1 18-3-3z" fill="#081F2F"/>
<path transform="translate(1450,827)" d="m0 0 3 3 1-2 1 3h9v1h-8v3l4 1-7 1-3-6z" fill="#112B40"/>
<path transform="translate(1327,777)" d="m0 0 6 2 10 10-1 2-5-4v-2l-6-2z" fill="#4197B3"/>
<path transform="translate(1048,659)" d="m0 0 6 1v2l-11 2-9 3v-2l10-5z" fill="#60E7F7"/>
<path transform="translate(1381,645)" d="m0 0h5l-1 2-14 5v-2h-3v-2z" fill="#ACF3FB"/>
<path transform="translate(1034,347)" d="m0 0h2l2 6v7l-2 4h-1l-1-8z" fill="#04121C"/>
<path transform="translate(853,270)" d="m0 0h2l5 18-1 3-7-17z" fill="#1D2C3C"/>
<path transform="translate(1118,263)" d="m0 0h3v2h2l1 6 2 1-5-1-4-2v-5z" fill="#353C4C"/>
<path transform="translate(1059,985)" d="m0 0h2l-3 9-6 16-2-1 3-9z" fill="#233D57"/>
<path transform="translate(1536,861)" d="m0 0h2v3l2-2 1 1v6l-1-3-1 1v14h-1l-2-13z" fill="#11283B"/>
<path transform="translate(1532,792)" d="m0 0h2v14l-1 5-3-4 1-9z" fill="#11283C"/>
<path transform="translate(1110,671)" d="m0 0 11 2 7 3-3 1-15-3-2 3-2-4z" fill="#60E7F7"/>
<path transform="translate(874,354)" d="m0 0 3 4 2 5 6 2v1l-12-1 2-2-2-3 1-1z" fill="#273A51"/>
<path transform="translate(807,322)" d="m0 0h1v21l-2 1-3-3z" fill="#2F5B74"/>
<path transform="translate(804,195)" d="m0 0 9 4v2h4v2l-7-1-8-4v-2z" fill="#0C2538"/>
<path transform="translate(1259,1040)" d="m0 0h6v2l5 1 4 3v3l-4-1-3-2v-2l-6-2z" fill="#1F4263"/>
<path transform="translate(939,991)" d="m0 0h2l1 12-3-2-2 4-1-9z" fill="#6A5459"/>
<path transform="translate(1246,981)" d="m0 0 16 2v4h-11l-1-2h5l-9-3z" fill="#1E4161"/>
<path transform="translate(1377,817)" d="m0 0 4 2 9 7 6 5-1 2-4-2-8-8-6-5z" fill="#69E8F7"/>
<path transform="translate(920,446)" d="m0 0 11 3 5 2v4l-5-2-7-2z" fill="#A1E8F1"/>
<path transform="translate(1452,365)" d="m0 0 1 4 3-1-1 9-2 8h-2l1-8 1-5h-2z" fill="#2A5B83"/>
<path transform="translate(797,241)" d="m0 0h1l1 9 2 3v7h-1l-1-6v7l-2-1-2-11 1-1z" fill="#243B53"/>
<path transform="translate(808,175)" d="m0 0h2l-1 3-9 5-6 5-3-1 9-7z" fill="#FBFDFD"/>
<path transform="translate(1088,1090)" d="m0 0m-1 1m-1 1v3l-7 7h-2l-2 4-4 1 2-4 11-9z" fill="#F49D8E"/>
<path transform="translate(988,986)" d="m0 0h1l-1 14-2 6h-2l1-9z" fill="#F49B8C"/>
<path transform="translate(1356,946)" d="m0 0 4 1 4 2 7 8h-3l-5-3v-2h-2v-2l-4-2z" fill="#39819E"/>
<path transform="translate(1e3 934)" d="m0 0 1 3-6 14-2-4 3-9 2-3 1 1z" fill="#0F2638"/>
<path transform="translate(1134,796)" d="m0 0 5 5 8 12 3 3h-3l-9-11-4-7z" fill="#1C2D3E"/>
<path transform="translate(1453,580)" d="m0 0 4 2 7 7v3l-4-2-7-6v-3z" fill="#12293C"/>
<path transform="translate(1462,414)" d="m0 0 2 3v4h2l1 5h2l2 6-4-2v-3h-2l-3-5z" fill="#3E88A1"/>
<path transform="translate(825,338)" d="m0 0 1 2h2l5 10h-3l-5-4z" fill="#3E8EAE"/>
<path transform="translate(1067,300)" d="m0 0 9 3 2 6-8-3-3-4z" fill="#081F2F"/>
<path transform="translate(1477,263)" d="m0 0 2 3-1 7-1 3h2v3l-5 1 1-8z" fill="#2D5267"/>
<path transform="translate(1523,128)" d="m0 0 11 2 4 2h-8l2 5-3-1-5-5z" fill="#23486B"/>
<path transform="translate(1195,993)" d="m0 0 1 3 1 7 1 6h-2l-1-4h-2l-1 5h-1l1-9z" fill="#102C43"/>
<path transform="translate(1066,969)" d="m0 0 2 4-4 7-2 6-3-2z" fill="#162E43"/>
<path transform="translate(1139,842)" d="m0 0h2l2 4 3 5-1 3-3-3-5 2 2-4h2l-1-2h-3v-3h2z" fill="#122E44"/>
<path transform="translate(1094,685)" d="m0 0 1 2-1 2 2 1-8 6h-2l1-4z" fill="#6AE8F7"/>
<path transform="translate(871,328)" d="m0 0 4 2 7 6 1 3-5-2-6-4z" fill="#1F3246"/>
<path transform="translate(1510,237)" d="m0 0 4 1 2 5 7 8 3 4-4-2-9-9-3-4z" fill="#505E6D"/>
<path transform="translate(1252,134)" d="m0 0 4 2 10 8 3 3v3h-2l-3-5-8-6z" fill="#33475A"/>
<path transform="translate(1255,944)" d="m0 0h2l3 13 1 6h-3l-2-9z" fill="#12293C"/>
<path transform="translate(1088,929)" d="m0 0 1 2-7 14h-2l-1 3-1-2 6-12h2v-4z" fill="#1E405F"/>
<path transform="translate(910,898)" d="m0 0 3 1v5l-2 1-2 6-2-2-2 2 1-5z" fill="#172838"/>
<path transform="translate(1446,884)" d="m0 0 7 6 4 4-1 2-4-2-7-7z" fill="#29597D"/>
<path transform="translate(1167,706)" d="m0 0h3l1 3-5 2-7 7-2-1 6-8z" fill="#1B3248"/>
<path transform="translate(1198,477)" d="m0 0v3l-5 5-3 4h-2l-1 3h-2l-2 4v-3l3-5 8-7z" fill="#112B40"/>
<path transform="translate(1430,462)" d="m0 0h1l-1 11-2 7-3-1 1-5z" fill="#152C41"/>
<path transform="translate(1092,280)" d="m0 0h1v10l-2 12-2-4-1-8h2z" fill="#0B2233"/>
<path transform="translate(946,274)" d="m0 0 2 1-4 5 3 2v2l2 1-3 3-5-6 1-5z" fill="#092031"/>
<path transform="translate(936,178)" d="m0 0h22l-1 3h-10l-11-2z" fill="#363D4D"/>
<path transform="translate(1259,540)" d="m0 0 2 1-14 9-3 1 2-4 5-4z" fill="#28557F"/>
<path transform="translate(1422,485)" d="m0 0h1v8l-2 5-2 1v-9l1-4z" fill="#070E14"/>
<path transform="translate(856,321)" d="m0 0h3l1 9v5h-2l-2-6z" fill="#06080B"/>
<path transform="translate(1097,132)" d="m0 0 2 1-7 5-10 3h-5l3-2 13-5z" fill="#63E7F7"/>
<path transform="translate(1223,369)" d="m0 0 4 2 7 6-1 2-6-3h-3z" fill="#152B3E"/>
<path transform="translate(918,170)" d="m0 0 4 1 6 3 1 3-8-1-3-3z" fill="#343E50"/>
<path transform="translate(1531,137)" d="m0 0 9 6 6 3-2 1-13-5-5-1 4-1z" fill="#60E7F7"/>
<path transform="translate(1228,804)" d="m0 0 9 1 6 2v2l-13-1-2-1z" fill="#193449"/>
<path transform="translate(1309,775)" d="m0 0 5 2 10 9h-3l-11-7z" fill="#27537C"/>
<path transform="translate(936,733)" d="m0 0 1 4-3 12-3-1 1-7 2-6z" fill="#244362"/>
<path transform="translate(1011,703)" d="m0 0 2 2 1 5-2 4h2l1 3-7 1 2-1z" fill="#143047"/>
<path transform="translate(961,654)" d="m0 0h3l-1 4-4 8-3-4z" fill="#193651"/>
<path transform="translate(1250,473)" d="m0 0h2l2 10v8l-2-3-2-8z" fill="#081F2F"/>
<path transform="translate(986,245)" d="m0 0 5 5 12 10h-3l-10-7v-2l-3-1z" fill="#081F2F"/>
<path transform="translate(1246,242)" d="m0 0 3 1v10l-1 2-3-1-1-5 2-1z" fill="#434C5E"/>
<path transform="translate(795,233)" d="m0 0h1l1 15-2 1-2-9z" fill="#D8FAFD"/>
<path transform="translate(1360,888)" d="m0 0 4 1 4 6 6 7-4-2-8-7z" fill="#152C41"/>
<path transform="translate(1253,423)" d="m0 0 2 1-11 8-1 3h-2v2h-2v-4l3-3 4-2z" fill="#224B6E"/>
<path transform="translate(1174,377)" d="m0 0 1 3h-2l-2 5-3 3h-4v-3l4-2 4-4h2z" fill="#071723"/>
<path transform="translate(860,215)" d="m0 0 3 2-2 5-4 8h-2l1-5z" fill="#081F2F"/>
<path transform="translate(947,82)" d="m0 0h9l7 2v3l-6 2 1-3-6-2-5-1z" fill="#60E7F7"/>
<path transform="translate(1472,985)" d="m0 0 4 1-20 5h-3v-2l7-2z" fill="#173651"/>
<path transform="translate(910,880)" d="m0 0 5 5 2 5v6l-1-2h-3l1-6-4-5z" fill="#273343"/>
<path transform="translate(1179,810)" d="m0 0m-1 1m-2 1h2l-2 4-10 3h-6l1-2 13-2v-2z" fill="#35789B"/>
<path transform="translate(1299,526)" d="m0 0 3 1-2 3-7 3-4-1 3-3z" fill="#133047"/>
<path transform="translate(1141,466)" d="m0 0 2 1-9 8-5 2-4 4 2-5 8-5z" fill="#081F2F"/>
<path transform="translate(908,427)" d="m0 0 4 1 4 2v2l4 1-1 3-4-1v-2l-4-2-4-3z" fill="#4796B0"/>
<path transform="translate(1453,371)" d="m0 0 1 2-3 12-3-1 2-10z" fill="#12293C"/>
<path transform="translate(855,315)" d="m0 0 5 3v7l-1-4h-3v5h-1l-1-10z" fill="#152738"/>
<path transform="translate(1498,281)" d="m0 0 8 6 6 4-3 1-7-4-4-5z" fill="#DFA59A"/>
<path transform="translate(830,157)" d="m0 0h2l1 4h-3l-2 7-2 3-2-8 2-1 1 4v-5z" fill="#274C70"/>
<path transform="translate(1498,148)" d="m0 0 6 2 5 3-1 3-5-2-5-3z" fill="#275379"/>
<path transform="translate(1251,135)" d="m0 0 4 2 7 6-2 2-5-2-3-3z" fill="#E7A194"/>
<path transform="translate(893,80)" d="m0 0h3l-1 6-4 1-5-1 1-2 5-3z" fill="#F2FCFC"/>
<path transform="translate(1012,53)" d="m0 0h6v4l-6 1-2-1v-3z" fill="#FDFDFD"/>
<path transform="translate(940,42)" d="m0 0 2 1-5 4-5 3-4-1 5-4z" fill="#5BDAED"/>
<path transform="translate(1057,836)" d="m0 0 3 1v2l-2 1-4 8-4 2 2-5z" fill="#152C40"/>
<path transform="translate(951,776)" d="m0 0 2 2-1 8-4 8-2 1 3-9z" fill="#0F2638"/>
<path transform="translate(1153,735)" d="m0 0h1l-1 15-2 4h-1v-7z" fill="#081F2F"/>
<path transform="translate(921,707)" d="m0 0h2l-2 8-5 1v-5z" fill="#FAFDFD"/>
<path transform="translate(1040,487)" d="m0 0h3l-1 4-7 2-4 3-2-1 8-7z" fill="#24384E"/>
<path transform="translate(1105,204)" d="m0 0h10l8 6-4 1-8-5-6-1z" fill="#081F2F"/>
<path transform="translate(1278,1031)" d="m0 0 2 2 3 7-1 5-3-4-1-3z" fill="#050A0F"/>
<path transform="translate(1204,590)" d="m0 0 3 1-11 11-2-2z" fill="#A4F2FA"/>
<path transform="translate(927,451)" d="m0 0 6 2 3 3-1 5-8-8z" fill="#274764"/>
<path transform="translate(1123,436)" d="m0 0h1l1 9-2 7-2 1v-7z" fill="#1A3147"/>
<path transform="translate(807,291)" d="m0 0 2 1 1 5v8l-3-3-2-9h2z" fill="#9CC7CA"/>
<path transform="translate(1503,178)" d="m0 0h2l-3 9h-5l-5-3 1-3 4 3 4-1z" fill="#60E7F7"/>
<path transform="translate(844,83)" d="m0 0 1 3 1 7-2 3-3-4 1-5z" fill="#D8FAFD"/>
<path transform="translate(1108,670)" d="m0 0 11 1 9 4-2 1-9-3-7-1-3 1z" fill="#193955"/>
<path transform="translate(1161,640)" d="m0 0 3 1-8 10-2 4h-2l2-5z" fill="#8BDAE7"/>
<path transform="translate(1043,487)" d="m0 0 5 3-1 2 1 2 2 1-4 1-5-5z" fill="#B7E2E6"/>
<path transform="translate(1166,448)" d="m0 0 2 1-3 3 2 2-5 5h-2v-6z" fill="#0D2131"/>
<path transform="translate(1213,349)" d="m0 0 3 3 1 4 5 5-4 1-5-9z" fill="#1E3042"/>
<path transform="translate(806,344)" d="m0 0 2 3 4 2-6 2-4 3-2-1 3-4z" fill="#A1F0F9"/>
<path transform="translate(826,346)" d="m0 0 2 1v2l3 1 5 7-8-4-2 3z" fill="#353E50"/>
<path transform="translate(1475,293)" d="m0 0h1l-1 10-3 7h-1l1-7 2-9z" fill="#1F405E"/>
<path transform="translate(808,209)" d="m0 0 1 2-5 13-3 2 3-11z" fill="#10273A"/>
<path transform="translate(1493,194)" d="m0 0 1 2h3l2 5 3 3v2l-4-2-1-3-4-1z" fill="#4A92A7"/>
<path transform="translate(810,174)" d="m0 0 3 1 9 11h-3l-7-7z" fill="#1B3C5A"/>
<path transform="translate(871,126)" d="m0 0h5l-3 3-3-1 2 5-5-2-2-1v-2z" fill="#214261"/>
<path transform="translate(1339,935)" d="m0 0h3v5l-1 1h-8l3-3h2z" fill="#18344C"/>
<path transform="translate(974,833)" d="m0 0h1v8l-1 4h-2l-1 3 1-12z" fill="#4094B3"/>
<path transform="translate(1333,792)" d="m0 0 8 6 1 3-4-1-7-5 2-1z" fill="#142C42"/>
<path transform="translate(1094,789)" d="m0 0h2l-2 5-5 5-2-1 2-4z" fill="#132A3D"/>
<path transform="translate(1456,478)" d="m0 0 5 2 5-2 4 1-1 2-9 2-3-1z" fill="#9A9296"/>
<path transform="translate(1439,416)" d="m0 0h1v5h2l-1 4-2 1-2 4-1-4z" fill="#1B384B"/>
<path transform="translate(939,287)" d="m0 0 6 3 1 2-6-1v-2l-4 2-2 4-4 1 5-7z" fill="#081F2F"/>
<path transform="translate(892,164)" d="m0 0 12 3 6 2v1h-9l-2-2-7-3z" fill="#30465F"/>
<path transform="translate(1068,96)" d="m0 0 2 4-5 2-3 2-4-1z" fill="#60E7F7"/>
<path transform="translate(1266,48)" d="m0 0 1 3-7 9-3 2 1-4z" fill="#76EAF8"/>
<path transform="translate(1478,1038)" d="m0 0 1 2-7 3h-7l4-4z" fill="#0F1B28"/>
<path transform="translate(930,983)" d="m0 0 2 1-3 3-1 9 1 5-3-2-1-6h2v-7z" fill="#202935"/>
<path transform="translate(1340,917)" d="m0 0 3 3v4h-2l-1 2v-2h-3l1-4z" fill="#5CDDEF"/>
<path transform="translate(1143,774)" d="m0 0 4 4 7 12-2 1-9-15z" fill="#6CDEEC"/>
<path transform="translate(892,750)" d="m0 0 1 4-4 14h-1v-7l3-10z" fill="#081F2F"/>
<path transform="translate(1187,724)" d="m0 0 4 1-1 4-1 2-4-2-1-4z" fill="#DEFBFD"/>
<path transform="translate(1082,697)" d="m0 0h3l-1 3-10 8v-3z" fill="#80ECF8"/>
<path transform="translate(1434,571)" d="m0 0 6 1 6 3-1 3-5-2-6-4z" fill="#092030"/>
<path transform="translate(1462,458)" d="m0 0 5 1 3 2v2l-7-1-3-1v-2z" fill="#C2F7FC"/>
<path transform="translate(1458,349)" d="m0 0 1 3-3 11-3 1 3-13z" fill="#1C374D"/>
<path transform="translate(1518,235)" d="m0 0h10l1 3 2 1-17-2z" fill="#66AABD"/>
<path transform="translate(844,171)" d="m0 0 4 2 3 4h-3v2l-3-1z" fill="#9CF1FA"/>
<path transform="translate(983,80)" d="m0 0h3l-1 4h-2l-9 9v-3z" fill="#8EEEF9"/>
<path transform="translate(1013,740)" d="m0 0h2l4 10-2 4-4-12z" fill="#1F4262"/>
<path transform="translate(1063,731)" d="m0 0 5 3 3 5-1 2-4-1z" fill="#D4FAFD"/>
<path transform="translate(1541,685)" d="m0 0 2 1v14l-1 7h-1v-17l-1-4z" fill="#0D2436"/>
<path transform="translate(1062,654)" d="m0 0v3l-6 5h-2v-2l-5-1 4-1 6-2z" fill="#204364"/>
<path transform="translate(1034,488)" d="m0 0 3 1-7 6-4 4v-4z" fill="#6BD4E2"/>
<path transform="translate(948,309)" d="m0 0m-3 1 3 1-8 4-2 5h-5l3-2 2-5z" fill="#1D344B"/>
<path transform="translate(1141,301)" d="m0 0h3l-1 4-4 4h-2l1-5h2z" fill="#000304"/>
<path transform="translate(1042,860)" d="m0 0h2l-1 5-3 5h-3l2-5z" fill="#12293C"/>
<path transform="translate(1078,810)" d="m0 0 1 2-6 10h-3l2-5z" fill="#274D71"/>
<path transform="translate(1134,767)" d="m0 0 4 5 3 5-1 3-7-10z" fill="#DAA89E"/>
<path transform="translate(1137,764)" d="m0 0h2l3 3 2 7-2 1-5-8z" fill="#2D4560"/>
<path transform="translate(913,712)" d="m0 0 2 2v3h-2l-2 5-5 4 2-5 4-7z" fill="#4298B3"/>
<path transform="translate(1114,605)" d="m0 0 1 4h-2l-1 7-4 5 1-6z" fill="#1C3E5C"/>
<path transform="translate(1091,548)" d="m0 0h1l1 6v12l-3 1-1-6 2 1z" fill="#1B2B3B"/>
<path transform="translate(1308,523)" d="m0 0 5 1-3 2-9 3 1-4z" fill="#1E3F5D"/>
<path transform="translate(839,407)" d="m0 0 4 1 6 10-1 2-7-9z" fill="#B4F3FA"/>
<path transform="translate(1296,390)" d="m0 0 6 1-4 4-7-2 3-2z" fill="#2F698F"/>
<path transform="translate(1133,233)" d="m0 0 6 1 2 2v3l-5-1v-2h-3z" fill="#2F394A"/>
<path transform="translate(1517,143)" d="m0 0h1v10l-1 2-7-1-2-2h7l1-1z" fill="#E2FCFE"/>
<path transform="translate(1114,78)" d="m0 0 6 1 11 3-4 1h-4l-5-2z" fill="#264F76"/>
<path transform="translate(1389,1100)" d="m0 0 2 3 2 9h-3l-2-11z" fill="#0C2335"/>
<path transform="translate(1093,918)" d="m0 0 2 4-3 5-3 4-1-4 1-2h2l1-5z" fill="#17334C"/>
<path transform="translate(1036,870)" d="m0 0h3l-1 3h-2l-1 5-1 2-3-1z" fill="#152E43"/>
<path transform="translate(979,816)" d="m0 0 1 2 3 1-4 4h-2v3h-3l2-5z" fill="#295976"/>
<path transform="translate(921,807)" d="m0 0 4 1 3 8v6h-1l-3-12h-2l-1 3z" fill="#152C41"/>
<path transform="translate(1113,752)" d="m0 0h4l-1 5-4 1-1-4z" fill="#D1F8FC"/>
<path transform="translate(910,713)" d="m0 0 3 1-3 6-2-2-5 4 2-4z" fill="#1E405C"/>
<path transform="translate(1021,703)" d="m0 0 6 1-5 5-3 1 1-6z" fill="#0F2A40"/>
<path transform="translate(1024,496)" d="m0 0 2 4-5 4h-2l1-5z" fill="#326F94"/>
<path transform="translate(1441,411)" d="m0 0 3 1-2 9h-2v-9z" fill="#03090E"/>
<path transform="translate(1490,234)" d="m0 0h1v6l-7 1 1-6 4 1z" fill="#204360"/>
<path transform="translate(1227,75)" d="m0 0 4 1 1 2-10 2v-2z" fill="#5CC4D9"/>
<path transform="translate(1452,1042)" d="m0 0 8 4-2 1v2l-5 1v-5z" fill="#142E44"/>
<path transform="translate(1167,815)" d="m0 0h5l-3 2-8 1-4 1-2-3z" fill="#102A40"/>
<path transform="translate(919,801)" d="m0 0h3l2 7-3-1-1 4z" fill="#081F2F"/>
<path transform="translate(944,686)" d="m0 0 1 2-3 4-4 2-4 3-2-1z" fill="#75EAF8"/>
<path transform="translate(1426,476)" d="m0 0 1 4-1 10-1 2h-2l1-8z" fill="#244B6F"/>
<path transform="translate(1109,411)" d="m0 0 1 2-4 9-4 1 2-4z" fill="#05131D"/>
<path transform="translate(963,266)" d="m0 0 6 1 9 3-4 1-13-3z" fill="#081F2F"/>
<path transform="translate(1249,244)" d="m0 0h1v14l-2 2-2-5h2z" fill="#73DFEF"/>
<path transform="translate(1220,223)" d="m0 0 5 2 6 6v2l-4-2-7-7z" fill="#64656F"/>
<path transform="translate(1079,92)" d="m0 0 2 4-6 4-4 1v-2l3-1z" fill="#3880A2"/>
<path transform="translate(1039,32)" d="m0 0 3 1-11 7h-3v-2z" fill="#265077"/>
<path transform="translate(1007,927)" d="m0 0h1l-1 7h-2l-1 3-1-4 2-5z" fill="#132A3E"/>
<path transform="translate(1186,774)" d="m0 0v3l-8 9h-2v-2l5-5z" fill="#253447"/>
<path transform="translate(915,710)" d="m0 0 2 1 1 4 3 1-3 4h-2l-2-8z" fill="#92EFF9"/>
<path transform="translate(1435,435)" d="m0 0 2 1-1 9h-3l1-9z" fill="#010407"/>
<path transform="translate(840,399)" d="m0 0h5v2h2v7l-2-1-2-2v-5zm5 3 1 2z" fill="#60E7F7"/>
<path transform="translate(1116,261)" d="m0 0h1l1 8 4 2-2 1-6-3 1-7z" fill="#0D2436"/>
<path transform="translate(1482,248)" d="m0 0h1l-1 9-2 4h-1l1-9z" fill="#1F3C53"/>
<path transform="translate(825,214)" d="m0 0 9 2 1 2-5 1-6-3z" fill="#60E7F7"/>
<path transform="translate(991,146)" d="m0 0h14v1h-7v2l-10-1z" fill="#28557F"/>
<path transform="translate(1251,141)" d="m0 0 4 1 4 3v3l-5-2z" fill="#091016"/>
<path transform="translate(1057,554)" d="m0 0h2v3h-2z" fill="#366582"/>
<path transform="translate(1265,203)" d="m0 0 1 2-2-1z" fill="#3A85A7"/>
<path transform="translate(796,355)" d="m0 0" fill="#60E7F7"/>
<path transform="translate(1262,205)" d="m0 0" fill="#60E7F7"/>
</svg>