<svg width="632" height="571" viewBox="0 0 632 571" fill="none" xmlns="http://www.w3.org/2000/svg">
<path d="M315 0H316.25L317.5 8.125L320 43.75L320.625 48.75L345 50.625L367.5 53.75L391.875 59.375L408.75 65L419.375 70L432.5 76.25L446.25 83.75L460 92.5L470 98.75L476.875 104.375L485.625 111.875L493.125 120L506.875 133.75L513.75 142.5L522.5 154.375L529.375 166.25L534.375 174.375L540 185L546.25 199.375L551.875 215L555.625 229.375L560 253.125L561.25 261.875L561.875 270V276.25L578.75 279.375L597.5 283.125L631.25 290L631.875 291.25L630 291.875L599.375 295L583.75 298.125L566.875 302.5L562.5 303.75L560 321.875L556.25 341.25L550.625 360.625L545.625 373.75L535.625 393.75L531.875 400L525 413.125L516.25 424.375L510.625 431.875L504.375 438.75L500 443.75L493.125 451.25L485.625 458.125L476.875 466.25L466.25 474.375L459.375 479.375L456.875 481.875L456.25 485.625L455 483.75L451.875 485L446.875 488.125L428.75 497.5L419.375 502.5L404.375 508.75L383.75 515.625L365.625 520L356.25 521.875L345 523.75L320.625 525.625L318.125 546.875L316.25 560L315 569.375L314.375 570.625H313.125L312.5 560L307.5 526.875L306.875 525L281.875 523.125L267.5 520.625L251.25 516.875L228.75 509.375L216.25 503.75L201.875 496.875L191.875 491.25L180.625 485L171.875 478.75L166.875 476.25L158.75 468.75L146.875 456.875L141.875 452.5L131.25 441.875L125.625 435L116.875 423.75L110 413.75L105.625 406.25L100.625 396.25L95.625 386.875L88.75 370.625L83.125 353.75L80 343.125L77.5 330L75 311.25L74.375 301.875L66.875 300.625L53.125 297.5L30.625 294.375L3.125 291.875L0 291.25L1.25 290L14.375 288.125L46.875 281.875L74.375 276.25L75 275.625L77.5 253.75L80 240L85 221.25L90 206.875L96.875 191.25L101.875 181.25L108.125 169.375L114.375 158.75L119.375 151.25L128.125 140L134.375 133.125L151.25 116.25L159.375 108.75L168.125 101.875L176.875 95.625L185 90.625L192.5 85L205 77.5L219.375 70.625L235 63.75L250.625 58.75L278.125 52.5L297.5 50L309.375 48.75L310 48.125L314.375 8.75L315 0ZM313.75 41.25L313.125 42.5L310.625 66.875L308.75 86.875L308.125 97.5L313.125 98.125L314.375 97.5L315 94.375L315.625 42.5L315 41.25H313.75ZM320.625 53.125V59.375L321.875 60L335 60.625L343.75 61.25L342.5 58.75L337.5 53.75L330.625 53.125H320.625ZM306.25 53.125L281.875 55.625L276.25 57.5L278.125 59.375L283.125 61.25H300L308.75 60L309.375 53.75L306.25 53.125ZM343.125 55L346.875 59.375L352.5 63.125L355 63.75H364.375L363.75 60L361.875 57.5L352.5 55.625L348.125 55H343.125ZM364.375 57.5L365.625 61.25L366.875 63.125L380.625 61.25L380 60L369.375 57.5H364.375ZM267.5 58.125L256.25 60L248.75 61.875V63.75L256.25 66.875L262.5 68.75L266.875 61.25L270 58.125H267.5ZM270.625 59.375L271.25 62.5L266.25 66.25L265.625 68.125L273.75 66.875L282.5 65L279.375 62.5L273.125 59.375H270.625ZM381.25 62.5L371.25 64.375L370 66.25L375.625 68.75H379.375L384.375 63.75V62.5H381.25ZM385.625 63.125L381.25 68.75V70L390.625 73.125H393.75L390.625 67.5L387.5 63.125H385.625ZM320.625 63.75V72.5L323.75 73.75L346.25 76.25L368.75 80L381.875 83.75L397.5 89.375L413.125 96.25L418.125 98.125L423.75 101.875L440.625 111.875L450 118.75L455.625 123.75L468.125 132.5L470.625 133.125L470 128.75L467.5 121.875L462.5 115L456.25 110L443.125 101.25L431.875 95L416.25 86.875L406.25 81.875L392.5 76.875L369.375 70L349.375 66.25L341.25 65L324.375 63.75H320.625ZM390.625 63.75L393.125 68.75L398.125 74.375L404.375 77.5L410.625 79.375L408.75 73.125L406.875 68.75L400.625 66.25L392.5 63.75H390.625ZM303.125 64.375L289.375 66.25L265 71.25L251.875 75L233.75 81.25L225.625 85L223.75 86.875V88.125H219.375L210 93.125L198.75 98.125L195 100.625L185 110L176.25 117.5L167.5 124.375L156.875 134.375L150 141.875L146.875 145L143.125 148.125V156.25L143.75 160.625L145 161.25L151.25 151.875L154.375 147.5L156.875 146.875L152.5 151.875L150.625 155V156.875L152.5 157.5H157.5L160 152.5L165.625 144.375L167.5 140.625L166.875 139.375L163.125 141.25L161.875 142.5L160.625 141.875L155 145.625L155.625 143.75L167.5 136.875L170 135.625L173.125 134.375L180 128.125L190 120.625L195.625 116.875L196.25 110.625L203.75 107.5L218.75 98.75L229.375 93.75L246.875 86.875L256.875 83.125L276.875 78.125L291.25 75.625L291.875 74.375V73.125L293.125 75L303.125 74.375L308.125 73.75L308.75 73.125L309.375 64.375H303.125ZM243.75 65.625L244.375 67.5V68.125H243.125L242.5 66.25L236.875 66.875L231.875 69.375L230 76.25V78.75L234.375 78.125L239.375 76.25V75L236.875 74.375L241.875 73.125L242.5 75L246.25 74.375L253.75 71.875L255 71.25V70H251.25V68.125L246.25 65.625H243.75ZM227.5 70.625L209.375 79.375L210.625 81.875L216.25 84.375H220L226.25 79.375L228.125 76.25L228.75 70.625H227.5ZM410 70.625L410.625 74.375L413.125 80.625L418.125 83.75L418.75 82.5L415.625 73.125L412.5 71.25L410 70.625ZM418.75 75L419.375 78.125L423.125 85.625L429.375 90L442.5 87.5L440.625 85.625L430.625 80L420 75H418.75ZM306.875 75L287.5 77.5L270 80.625L254.375 85L236.875 91.875L226.875 95.625L224.375 98.125L223.75 106.875L227.5 106.25L245.625 98.125L263.125 93.75L266.875 92.5L266.25 88.125L268.75 91.875L293.125 87.5L304.375 86.25L306.875 85.625L308.125 79.375V75H306.875ZM325.625 75.625V80.625L326.25 85L330.625 86.25L353.75 89.375L368.125 91.875L367.5 88.75L365 81.25L361.25 80L342.5 76.875L329.375 75.625H325.625ZM321.25 76.25L321.875 85.625H325L323.75 77.5L323.125 76.25H321.25ZM366.25 81.25L366.875 84.375L371.875 91.875L379.375 95L392.5 99.375L408.75 106.25L416.25 110H418.125L417.5 100L415 97.5L405 93.75L385.625 86.25L373.75 82.5L366.25 81.25ZM203.125 83.125L201.25 85L199.375 90L198.75 94.375L201.875 93.75L203.125 92.5L204.375 86.25V83.125H203.125ZM205 84.375L204.375 91.875L207.5 91.25L214.375 88.125V86.875L206.25 84.375H205ZM196.875 86.875L186.875 93.125L180.625 98.125V98.75H186.25L192.5 97.5L196.25 95.625L198.125 88.75V86.875H196.875ZM305 87.5L293.125 88.75L271.25 91.875L269.375 93.125L273.125 95.625L278.75 97.5L283.125 96.875L286.875 96.25H295L295.625 98.75L305 98.125L306.25 96.875L306.875 87.5H305ZM321.875 88.125V95.625L322.5 97.5H325.625L328.75 93.75L328.125 97.5H331.875V95L336.25 98.125L344.375 99.375V96.875L347.5 98.75L351.25 100.625L366.875 104.375H370.625L373.75 101.875L371.25 105L377.5 107.5H380L379.375 103.75L377.5 99.375L376.25 95.625L369.375 93.75L348.125 90L335 88.125H321.875ZM445 89.375L436.875 90.625L433.75 91.875L434.375 93.75L446.25 100L456.25 106.875L460 108.75L457.5 100L455.625 96.875L450 90L448.75 89.375H445ZM265.625 93.75L243.75 100L226.875 107.5L215.625 113.75L200.625 123.125L197.5 123.75V130L200.625 130.625L208.125 127.5L221.25 121.25L226.25 118.125L232.5 116.25L253.75 108.125L256.25 106.875L257.5 103.125L262.5 105.625H266.25L273.125 103.125L280.625 101.25L278.125 99.375L268.75 94.375L265.625 93.75ZM378.75 96.875L380 103.75L382.5 108.125L395.625 113.125L412.5 121.25L420.625 126.25L423.75 129.375L427.5 131.25L435 137.5L440 141.25L451.25 150.625L453.125 154.375L462.5 161.25L468.125 164.375H470.625L470 155.625L466.25 150.625L460.625 144.375L455 138.75L450 134.375L440.625 127.5L430 120.625H429.375L427.5 129.375H426.25L428.125 125L427.5 119.375L422.5 115L405.625 106.25L390.625 100L381.25 96.875H378.75ZM291.25 96.875L283.75 98.125V100H289.375L292.5 98.125V96.875H291.25ZM460.625 98.125L461.875 105L463.75 110L470.625 114.375L475 116.875L479.375 121.875L481.875 125L485 125.625L491.25 125L490 122.5L483.75 116.25L481.875 113.75H480.625V112.5L475.625 108.125L467.5 101.875L461.25 98.125H460.625ZM221.25 98.75L205.625 107.5L196.875 111.875V117.5L198.125 121.25L200.625 121.875L211.875 115L221.25 109.375L223.125 101.875V98.75H221.25ZM308.75 99.375L307.5 103.125L306.875 112.5V123.75L308.75 121.25L314.375 110L315 100L314.375 99.375H308.75ZM298.75 100L293.75 101.25L287.5 112.5L286.875 115H294.375L305 113.75L305.625 111.25L306.25 100.625L305.625 100H298.75ZM324.375 100L322.5 101.875L324.375 103.75L325.625 103.125V113.125L326.875 113.75L340.625 115.625H345L344.375 113.125L338.125 102.5L336.25 101.25L332.5 100.625H326.25L324.375 100ZM181.25 100.625L176.25 101.25L171.875 105V105.625L177.5 106.25L185.625 105.625L190.625 101.875L191.25 100.625H181.25ZM338.125 100.625L340.625 105L347.5 115.625L350.625 115L363.125 108.125V106.25L356.875 104.375L340 100.625H338.125ZM286.875 101.25L277.5 103.125L268.75 105.625L269.375 107.5L282.5 114.375L285 115L290 106.25L291.875 101.25H286.875ZM418.75 101.25L419.375 110.625L422.5 113.75L426.25 116.875H428.125L428.75 115V118.125L434.375 122.5L443.125 128.125L449.375 132.5L456.25 138.75L461.25 143.125L467.5 149.375L469.375 151.875H470.625V138.75L468.75 135.625L463.125 130.625L454.375 124.375L446.875 117.5L437.5 111.25L421.875 102.5L418.75 101.25ZM368.75 106.875L366.875 107.5L367.5 111.25L372.5 121.875L375.625 123.125L375 115L374.375 109.375H375.625V116.875L378.125 124.375L384.375 122.5L392.5 118.125L393.125 116.25L390.625 113.75L375 108.125L368.75 106.875ZM175.625 108.125L171.25 108.75V111.25L171.875 112.5H166.875L164.375 116.875L163.125 120.625L161.875 119.375L162.5 117.5L163.125 113.125L160 113.75L153.75 119.375L147.5 125.625V126.875L151.25 127.5H160.625L167.5 121.875L176.25 114.375L181.25 110V108.125H175.625ZM258.75 108.125L241.875 113.75L233.125 118.125L235 119.375L256.25 122.5L259.375 117.5L262.5 110V108.125H258.75ZM265 108.75L260 118.75L259.375 121.875L265.625 120.625L281.25 116.875L280.625 115L271.875 110L268.75 108.75H265ZM165.625 109.375L165 111.25H166.875L166.25 109.375H165.625ZM362.5 109.375L351.875 115L350 115.625L350.625 117.5L360 120L367.5 121.875H370.625L369.375 118.125L365 110L362.5 109.375ZM313.75 111.875L310.625 118.75L308.125 128.125L306.875 137.5L304.375 146.875L300.625 158.125L301.875 161.25L305 165L311.25 169.375H312.5L314.375 139.375V111.875H313.75ZM325.625 115V123.75L329.375 136.25L335 148.75L340 160L342.5 163.75L346.875 165.625L356.25 168.125L370 173.75L381.25 180L391.25 186.25L399.375 192.5L408.75 200.625L416.875 208.125L421.875 213.75L425 218.125L428.75 217.5L445 213.125L459.375 209.375L472.5 205L474.375 203.75L473.75 200.625L469.375 195L462.5 186.875L456.25 178.125L447.5 168.75L438.75 161.25L435.625 158.75L425 151.25L410.625 141.25L399.375 134.375L391.25 130.625L374.375 125L361.875 121.25L340.625 116.875L325.625 115ZM395 115L395.625 120L398.125 127.5L399.375 129.375L406.875 128.125L415.625 126.25L412.5 123.125L403.125 118.125L396.25 115H395ZM302.5 115L295.625 116.25L285 117.5L270 120.625L248.125 127.5L236.25 131.875L224.375 138.125L211.875 145L205 150L200.625 154.375L192.5 160.625L183.75 168.125L180 171.25L175 180L170.625 185L165 192.5L158.125 201.875L158.75 203.75L167.5 207.5L178.75 211.25L189.375 213.75L200.625 217.5L203.75 216.875L210.625 208.125L215.625 203.125L220.625 198.75L222.5 197.5V196.25L225 195L230 190L243.125 181.25L243.75 179.375L248.125 178.75L261.875 171.875L271.25 168.125L286.25 165L291.25 156.875L299.375 141.25L303.75 131.25L305.625 126.25L305 115H302.5ZM323.125 115.625L322.5 116.875L323.125 121.875H323.75V115.625H323.125ZM194.375 119.375L188.75 123.125L185.625 126.875L178.75 135.625L171.25 141.25L168.125 144.375L163.125 150L159.375 155.625L158.125 160.625L156.25 158.75H150L146.25 163.125L145 165.625V167.5H155L160.625 165L167.5 160.625L175.625 153.125L183.125 145.625L187.5 140.625L196.25 133.125L195.625 119.375H194.375ZM391.875 119.375L380.625 125L382.5 126.875L396.25 131.25L397.5 130.625L396.25 125L393.75 119.375H391.875ZM469.375 119.375L470.625 126.25L473.125 132.5L477.5 137.5L481.875 141.875L486.25 146.875L488.75 148.125V149.375L490.625 150L492.5 143.75V140.625L485 132.5L479.375 126.875L472.5 121.25L469.375 119.375ZM230 120.625L226.875 123.125L223.75 134.375V135.625L227.5 135L236.875 130.625L249.375 126.25L253.75 123.75V123.125L234.375 120.625H230ZM225 121.25L221.875 124.375L220 130.625V136.25H221.875L224.375 129.375L226.25 123.125V121.25H225ZM220.625 123.125L206.875 129.375V130.625L213.125 134.375L216.875 136.25H218.125L221.25 125L220.625 123.125ZM490.625 126.875L485 128.75L487.5 132.5L491.875 136.25L495 138.125V141.25H496.875L497.5 139.375L501.25 138.125L498.125 141.25L499.375 144.375L502.5 147.5L513.125 150.625L515.625 151.25L511.875 146.25L501.875 135.625L496.25 129.375L493.75 126.875H490.625ZM416.25 126.875L404.375 129.375L401.25 130.625L400.625 132.5L411.25 136.875L410 138.75L418.125 145L420.625 145.625V139.375L418.75 128.75L416.875 126.875H416.25ZM306.875 128.125L301.875 137.5L296.875 148.75L281.875 176.25L276.875 184.375V186.25L283.75 184.375L287.5 177.5L291.875 171.25L297.5 162.5L300 156.25L306.25 136.25L307.5 130.625L306.875 128.125ZM181.25 128.75L173.75 136.25H175.625L182.5 129.375L181.25 128.75ZM150.625 129.375V130H154.375V129.375H150.625ZM421.25 130L421.875 143.125L423.125 146.25H441.875L440.625 143.75L431.25 136.875L424.375 131.875L421.25 130ZM201.875 130.625L198.75 132.5L199.375 141.25L201.25 148.125L202.5 148.75L208.125 145L210 143.125L216.875 140.625L218.75 138.75L213.75 135L204.375 131.25L201.875 130.625ZM141.875 131.25L135.625 136.875L129.375 144.375L126.25 149.375L126.875 150.625L135.625 148.125L138.75 145L140.625 140.625L142.5 133.125L141.875 131.25ZM144.375 131.875L141.875 140V145.625L145 144.375L150.625 139.375L155 133.75V132.5L144.375 131.875ZM196.25 135L190 140L185.625 145L186.875 146.25L193.75 148.125H198.75L198.125 140.625L196.875 135H196.25ZM407.5 136.875L410 138.125L409.375 136.875H407.5ZM472.5 136.875L473.75 140L478.75 146.25L485 156.25L487.5 160H488.125L489.375 154.375V150L482.5 145L476.875 139.375L473.75 136.875H472.5ZM321.875 139.375L321.25 141.25L320.625 149.375V166.25L321.25 166.875H324.375L321.875 170L322.5 176.875L323.125 178.125L325 178.75L340 180.625L346.875 181.25L346.25 178.75L337.5 165L333.75 161.875H332.5L331.875 158.75L326.875 150L323.125 139.375H321.875ZM471.25 140V153.75L473.125 157.5L480.625 156.25L482.5 155.625L481.25 151.875L476.25 144.375L472.5 140H471.25ZM495 143.75L493.125 148.125L493.75 151.875L503.75 166.875L510.625 178.75L516.875 190L519.375 190.625L525 190L522.5 191.25L518.125 191.875L520 196.25L523.125 201.25L525.625 204.375L527.5 206.25L531.25 208.125H533.75L533.125 204.375L528.125 193.125L524.375 183.125L518.125 171.875L511.875 163.75L505 155L499.375 148.75L495.625 143.75H495ZM186.25 147.5L185.625 148.125L186.25 161.875L187.5 162.5L200 152.5L199.375 150L186.25 147.5ZM431.25 147.5L425.625 148.75L428.75 152.5L436.25 157.5L443.75 156.25L449.375 155L450 153.125L446.25 148.75L443.125 147.5H431.25ZM182.5 148.125V149.375H181.25L176.875 154.375L174.375 157.5L175.625 158.125H183.75L184.375 157.5V150.625L183.75 148.125H182.5ZM137.5 148.75L125.625 153.125L123.75 168.75L116.875 174.375L110.625 182.5L107.5 186.875L106.25 191.25L106.875 199.375L104.375 205L95.625 231.25L93.75 240.625L98.125 245.625L100.625 248.125H101.875L104.375 238.125L109.375 216.875V208.75L107.5 207.5L109.375 205L112.5 196.25L116.25 186.25L121.875 174.375L126.25 167.5L130.625 161.25L135 154.375L138.75 149.375L137.5 148.75ZM504.375 150L505.625 152.5L510 158.125L515.625 164.375L517.5 165.625H524.375L523.75 163.125L521.25 160.625H518.75L519.375 158.125L516.875 155L510.625 151.875L504.375 150ZM139.375 150.625L133.75 159.375L129.375 166.25L123.125 176.25L115.625 191.875L111.25 203.75L110.625 207.5L111.875 213.125L115.625 211.25L119.375 208.125L121.875 202.5L126.875 192.5L133.125 181.25L140 170.625L138.125 167.5L140.625 168.125L141.875 166.875V158.125L140.625 150.625H139.375ZM491.875 151.875L490 157.5L489.375 160.625V165L494.375 173.75L500 182.5L505.625 194.375L510.625 205.625L515.625 215.625L518.75 216.25L522.5 211.875L523.125 207.5L521.25 201.875L510.625 181.875L503.75 169.375L493.125 153.125L491.875 151.875ZM122.5 155L118.125 160L112.5 168.75V170.625L118.75 169.375L122.5 166.25L123.125 163.125V155H122.5ZM448.125 155.625L438.75 157.5L440 160L445 165L449.375 165.625L460 164.375L461.25 163.125L458.125 160L453.125 156.875L450.625 155.625H448.125ZM481.25 156.875L472.5 159.375L471.875 161.25L473.75 165.625L475.625 166.875L480.625 167.5H487.5L486.875 164.375L483.75 158.125L481.25 156.875ZM172.5 158.75L166.875 163.75L161.875 166.25L158.125 170.625L152.5 177.5L150 182.5V185L155.625 184.375L165 181.875L170 179.375L171.25 174.375V168.125L169.375 166.25L167.5 165.625L183.75 166.25L184.375 165.625V159.375L183.75 158.75H172.5ZM315.625 161.875L315 163.75V168.75L316.875 168.125L316.25 161.875H315.625ZM464.375 165L460.625 168.75L459.375 175L460.625 177.5L467.5 180.625L472.5 181.25L476.875 183.125L485 185L484.375 182.5L478.125 174.375L472.5 168.125L467.5 165H464.375ZM345 166.25L345.625 169.375L351.875 181.25L355.625 185.625L371.875 194.375L380.625 200L391.25 206.875L398.125 212.5L410.625 225L414.375 224.375L425 218.75L421.25 214.375L412.5 205.625L411.875 207.5L415 215L410 205L403.125 197.5L395 190L385.625 183.75L378.75 179.375L368.75 174.375L358.75 170L350 166.875L345 166.25ZM518.125 166.25L519.375 168.75L523.75 175L531.25 193.125L536.875 206.25L540.625 208.75L545.625 209.375L543.75 203.75L537.5 189.375L530.625 176.25L525.625 169.375L522.5 167.5L518.125 166.25ZM283.75 166.25L275 168.125L263.75 171.875L250 178.75L243.75 183.125L232.5 189.375L226.875 193.75L219.375 201.25L214.375 205.625L206.875 213.75L204.375 217.5L205 219.375L216.875 225L220.625 225.625L225.625 220L230 215L238.75 206.25L249.375 199.375L258.75 193.75L268.75 188.125L275 184.375L278.75 180L284.375 168.125L283.75 166.25ZM455.625 166.25L448.75 166.875L450 169.375L453.125 173.125L456.25 176.25H458.75L460 166.25H455.625ZM175.625 167.5L176.25 169.375H178.125V167.5H175.625ZM143.125 168.75L138.75 174.375L132.5 185L125 198.75L122.5 204.375V210.625L123.75 213.125L128.125 209.375L136.25 200L140 194.375L142.5 189.375L148.125 182.5L155 170L153.125 168.75H143.125ZM478.125 168.75L479.375 171.875L486.875 181.875L490 187.5L492.5 189.375L491.875 191.875L495 196.25L498.75 195L499.375 191.875L500 195L496.25 198.125L501.875 211.25L502.5 213.125L510 215L512.5 214.375L503.125 193.75L500 186.25L495.625 178.75L491.875 172.5L488.75 169.375L487.5 168.75H478.125ZM174.375 170L173.125 174.375V177.5L176.25 174.375V171.25L174.375 170ZM308.75 170L310 171.25V170H308.75ZM311.25 170.625L310 173.125L308.75 176.25L310.625 175.625L312.5 171.25L311.25 170.625ZM111.25 173.75L108.125 177.5L107.5 180.625L110 179.375L113.125 176.25L113.75 173.75H111.25ZM305 176.25L290 178.75L289.375 180H295.625L306.875 177.5L308.75 176.25H305ZM460.625 181.25L464.375 187.5L468.75 191.875L471.875 193.75H473.125L472.5 188.75L470.625 184.375L464.375 181.875L460.625 181.25ZM170.625 181.25L160.625 184.375L158.75 185.625L159.375 188.75H164.375L167.5 186.875L171.875 181.875L170.625 181.25ZM473.125 183.75L473.75 190L476.25 195.625L478.75 198.125L486.875 190L486.25 187.5L481.875 185.625L473.125 183.75ZM103.75 186.25L98.75 196.25L93.125 209.375L95.625 210L99.375 207.5L101.25 205L103.75 198.125L105.625 189.375V186.25H103.75ZM154.375 186.25L150 187.5L149.375 188.75L151.25 192.5L153.75 191.25L156.875 188.75V186.25H154.375ZM145.625 187.5L141.875 192.5L143.125 195L148.75 198.75L151.875 201.25L153.125 200.625L149.375 193.125L146.875 187.5H145.625ZM159.375 189.375L157.5 194.375L156.25 201.25L159.375 198.75L163.75 192.5L164.375 189.375H159.375ZM487.5 190.625L483.125 195.625L479.375 199.375L480 201.25L485.625 199.375L491.25 196.25L490 192.5L488.75 190.625H487.5ZM155.625 190.625L151.875 193.75L153.125 197.5L155 198.125L156.25 194.375V190.625H155.625ZM140.625 195.625L136.25 201.25L130.625 207.5L130 209.375L131.875 210H136.875L141.25 208.75L144.375 201.25V198.125L140.625 195.625ZM474.375 197.5L475.625 201.25L477.5 201.875L476.875 199.375L474.375 197.5ZM493.125 198.75L483.75 203.125L480.625 204.375L481.875 206.875L486.25 209.375L499.375 211.25L497.5 205L494.375 199.375L493.125 198.75ZM146.25 201.25L143.125 208.125L140.625 214.375L139.375 216.875L140 219.375L144.375 228.125L146.25 225.625L150.625 213.75L153.125 208.125V205.625L150.625 204.375L149.375 201.875L146.25 201.25ZM476.875 206.875L472.5 211.875L465 223.125L459.375 232.5L453.125 244.375L450 251.875V256.875L453.125 275.625L455 278.75L466.875 281.875L488.125 286.25L496.25 287.5H499.375V280.625L496.875 258.125L493.125 240L490.625 235L488.75 225.625L485.625 217.5L481.25 208.75L479.375 206.875H476.875ZM525.625 206.875L526.875 216.875L528.125 224.375L532.5 241.25L536.25 265L538.125 287.5L538.75 288.125H547.5L546.875 267.5L545 250L542.5 249.375L543.125 248.75L544.375 246.25L541.25 231.875L535 210.625L533.75 209.375L527.5 207.5L525.625 206.875ZM155 207.5L150 218.75L145 233.75L139.375 252.5L137.5 261.25L135.625 273.75L135 286.25L141.25 285.625L165 281.875L174.375 280L175.625 279.375L178.75 263.75L181.25 253.75L180.625 251.25L163.125 216.25L158.125 208.75L156.875 207.5H155ZM119.375 208.75L115.625 213.75H112.5L110.625 218.75L103.75 246.25L100.625 267.5L99.375 276.875L98.75 287.5L100 288.125L108.75 287.5L109.375 286.875L112.5 256.25L116.875 238.75L120.625 228.75L121.25 223.75L119.375 220H120H121.875V215L120.625 208.75H119.375ZM470.625 209.375L460.625 214.375L444.375 223.125L438.75 225L440 228.75L442.5 232.5L445.625 231.25L451.875 225.625L459.375 218.125L461.25 217.5L455 223.125L448.75 230L443.125 234.375L443.75 238.125L448.75 249.375L450.625 247.5L453.75 240L461.875 225L468.125 215.625L471.875 209.375H470.625ZM98.125 210L93.125 212.5L91.25 215.625L88.75 223.75V226.875L91.875 225.625L99.375 211.25V210H98.125ZM163.125 210L166.875 214.375L172.5 219.375H173.75V220.625L178.75 225L188.125 234.375L190 233.75L194.375 225.625L189.375 222.5L168.125 211.25L165 210H163.125ZM128.125 210.625L124.375 213.75V216.875L130.625 218.125H135.625L138.125 215.625L140 211.25L139.375 210.625H128.125ZM485 210.625L486.875 216.25L490.625 226.875L492.5 226.25L498.75 216.25L500 213.75L496.875 212.5L488.75 210.625H485ZM538.75 210.625L541.25 221.875L545 235.625L548.125 241.875L550.625 245L551.25 247.5L549.375 249.375V263.75H551.875H552.5L550 266.25L550.625 285.625L551.25 288.75H557.5L558.125 273.125L557.5 263.75L556.25 260V258.125L555.625 249.375L553.125 236.25L548.125 216.25L546.25 212.5L541.875 210.625H538.75ZM182.5 213.125L183.125 214.375L190 216.875L192.5 216.25L183.75 213.125H182.5ZM524.375 213.125L520 216.25L521.25 217.5L524.375 218.75L526.25 218.125L525 213.125H524.375ZM163.75 213.75L165 217.5L175.625 239.375L180.625 250L182.5 249.375L187.5 238.125L186.875 235L169.375 217.5L163.75 213.75ZM442.5 215L435 217.5L433.75 218.75L438.75 218.125L444.375 215.625L442.5 215ZM502.5 215.625L501.875 218.125L506.25 228.125L508.125 227.5L513.125 220.625L514.375 217.5L513.75 216.875L502.5 215.625ZM194.375 217.5L195.625 218.75L198.125 218.125L194.375 217.5ZM308.125 218.125L300 219.375L287.5 223.125L278.75 227.5L270.625 233.125L265 237.5L258.75 244.375L252.5 253.75L246.875 265.625L243.125 277.5L242.5 285.625V299.375L243.75 308.75L248.75 323.75L254.375 334.375L262.5 344.375L268.125 349.375L279.375 356.875L290.625 361.875L298.75 364.375L309.375 365.625H321.875L330.625 364.375L343.125 360.625L353.125 355.625L361.25 350L369.375 343.125L374.375 336.875L380 326.25L384.375 315.625L386.875 306.875L388.125 296.25V289.375L386.875 280L383.125 266.875L377.5 254.375L372.5 245.625L365.625 238.125L356.875 231.25L347.5 225.625L336.875 220.625L329.375 218.75L322.5 218.125H308.125ZM500 218.125L496.875 221.875L491.25 230.625L491.875 234.375L495 237.5L507.5 245.625L509.375 246.25L507.5 239.375L501.875 222.5L499.375 223.125L501.25 220L500.625 218.125H500ZM515 218.125L516.25 226.875L520.625 242.5L523.75 256.25L528.125 260L524.375 258.75L526.25 276.875L526.875 288.125H535.625V275.625L535 266.25L534.375 262.5L532.5 248.75L530 237.5L526.25 221.875L524.375 220L521.25 218.75L515 218.125ZM123.75 219.375L123.125 223.125L128.125 233.75L129.375 234.375L133.75 223.125L134.375 220H126.875L123.75 219.375ZM136.875 220.625L133.75 227.5L128.75 243.75L129.375 245.625L133.125 243.125L141.25 240L143.75 235L144.375 231.875L139.375 221.875L136.875 220.625ZM345 221.25L346.875 223.125L353.75 226.875L355 226.25L350.625 223.125L346.875 221.25H345ZM512.5 223.75L509.375 226.875L507.5 229.375L508.125 235.625L509.375 238.75L511.875 236.25L514.375 230.625L513.75 224.375L512.5 223.75ZM195 225.625L190 235.625L194.375 240.625L200 246.25L205 254.375L206.875 255L213.75 239.375L214.375 236.25L201.25 228.125L196.875 225.625H195ZM436.25 226.25L426.25 231.25L419.375 235.625L421.25 241.25L424.375 248.125L425.625 248.75L430 243.75L435 238.75L440 235L440.625 233.125L438.125 226.25H436.25ZM123.125 226.875L120 234.375L116.875 243.75L115 250.625V254.375L122.5 250.625L125.625 247.5L126.875 243.75L127.5 240L126.25 238.125H128.125L127.5 234.375L123.75 226.875H123.125ZM217.5 228.75V230L218.75 229.375L217.5 228.75ZM357.5 228.75L360.625 231.875L369.375 239.375L375 246.875L375.625 245.625L370.625 238.125L365 233.75L359.375 228.75H357.5ZM92.5 228.75L91.25 231.875L88.125 230.625H86.25L83.125 243.75L81.25 258.75L80 276.25L80.625 288.75H84.375L85 285.625L86.875 266.25L89.375 249.375L91.25 239.375V233.125H92.5L93.75 228.75H92.5ZM515 231.25L511.25 238.75L510.625 239.375V243.75L512.5 248.125L518.75 253.75L521.25 254.375L519.375 243.75L516.25 232.5L515 231.25ZM440.625 236.25L433.75 241.875L425.625 250L426.25 254.375L428.125 258.75L428.75 267.5L430 273.75L431.25 274.375L431.875 284.375L433.125 286.25V273.75L435.625 274.375L436.875 276.25L437.5 289.375L438.125 290H453.125V282.5L451.25 267.5L448.75 258.75L446.25 260L440.625 269.375L438.125 271.875L446.25 258.75L447.5 256.25V250.625L443.125 238.75L441.875 236.25H440.625ZM189.375 236.875L187.5 240L182.5 253.125L180 261.875L177.5 276.875L178.125 279.375L176.25 280.625L175.625 287.5L175 281.25L169.375 281.875L156.875 284.375L143.75 286.875L135 288.125L133.75 289.375L134.375 290H191.875V275.625L193.125 274.375L195.625 262.5L199.375 253.125L201.875 251.25L200.625 248.125L195 241.875L190 236.875H189.375ZM494.375 239.375L495 244.375L498.125 258.75L498.75 260H500L505.625 251.875L508.125 248.75L503.125 245L495 239.375H494.375ZM93.75 242.5L91.875 249.375L89.375 266.25L88.125 288.125H96.25L97.5 284.375L100 262.5L101.25 254.375V249.375L96.25 245L93.75 242.5ZM138.75 242.5L131.25 245.625L128.75 246.875L128.125 249.375L130 251.875L127.5 250.625L126.25 254.375L125.625 264.375L127.5 267.5L133.125 272.5H134.375L136.25 261.875V257.5L132.5 253.75L135 255.625L137.5 255L140.625 243.75V242.5H138.75ZM375.625 246.875L376.875 250L377.5 248.75L375.625 246.875ZM509.375 250L504.375 255.625L499.375 262.5L500 272.5L501.25 273.125L506.25 268.75L511.25 263.75L512.5 261.875V253.125L511.25 250.625L509.375 250ZM123.125 251.25L113.75 256.25V258.75L121.875 263.75H123.125L124.375 251.25H123.125ZM378.125 251.25L378.75 253.125V251.25H378.125ZM513.75 252.5V260L517.5 258.75L520.625 256.25L515.625 253.125L513.75 252.5ZM200 255L197.5 260L195 269.375V275.625V276.875L194.375 281.25V290H201.25L203.125 269.375L205.625 259.375L205 256.875L201.875 255H200ZM381.875 258.125V260L383.125 259.375L381.875 258.125ZM520 258.75L513.75 263.125V272.5L515 288.125H524.375V280L523.75 268.125L522.5 259.375L520 258.75ZM113.125 260L111.875 275L111.25 287.5H120L121.25 284.375L122.5 268.125L121.25 265L114.375 260H113.125ZM511.25 266.25L504.375 272.5L500.625 275.625L501.875 287.5L502.5 288.125H512.5V276.25L511.875 266.25H511.25ZM124.375 267.5L123.75 273.75V286.25H132.5L133.75 274.375L130.625 273.75L128.75 274.375V273.125L130.625 272.5L125.625 267.5H124.375ZM243.125 267.5L241.875 270.625L242.5 273.125L243.75 267.5H243.125ZM241.25 274.375L240 277.5L240.625 280L241.875 274.375H241.25ZM73.125 278.75L55.625 282.5L40.625 285.625L32.5 288.125V288.75L43.75 290L73.125 291.25L74.375 285V278.75H73.125ZM565 279.375L564.375 280L563.75 286.875L562.5 288.125V290L586.875 290.625L605.625 290L606.875 288.75L591.25 284.375L565 279.375ZM454.375 280V290H491.875L492.5 288.75L471.875 283.75L454.375 280ZM80 290L79.375 291.25H85L84.375 290H80ZM98.75 290L98.125 291.25H122.5V290H98.75ZM389.375 290V291.25L390.625 290.625L389.375 290ZM499.375 290L498.75 291.25H547.5V290.625L511.875 290H499.375ZM95.625 290L87.5 290.625V291.25H96.25L95.625 290ZM440 293.75L439.375 294.375V301.25H443.125L442.5 302.5L435 305L432.5 307.5L433.125 312.5L438.75 325.625L442.5 331.875L445 335H446.25L450.625 321.875L453.125 304.375V297.5L458.75 296.25L460 295.625V294.375L457.5 293.75H440ZM102.5 295L98.75 295.625L99.375 310L100.625 320.625L101.25 321.25H109.375L111.875 320L110 296.25L109.375 295H102.5ZM112.5 295L111.875 295.625L112.5 316.25L113.125 319.375L116.25 318.75L120 315.625L121.25 312.5L121.875 303.125L123.125 298.125V295H112.5ZM124.375 295L123.75 296.25L123.125 307.5L121.875 315.625L115 320L113.75 320.625L114.375 326.875L118.75 347.5L120.625 354.375V356.875L118.125 351.25L114.375 335.625L112.5 324.375L111.25 321.875H101.875L101.25 322.5L101.875 329.375L105.625 348.75L110 365.625L111.25 371.875L111.875 377.5L116.875 390L123.75 401.875L128.75 409.375L134.375 416.875L140.625 425L145.625 432.5L147.5 433.75L148.125 420L142.5 413.125L136.25 403.75L127.5 388.125L123.125 382.5L118.75 381.25L117.5 378.125L116.875 376.25L119.375 375.625L122.5 371.875L126.875 359.375L128.125 356.25L127.5 362.5L124.375 371.25L125 373.125L132.5 374.375H140L139.375 371.25L132.5 356.25L128.75 345L126.875 335L125 333.125L116.875 328.75L116.25 327.5L121.875 329.375L125 330.625L125.625 327.5V318.75L131.25 311.875L133.75 309.375L132.5 295.625L131.875 295H124.375ZM135 295L134.375 296.875L136.25 313.75L140 333.125L145 351.875L148.125 361.25L153.125 374.375H155L161.25 367.5L169.375 356.25L175.625 346.875L181.875 338.125L183.75 335L180 321.875L177.5 310L175.625 297.5L175 295.625L147.5 295H135ZM190 294.375L178.125 295L176.875 296.25L178.75 311.25L181.875 325L184.375 332.5H185.625L193.125 318.75L194.375 315.625V308.75L191.875 295L190 294.375ZM199.375 295L198.75 295.625L198.125 304.375L197.5 298.125L196.25 300L195.625 312.5H196.875L201.25 306.875V301.25L200.625 295H199.375ZM390 295L389.375 304.375L390.625 303.75V295H390ZM501.25 295L500.625 295.625V301.25L507.5 309.375L511.25 314.375H511.875L512.5 310L513.125 298.125L513.75 297.5L513.125 311.25L512.5 323.75L515 326.25L521.875 324.375L523.75 312.5L524.375 295.625L511.25 295H501.25ZM539.375 295L538.75 295.625L536.25 317.5L531.875 339.375L524.375 367.5L520 378.75L521.25 381.875L523.125 385L523.75 390L525.625 387.5L530 377.5L535 364.375L542.5 341.875L544.375 334.375L546.875 314.375L547.5 303.75V295H539.375ZM551.875 295L551.25 295.625L549.375 322.5L548.125 331.25L552.5 334.375H553.75L555 329.375L558.125 306.875L558.75 295.625L556.875 295H551.875ZM80.625 295.625L80 296.25V313.75L81.875 331.25L84.375 345L86.25 348.125L91.25 348.75L90 340L86.875 323.75L85.625 315.625L85 314.375H82.5L84.375 311.875L85 296.25L84.375 295.625H80.625ZM88.125 295.625V305.625L89.375 322.5L92.5 339.375L95.625 352.5L100 362.5L103.75 370.625L108.75 370L109.375 368.125L106.875 357.5L103.125 342.5L98.75 317.5L97.5 298.75L96.875 295.625H88.125ZM485.625 295.625L455 298.75L454.375 299.375L453.125 311.875L450.625 325.625L446.875 336.25L448.125 339.375L455 350.625L461.875 360.625L467.5 368.125L472.5 374.375L476.25 377.5L478.125 376.875L483.125 368.125L487.5 356.875L494.375 329.375L497.5 313.75L499.375 295.625H485.625ZM530 295L526.25 295.625L524.375 322.5L525.625 323.75L523.75 324.375L519.375 342.5L511.875 365.625L513.125 368.75L518.75 373.75L520.625 373.125L523.75 365.625L526.875 353.75L531.25 336.25L535 318.125L536.25 300V295.625L535 295H530ZM564.375 296.25L563.75 296.875V300L565.625 300.625L575.625 298.125L580 296.875V296.25H564.375ZM66.25 297.5L66.875 299.375L73.75 301.25L74.375 300L73.125 297.5H66.25ZM240 303.125V307.5L240.625 308.75H241.875L241.25 303.75L240 303.125ZM430.625 303.75V308.75L431.875 306.25L433.75 304.375L430.625 303.75ZM500 304.375L498.75 313.125V318.125L504.375 328.75L505.625 330.625L508.75 330L511.875 328.125L511.25 320.625L510.625 315L505.625 308.75L501.25 304.375H500ZM200.625 308.75L196.875 313.125L191.875 323.75L185.625 333.125L185 336.25L188.125 345L190.625 346.25L196.25 340.625L200.625 335.625L206.25 328.75L205.625 324.375L202.5 313.125L201.875 308.75H200.625ZM430 309.375L424.375 326.875L423.125 330.625L423.75 333.75L433.75 343.75L438.75 347.5L440.625 348.125L445 339.375V336.25L440.625 331.25L435.625 321.25L431.875 311.25L431.25 309.375H430ZM133.125 311.875L128.75 316.875L127.5 320.625V325.625L128.125 328.125L128.75 331.25L134.375 329.375L136.875 328.125L136.25 321.875L135 321.25L131.25 324.375L135 320V315L134.375 311.875H133.125ZM241.875 311.875L242.5 316.25L245.625 326.25L250.625 335L257.5 343.125L267.5 353.125L268.75 352.5L265 348.125L260 343.75L254.375 337.5L248.75 327.5L245 318.75L242.5 311.875H241.875ZM498.125 321.25L495.625 330.625L494.375 335.625V338.125L499.375 337.5L505.625 335L504.375 331.875L498.75 321.25H498.125ZM520 325.625L508.125 332.5V333.75L510.625 334.375L519.375 330.625L521.25 328.125V325.625H520ZM136.25 329.375L129.375 333.125V335L134.375 338.75L138.75 341.25H140L139.375 336.25L138.125 330L136.25 329.375ZM206.25 330L201.25 335.625L195.625 342.5L191.25 346.25L190.625 348.75L196.875 357.5L202.5 355.625L215 348.75L214.375 345.625L209.375 334.375L207.5 330H206.25ZM518.75 331.25L512.5 335L513.125 338.75L516.25 345L517.5 343.75L520 333.75V331.25H518.75ZM547.5 335L545 341.25L537.5 363.75L534.375 372.5L538.125 371.875L543.125 368.75L546.875 360L550 350L552.5 340L551.875 336.875L547.5 335ZM421.875 335.625L416.25 346.25L413.75 349.375V351.25L428.75 358.125L445 366.25L457.5 371.875L464.375 374.375H466.25L465 371.875L458.125 366.25L451.25 360L445 355L438.125 348.75L431.25 343.75L423.125 335.625H421.875ZM505.625 336.25L493.75 340.625L490 351.875L488.75 356.875L489.375 359.375L491.25 358.75L488.125 361.25L486.875 364.375L496.25 363.125L498.125 360.625L500.625 355L507.5 338.125L508.125 336.25H505.625ZM129.375 337.5L130 343.75L132.5 351.25L133.75 353.75L140 355H144.375L141.875 345L139.375 342.5L132.5 338.75L129.375 337.5ZM510 337.5L506.875 343.75L503.75 351.875V353.125L509.375 351.25L512.5 350L511.875 351.875L502.5 355L500.625 358.125L496.875 370.625L493.125 378.125V379.375L495.625 378.125L499.375 376.875L505 376.25L507.5 373.75L510 368.125L511.875 360.625L515.625 348.75V345L511.25 337.5H510ZM183.125 338.125L176.875 346.875L167.5 360.625L162.5 367.5L158.125 372.5H160L167.5 366.25L173.125 361.875L181.875 354.375L187.5 348.75L186.875 344.375L183.75 338.125H183.125ZM445.625 339.375L441.25 347.5V349.375L450.625 358.125L457.5 363.75L465.625 370.625V368.75L460.625 361.875L455 352.5L446.25 339.375H445.625ZM188.75 349.375L180.625 357.5L173.75 363.125L163.75 370.625L161.25 373.75L165.625 373.125L175 369.375L185 364.375L195.625 358.75V356.875L190.625 350L188.75 349.375ZM86.25 350L87.5 352.5L91.25 355H93.75L92.5 351.875L90.625 350.625L86.25 350ZM214.375 353.125L197.5 360L184.375 366.875L186.25 367.5L191.875 365.625L205 363.75L223.75 362.5L221.25 358.125L217.5 353.125H214.375ZM134.375 354.375L135 358.125L136.875 361.25H146.25L145 357.5L139.375 355L134.375 354.375ZM88.125 356.25L88.75 360L93.125 372.5L97.5 381.875H98.75L99.375 385L102.5 390.625H103.75V384.375L103.125 376.25L101.25 378.125L100 381.25L100.625 376.25L101.875 373.75V370L97.5 361.875L95 358.75L88.125 356.25ZM407.5 361.25L398.75 370.625L393.125 375.625L386.25 380.625L376.875 386.875L361.875 396.25L352.5 402.5L348.75 408.75L349.375 410L355 403.125L356.875 402.5L348.125 413.125L346.25 415.625V416.875H351.25L368.125 411.25L378.125 406.25L386.875 401.25L393.75 397.5L395 394.375L399.375 392.5L407.5 385L413.75 379.375L418.125 374.375L422.5 370L425 366.25V365H423.125L422.5 363.75V365H421.25V363.75H413.75L408.75 361.25H407.5ZM137.5 362.5L139.375 368.125L143.75 378.125L145.625 380.625L149.375 379.375L152.5 376.25L151.875 373.75L147.5 363.75L146.25 362.5H137.5ZM224.375 363.125L223.75 363.75L207.5 365L208.75 368.75L214.375 375.625L229.375 390.625L238.125 397.5L246.25 402.5L257.5 408.75L265 412.5L279.375 416.875H281.875L280.625 413.75L273.75 406.25L270.625 401.25L273.75 403.75L280.625 412.5L286.25 419.375L292.5 430L296.25 436.875L303.75 452.5L305 453.125L303.75 447.5L300 435L296.875 425.625L292.5 417.5L288.75 411.25L285 404.375L282.5 402.5L276.875 400.625L272.5 399.375L266.25 395L250.625 385L238.125 376.25L225 363.125H224.375ZM428.125 364.375L427.5 366.25L425.625 366.875L420.625 373.125L410.625 383.75L405.625 388.75L398.125 394.375L391.875 399.375L376.25 408.125L363.75 413.75L355 416.25L350 417.5L344.375 418.125L340.625 423.75L331.875 441.875L322.5 460L320 468.125V469.375H328.75L338.75 468.125L346.25 466.875L362.5 464.375L380.625 458.75L399.375 451.25L415 443.125L428.125 435L436.25 428.75L445.625 420L451.25 415.625L455.625 410L460.625 404.375L463.125 400.625L467.5 395L474.375 383.75L475 381.875L472.5 380L439.375 367.5L430.625 364.375H428.125ZM491.25 364.375L485.625 366.875L478.75 378.125V380L484.375 383.125L487.5 385.625H488.75L488.125 391.875L486.25 395H481.25L467.5 398.75L463.75 401.875V403.125L468.125 405L471.875 405.625H476.875L482.5 399.375L484.375 398.125L485.625 411.875L487.5 410L493.75 398.75L497.5 392.5L503.125 381.25V379.375L497.5 380L488.125 383.75L489.375 380.625L493.125 375L495 373.125L496.25 366.875V364.375H491.25ZM203.75 365L189.375 368.125L180 371.25L174.375 372.5L156.875 378.125L156.25 379.375L162.5 389.375L168.75 398.125L175.625 406.875L182.5 415L190 421.875L198.75 429.375L205.625 435.625L216.25 442.5L224.375 447.5L230.625 451.25L251.875 460L270 465.625L278.75 467.5L289.375 468.75L306.875 470L307.5 466.875L305.625 460L300 448.125L293.125 433.75L285.625 420.625L283.125 418.125L266.875 413.75L256.875 409.375L243.125 401.875L236.875 398.125L235 397.5L231.25 393.125L226.25 388.75L216.875 380L213.75 376.875L206.875 368.75L204.375 365H203.75ZM510.625 368.75L509.375 373.125L511.875 373.75L506.25 377.5L501.25 387.5L495.625 398.125L488.125 410.625L486.875 413.125V425L487.5 429.375L489.375 427.5L493.125 420.625L501.25 409.375L510 394.375L518.125 379.375L518.75 375.625L513.75 371.875L511.875 368.75H510.625ZM108.125 371.25L105 372.5L104.375 375.625L105 379.375V393.125L111.875 404.375L114.375 411.875L119.375 418.75L124.375 424.375L126.25 426.25L133.125 428.75L130 429.375V431.875L136.875 434.375L144.375 435.625L143.125 432.5L135 422.5L127.5 411.875L121.25 401.875L115.625 391.875L110.625 378.75L109.375 371.875L108.125 371.25ZM539.375 372.5L535.625 374.375L536.25 377.5V379.375L534.375 377.5L532.5 378.125L526.875 390L520 403.75V405L523.125 404.375L527.5 399.375L533.125 390L540.625 375.625L541.25 372.5H539.375ZM121.25 375L120 377.5L121.875 379.375L123.125 378.75L122.5 375H121.25ZM124.375 375.625V381.25L131.875 393.125L137.5 403.75L143.75 412.5L146.875 416.25H147.5L148.75 401.25V396.25L145.625 394.375L141.875 393.125H134.375V391.875L137.5 390.625L143.75 393.125L147.5 393.75V388.125L146.25 386.25L138.75 383.125H140.625H141.875L141.25 380.625L140 380H133.125L133.75 376.25L130.625 375.625H124.375ZM154.375 381.25L151.875 383.75L150.625 385.625L151.25 390L156.875 393.75L163.75 396.25H165L163.75 393.125L157.5 383.75L155.625 381.25H154.375ZM518.75 381.25L510.625 395.625L503.125 408.75L496.875 418.125L491.25 426.875L488.75 431.875L489.375 435L493.75 433.75L496.875 431.25V430L499.375 428.75L505 422.5L509.375 417.5L515.625 408.75L520.625 398.75L523.75 391.875L523.125 389.375L519.375 381.25H518.75ZM148.75 381.875L146.875 384.375L147.5 385.625L149.375 385L150 382.5L148.75 381.875ZM476.25 383.125L468.75 395.625V397.5L478.75 394.375L483.75 391.875L483.125 389.375L477.5 383.125H476.25ZM483.125 385.625L484.375 388.125L486.875 389.375L485.625 386.875L483.125 385.625ZM150 391.25L150.625 397.5L154.375 403.125L158.75 404.375L156.875 406.25L157.5 408.75L160 411.875L163.125 410.625L166.25 407.5L167.5 405L170 402.5V401.25L164.375 397.5L153.125 393.125L150 391.25ZM150 401.25L149.375 409.375V418.125L153.125 423.75L158.75 430.625L168.75 441.25L178.125 449.375L188.125 456.875L194.375 461.875L197.5 463.125L196.25 452.5L194.375 449.375L183.75 439.375L177.5 433.75L173.125 428.75L167.5 423.125L161.875 416.25L158.75 413.125L155 406.875L151.25 401.25H150ZM482.5 401.875L478.125 406.25L470 416.875L464.375 423.75L456.875 431.25L453.125 433.75L449.375 439.375L443.125 445L432.5 453.125L425.625 457.5L425 462.5V470L428.125 468.75L438.125 461.875L453.125 450.625L462.5 441.875L472.5 431.875L478.75 423.75L482.5 418.75L483.75 418.125V406.875L483.125 401.875H482.5ZM348.125 403.125L343.125 406.875L339.375 411.25L335 416.875L329.375 422.5L325.625 427.5L321.875 435L320.625 442.5V451.25L322.5 455.625L325 453.125L333.125 436.875L338.125 427.5L341.25 420L345 414.375L348.75 406.25V404.375L350.625 403.75L348.125 403.125ZM109.375 405L108.75 408.125H111.25L110.625 405H109.375ZM171.25 405L165 410.625L161.875 413.125L163.125 416.25L180.625 433.75H181.25V424.375L180.625 416.875L178.125 411.875L173.125 405.625L171.25 405ZM340.625 405.625V406.875L343.125 406.25L340.625 405.625ZM461.875 405.625L455.625 411.875L453.75 415V431.25L457.5 428.75L466.25 420L473.125 411.25L475 407.5L464.375 405.625H461.875ZM522.5 406.25L518.125 408.125L513.75 415.625L509.375 419.375L506.25 423.75L509.375 423.125L512.5 421.25L520 413.75L523.75 407.5L522.5 406.25ZM336.875 411.875L333.125 414.375L333.75 415.625L337.5 413.125L336.875 411.875ZM311.25 413.125L310 416.875L310.625 443.75L312.5 465.625L313.125 469.375L314.375 468.125L315 461.25L315.625 416.875H316.25L317.5 432.5L318.75 438.75L320 438.125L324.375 427.5L323.125 421.875L320.625 418.125L315 413.75L311.25 413.125ZM182.5 416.875L183.125 435.625L183.75 437.5L188.75 438.125H203.75L205.625 436.875L196.25 428.75L185.625 418.75L182.5 416.875ZM450.625 417.5L442.5 425L432.5 433.75V434.375H439.375L448.75 432.5L451.875 430V417.5H450.625ZM306.25 419.375L301.25 423.75L299.375 426.875L300 431.875L307.5 454.375H308.75V437.5L307.5 419.375H306.25ZM483.75 419.375L476.875 427.5L472.5 433.125L470.625 435.625V436.875L468.125 438.125L463.75 442.5L461.875 443.75V445L460 445.625V446.875L457.5 448.125L451.875 453.125L441.25 460.625L429.375 469.375L423.125 473.125L405.625 481.25L390 487.5L391.25 491.25H390L388.75 488.125L383.125 489.375L382.5 492.5L381.875 490.625L376.25 491.25L357.5 495.625L347.5 498.125L335 499.375L323.125 500L319.375 500.625V510.625H325L345.625 508.125L358.75 506.25L373.125 503.125L385 499.375L405.625 492.5L420.625 486.25L433.125 480L443.125 473.125L450.625 467.5L458.125 461.25L466.25 455.625L473.125 450.625L483.125 441.25L486.25 437.5L485.625 435.625L483.75 435L486.875 433.75L485 420L483.75 419.375ZM149.375 421.875L148.75 426.25V436.875L152.5 441.875L160.625 450L169.375 456.25L176.25 461.875L184.375 468.125L193.125 475L196.875 476.875H198.125V468.125L196.25 465L190.625 460L180 451.875L171.875 445L167.5 440.625L161.875 436.875L160 436.25L160.625 435L156.25 429.375L150 421.875H149.375ZM505 426.875L500.625 428.75L498.125 431.25L500.625 431.875L506.875 430L508.75 428.125V426.875H505ZM128.75 432.5L132.5 437.5L140 445.625L144.375 450L150 453.75L151.25 456.875L155.625 460L154.375 456.25L153.125 455H154.375L157.5 461.25L163.125 468.125L169.375 473.125L178.125 471.25V472.5L171.875 473.75L173.125 476.25L178.125 478.75H183.75L189.375 478.125V476.25L183.75 471.25L168.125 458.75L158.75 451.875L152.5 446.25L147.5 438.75L143.75 436.25L134.375 434.375L128.75 432.5ZM448.125 433.125L443.125 434.375L431.25 435L426.25 438.125V438.75L433.75 439.375H446.875L450 436.25L451.25 433.125H448.125ZM497.5 433.125L490 436.25L488.75 437.5V448.75L491.25 447.5L501.25 436.875L502.5 433.75L500 433.125H497.5ZM186.25 439.375L190 443.75L195 448.125H196.25L196.875 440.625L197.5 448.75L200.625 451.875L203.75 451.25L212.5 446.25L213.75 445L213.125 442.5L210 440L208.125 439.375H186.25ZM427.5 440.625L425.625 441.25V455L428.125 454.375L433.75 450.625L442.5 443.75L443.75 441.25L427.5 440.625ZM422.5 440.625L412.5 445.625L401.25 451.875V453.125L416.875 459.375L420.625 458.75L423.75 456.25V443.125L422.5 440.625ZM485 442.5L480 446.875L473.125 453.75L471.875 458.125V464.375L474.375 463.125L483.125 455.625L486.875 452.5L485.625 442.5H485ZM217.5 445.625L219.375 452.5L222.5 459.375L225.625 458.75L231.25 454.375L228.125 451.25L218.75 445.625H217.5ZM213.75 446.25L203.125 452.5L206.25 455.625L220 463.75L223.125 465.625L222.5 461.25L215 446.25H213.75ZM198.125 452.5L198.75 463.75L201.25 466.25L215.625 474.375L229.375 481.875L239.375 486.25L248.75 488.75H253.75H254.375V490L262.5 492.5L277.5 495.625H281.875L283.125 493.125V495.625L293.75 497.5L306.875 498.125L307.5 497.5V489.375L305 488.75L283.125 486.875L266.875 483.75L264.375 483.125H259.375H258.75L258.125 480.625L240.625 475.625L231.25 471.875L226.25 471.25L223.125 467.5L209.375 459.375L201.875 454.375L198.125 452.5ZM232.5 454.375L226.25 458.75L223.75 460.625L225.625 466.25L228.125 468.75H235.625L245 465L249.375 462.5L248.75 460.625L236.875 455L232.5 454.375ZM396.25 454.375L387.5 466.875V468.125L382.5 465.625H386.875L391.875 458.75L393.125 455.625L387.5 456.875L376.25 461.25L372.5 463.125L367.5 465L370.625 467.5L382.5 473.125L384.375 474.375H386.25L386.875 468.75H388.125L388.75 472.5L393.75 471.875L409.375 465.625L415 462.5V460L402.5 455L400.625 454.375H396.25ZM468.75 456.25L461.25 461.875L451.25 470L448.75 472.5V473.75L451.25 474.375H460L468.75 468.125L470 466.875V456.25H468.75ZM422.5 458.75L412.5 465L403.75 469.375L390.625 474.375L388.75 475.625L381.25 477.5L365.625 482.5L347.5 485.625L340 486.875L333.75 487.5L319.375 488.125V498.125H328.125L340.625 497.5L356.25 495L374.375 490.625L385.625 487.5L386.875 486.875L387.5 483.125L388.75 485.625L393.75 485L407.5 479.375L419.375 473.75L423.75 470.625L424.375 466.875V458.75H422.5ZM253.125 462.5L258.75 474.375L260.625 477.5L263.75 476.875L273.75 470V468.125L255 462.5H253.125ZM249.375 463.75L238.75 468.125L233.125 470V471.25L253.75 478.125H258.75L256.25 471.875L252.5 465L251.25 463.75H249.375ZM357.5 466.25L350 467.5L343.75 468.125L344.375 470L356.875 476.875L358.75 475L362.5 468.125V466.25H357.5ZM364.375 466.25L358.75 477.5V480L352.5 475.625L341.25 469.375L338.75 470.625L331.875 483.75L331.25 486.25H336.25L345.625 484.375L356.25 482.5L370.625 480L382.5 475.625L380 473.125L369.375 467.5L366.875 466.25H364.375ZM199.375 466.875L198.75 467.5V477.5L204.375 481.25L217.5 488.125L228.75 493.125L243.125 498.75L258.75 503.75L275.625 507.5L298.125 510.625H307.5V500.625L295.625 499.375L293.75 498.75L281.875 497.5L262.5 493.75L243.125 488.125L233.125 484.375L217.5 476.875L202.5 468.125L199.375 466.875ZM280.625 469.375L281.875 471.875L286.25 476.875L307.5 476.25V471.875L291.25 470L280.625 469.375ZM275.625 470L268.125 475L263.125 478.75L262.5 480.625L268.125 482.5L283.125 485.625L291.875 486.25L290 483.125L283.75 476.875L278.125 470H275.625ZM333.75 470L320 471.875L318.75 473.75L319.375 475.625L333.75 474.375L336.875 471.25V470H333.75ZM446.25 474.375L445 477.5H441.25L434.375 481.875L427.5 487.5L426.875 493.125L428.75 493.75L440.625 488.125L451.875 481.25L455 478.125L452.5 476.25L448.125 474.375H446.25ZM328.125 475.625L320 476.875L319.375 477.5V483.125L320 485.625L329.375 486.25L333.75 476.875V475.625H328.125ZM286.875 477.5L288.75 480.625L293.75 485L295.625 486.25L306.875 486.875L307.5 486.25V477.5H286.875ZM193.75 478.75L183.75 481.25L185 483.75L191.875 488.125L196.25 488.75L205.625 488.125L208.75 487.5L206.25 485L195 478.75H193.75ZM421.875 488.125L407.5 494.375L404.375 495.625L406.25 497.5L413.75 500L416.875 499.375L422.5 495.625L423.75 493.75V488.125H421.875ZM201.25 490L201.875 491.875L204.375 493.125H213.75V491.25L211.25 490H201.25ZM217.5 493.125L218.125 496.25L221.25 501.875L223.75 503.75L234.375 508.125H236.25L234.375 500.625L233.125 498.125L218.125 493.125H217.5ZM207.5 495L210.625 498.125L216.875 501.25H218.75L218.125 498.75L215.625 495H207.5ZM400.625 498.125L397.5 499.375L392.5 505L390.625 509.375L395.625 508.75L407.5 504.375L409.375 503.125L408.125 500.625L404.375 498.75L400.625 498.125ZM236.875 500.625L238.125 504.375L242.5 508.75L248.125 512.5L250 513.125H256.25L258.75 511.25L263.75 510.625L260.625 512.5L261.25 515L266.875 516.875L271.25 516.25L274.375 513.75L275.625 512.5V515.625L272.5 516.25V518.125H280L287.5 514.375L288.125 512.5L266.25 509.375L255.625 506.25L246.25 503.125L238.125 500.625H236.875ZM390.625 501.25L373.125 506.25L371.875 507.5L375 509.375L380.625 511.25H386.875L392.5 502.5V501.25H390.625ZM366.875 508.125L363.125 513.125L361.875 515V516.875L367.5 516.25L376.25 513.75V511.25L368.75 508.125H366.875ZM360.625 509.375L346.875 511.25L336.875 512.5L337.5 514.375L345.625 518.125L351.875 519.375L356.25 518.75L359.375 516.25L362.5 511.25V509.375H360.625ZM297.5 513.75V516.25L302.5 521.875L307.5 522.5V514.375L297.5 513.75ZM291.25 513.75L283.125 518.125L282.5 520L296.875 521.875H299.375L298.125 519.375L293.125 514.375L291.25 513.75ZM318.125 514.375V521.875L318.75 522.5H325.625L328.125 519.375L330.625 514.375H318.125ZM333.125 515L328.75 520.625V522.5L340.625 521.875L342.5 520.625L337.5 516.25L335 515H333.125ZM315 525V532.5H315.625V525H315Z" fill="black"/>
</svg>
